<?xml version="1.0" standalone="no"?>
<!DOCTYPE svg PUBLIC "-//W3C//DTD SVG 20010904//EN"
 "http://www.w3.org/TR/2001/REC-SVG-20010904/DTD/svg10.dtd">
<svg version="1.0" xmlns="http://www.w3.org/2000/svg"
 width="131.000000pt" height="95.000000pt" viewBox="0 0 131.000000 95.000000"
 preserveAspectRatio="xMidYMid meet">
<metadata>
Created by potrace 1.16, written by Peter Selinger 2001-2019
</metadata>
<g transform="translate(0.000000,95.000000) scale(0.100000,-0.100000)"
fill="#000000" stroke="none">
<path d="M1095 704 c-60 -12 -328 -66 -594 -118 -266 -53 -486 -97 -487 -99
-8 -7 73 -391 83 -394 5 -2 194 33 419 77 225 45 492 97 594 117 102 20 186
37 187 38 2 1 -15 91 -37 200 -22 109 -40 200 -40 202 0 4 3 4 -125 -23z m43
-116 c-2 -16 -12 -24 -36 -29 -40 -8 -44 -12 -36 -32 4 -11 14 -14 40 -10 30
5 34 3 34 -16 0 -16 -8 -23 -30 -27 -21 -5 -30 -12 -30 -27 0 -18 5 -19 45
-14 25 4 45 3 45 -2 0 -5 2 -16 5 -24 5 -10 -11 -17 -65 -26 -39 -7 -73 -11
-74 -10 -2 2 -11 46 -20 97 -10 52 -20 100 -22 107 -5 13 60 31 119 34 24 1
28 -3 25 -21z m-173 -121 c-17 -98 -31 -127 -61 -127 -7 0 -42 46 -78 102 -37
57 -66 94 -66 83 1 -11 9 -60 20 -110 10 -49 18 -91 17 -92 -1 -1 -14 -4 -29
-8 -30 -8 -30 -8 -53 110 -20 106 -21 103 23 114 70 20 78 16 121 -55 l39 -67
7 49 c13 90 20 108 46 114 13 4 26 2 27 -2 2 -5 -4 -55 -13 -111z m-277 31 c2
-11 -6 -18 -28 -23 -22 -5 -29 -11 -26 -23 7 -24 26 -133 26 -149 0 -8 -12
-13 -29 -13 -28 0 -29 2 -41 73 -6 39 -13 77 -15 83 -4 14 -68 5 -78 -12 -5
-8 -19 -11 -42 -7 -42 7 -65 -9 -65 -46 0 -59 57 -92 95 -55 12 13 19 14 30 4
57 -47 -63 -100 -129 -57 -35 24 -59 80 -52 122 12 63 94 108 148 81 25 -13
28 -13 28 3 0 14 13 20 58 28 79 14 116 12 120 -9z m-376 -156 c32 -51 56 -97
53 -102 -11 -17 -46 -11 -64 11 -14 18 -22 19 -51 12 -24 -7 -36 -16 -40 -34
-4 -17 -14 -25 -34 -27 -26 -3 -27 -1 -22 25 4 15 13 65 21 111 17 99 20 104
53 100 21 -2 38 -22 84 -96z" />
<path d="M227 355 c-12 -30 -7 -45 13 -45 23 0 24 6 6 39 -11 20 -14 21 -19 6z" />

</g>
</svg>
