<?xml version="1.0" encoding="UTF-8"?><svg id="Layer_2" xmlns="http://www.w3.org/2000/svg" xmlns:xlink="http://www.w3.org/1999/xlink" viewBox="0 0 444.06 284.58"><defs><style>.cls-1,.cls-2{fill:none;}.cls-3{clip-path:url(#clippath);}.cls-4{fill:#41ad49;}.cls-5{fill:#0f1132;}.cls-2{stroke:#fff;stroke-width:2px;}.cls-6{clip-path:url(#clippath-1);}.cls-7{letter-spacing:0em;}.cls-8{fill:#fff;font-family:Futura-Bold, Futura;font-size:86.02px;}.cls-9{letter-spacing:-.03em;}</style><clipPath id="clippath"><rect class="cls-1" width="444.06" height="284.58"/></clipPath><clipPath id="clippath-1"><rect class="cls-1" width="444.06" height="284.58"/></clipPath></defs><g id="Layer_1-2"><g class="cls-3"><path class="cls-5" d="M96.16,284.57v-104.59H54.28c-.49-5.81-.98-10.43,3.74-15.11C111.96,111.37,165.64,57.59,219.36,3.87c.93-.93,1.57-2.16,2.77-3.87,21.44,21.56,42.15,42.38,63.41,63.75V11.67h42.07v4.69c0,28.66,.03,57.32-.06,85.99,0,2.61,.75,4.41,2.61,6.25,18.26,18.11,36.24,36.53,54.74,54.39,4.98,4.81,7.01,9.62,5.27,16.66h-41.49v104.93h-105.06v-62.53h-42.19v62.52H96.16Z"/></g><rect class="cls-4" x="11.6" y="81.76" width="415.42" height="123.38" transform="translate(-11.67 19.66) rotate(-5)"/><g class="cls-6"><rect class="cls-2" x="11.6" y="81.76" width="415.42" height="123.38" transform="translate(-11.67 19.66) rotate(-5)"/></g><text class="cls-8" transform="translate(67.05 188.53) rotate(-5)"><tspan class="cls-9" x="0" y="0">A</tspan><tspan class="cls-7" x="66.66" y="0">CTIVE</tspan></text></g></svg>