<?xml version="1.0" encoding="UTF-8"?><svg id="Layer_2" xmlns="http://www.w3.org/2000/svg" xmlns:xlink="http://www.w3.org/1999/xlink" viewBox="0 0 50.76 50.67"><defs><style>.cls-1{fill:none;}.cls-2{clip-path:url(#clippath);}.cls-3{fill:#0f1132;}</style><clipPath id="clippath"><rect class="cls-1" width="50.76" height="50.67"/></clipPath></defs><g id="Layer_1-2"><g class="cls-2"><path class="cls-3" d="M25.36,50.67v-4.88c10.48-.95,17.45-6.17,19.82-16.58,1.71-7.53-1.43-15.1-7.02-19.31-.84,.9-1.7,1.81-2.66,2.83V2.63h9.94c-1.22,1.21-2.44,2.42-3.6,3.57,9.02,8.74,11.4,18.81,6.24,30.16-4.4,9.68-14.14,14.46-22.71,14.31"/><path class="cls-3" d="M12.45,40.91c.93-.94,1.8-1.83,2.72-2.77v10.01H5.25c1.23-1.19,2.47-2.38,3.76-3.63C3.56,39.9,.62,34.19,.08,27.3c-.39-5.01,.58-9.8,3.12-14.15C8.11,4.71,15.54,.44,25.3,0V4.96C14.47,6.02,7.32,11.49,5.37,22.41c-1.31,7.32,1.27,13.57,7.08,18.49"/></g></g></svg>