<?xml version="1.0" encoding="UTF-8"?><svg id="Layer_2" xmlns="http://www.w3.org/2000/svg" xmlns:xlink="http://www.w3.org/1999/xlink" viewBox="0 0 52.53 56.07"><defs><style>.cls-1{fill:none;}.cls-2{clip-path:url(#clippath);}.cls-3{fill:#0f1132;}</style><clipPath id="clippath"><rect class="cls-1" width="52.53" height="56.07"/></clipPath></defs><g id="Layer_1-2"><g class="cls-2"><path class="cls-3" d="M46.89,28.38c.13-10.38-9.05-20.38-21.22-19.96-10.69,.37-19.59,9.69-19.44,20.82,.14,11.1,9.49,20.16,20.79,19.91,12.04-.27,20.36-10.47,19.88-20.76m4.21,.3c.03,6.12-1.98,11.34-5.76,15.89-.61,.74-.59,1.21-.17,2.05,1.07,2.14,2.15,4.3,2.86,6.57,.69,2.19-.73,3.48-2.83,2.6-1.9-.79-3.75-1.85-5.35-3.13-1.67-1.33-3.02-1.6-5.14-.8-6.02,2.27-12.11,1.96-18.02-.64-.67-.3-1.09-.19-1.64,.21-1.63,1.17-3.28,2.32-4.97,3.4-.75,.48-1.59,.84-2.44,1.09-1.74,.52-2.86-.41-2.66-2.22,.1-.91,.35-1.84,.72-2.68,.63-1.44,1.29-2.9,2.16-4.2,.68-1.02,.49-1.62-.22-2.49-4.03-4.93-5.89-10.61-5.53-16.98C2.72,16.34,10.59,7.13,21.35,4.79c14.07-3.06,27.73,6.55,29.6,20.83,.14,1.06,.12,2.15,.16,3.07"/><path class="cls-3" d="M3.36,14.18c-.99-1.22-1.97-2.27-2.77-3.44-.95-1.38-.73-3.16,.51-4.31C3.15,4.52,5.23,2.66,7.36,.84c1.36-1.15,3.22-1.07,4.52,.12,.74,.67,1.42,1.42,2.11,2.15,.19,.2,.35,.44,.63,.8C9.88,6.2,6.3,9.73,3.36,14.18"/><path class="cls-3" d="M49.16,14.13c-2.92-4.42-6.52-7.88-11.38-10.32,1.2-1.15,2.21-2.26,3.36-3.2,1.02-.83,2.69-.81,3.72,.05,2.28,1.9,4.53,3.86,6.7,5.89,1.18,1.1,1.25,2.86,.37,4.26-.21,.33-.44,.65-.7,.95-.65,.76-1.32,1.51-2.08,2.38"/><path class="cls-3" d="M27.56,20.04c0,1.83,.06,3.67-.02,5.49-.05,1.03,.42,1.36,1.3,1.39,1.4,.04,2.8,.05,4.2,.07,1.87,.04,3.73,.05,5.6,.15,1.09,.05,1.68,.72,1.66,1.71-.01,.96-.65,1.56-1.79,1.58-2.58,.05-5.17,0-7.75,.11-1.12,.05-2.25,.3-3.33,.59-1.18,.31-2.35-.06-2.98-1.11-.62-1.03-.45-2.31,.54-3.1,.56-.44,.69-.9,.69-1.55-.02-3.45,0-6.89,0-10.34,0-.18-.02-.36,.01-.54,.12-.61-.21-1.54,.84-1.56,1.09-.02,1.05,.83,1.04,1.62-.01,1.83,0,3.66,0,5.49"/></g></g></svg>