<?xml version="1.0" encoding="UTF-8"?>
<svg id="Layer_2"
	xmlns="http://www.w3.org/2000/svg"
	xmlns:xlink="http://www.w3.org/1999/xlink" viewBox="0 0 50.49 51.18">
	<defs>
		<style>.cls-1{fill:none;}.cls-2{clip-path:url(#clippath);}.cls-3{fill:#0f1132;}</style>
		<clipPath id="clippath">
			<rect class="cls-1" width="50.49" height="51.18" />
		</clipPath>
	</defs>
	<g id="Layer_1-2">
		<g class="cls-2">
			<path class="cls-3" d="M25.25,47.6c6.94,0,13.88,0,20.82,.01,.63,0,.83-.15,.83-.81-.02-9.09-.02-18.18,0-27.27,0-.68-.23-.8-.84-.8-13.88,.01-27.76,.01-41.64,0-.63,0-.83,.15-.83,.81,.02,9.09,.02,18.18,0,27.27,0,.68,.22,.8,.83,.8,6.94-.02,13.88-.01,20.82-.01M50.49,6.17V51.18H0V6.03H7.12c.07,1.09,.05,1.98,.19,2.84,.42,2.61,2.74,4.51,5.39,4.48,2.63-.04,4.88-1.97,5.24-4.56,.12-.85,.11-1.71,.17-2.61h14.34c0,.53,0,1.04,0,1.55,0,1.46,.42,2.76,1.43,3.84,1.56,1.69,3.81,2.21,5.96,1.41,2.02-.75,3.41-2.78,3.47-5.07,.01-.57,0-1.15,0-1.74h7.17Z" />
			<path class="cls-3" d="M13.18,0c.48,.22,1.01,.38,1.44,.68,.8,.55,1.36,1.33,1.4,2.32,.07,1.58,.13,3.18,0,4.75-.15,1.8-1.74,3.08-3.51,3.05-1.84-.04-3.3-1.36-3.43-3.22-.09-1.37-.09-2.75-.03-4.13,.07-1.71,.99-2.81,2.62-3.32,.09-.03,.16-.08,.24-.13h1.26Z" />
			<path class="cls-3" d="M38.43,0c1.08,.37,2.08,.87,2.55,2,.19,.47,.35,.98,.36,1.48,.03,1.44,.04,2.9-.08,4.33-.14,1.7-1.68,2.97-3.43,2.98-1.72,0-3.35-1.28-3.47-2.94-.12-1.62-.12-3.27,0-4.89,.1-1.3,.94-2.2,2.16-2.7,.21-.09,.43-.17,.64-.26h1.26Z" />
		</g>
		<rect class="cls-3" x="27.27" y="22.69" width="5.58" height="4.9" />
		<rect class="cls-3" x="9.07" y="39.5" width="5.58" height="4.92" />
		<rect class="cls-3" x="27.29" y="39.51" width="5.59" height="4.91" />
		<rect class="cls-3" x="18.11" y="22.67" width="5.57" height="4.93" />
		<rect class="cls-3" x="35.81" y="22.66" width="5.55" height="4.93" />
		<rect class="cls-3" x="18.1" y="39.5" width="5.58" height="4.93" />
		<rect class="cls-3" x="35.79" y="39.49" width="5.58" height="4.93" />
		<rect class="cls-3" x="9.09" y="31" width="5.58" height="4.88" />
		<rect class="cls-3" x="27.27" y="31.01" width="5.61" height="4.88" />
		<rect class="cls-3" x="18.09" y="31.03" width="5.59" height="4.86" />
		<rect class="cls-3" x="35.79" y="31.01" width="5.57" height="4.89" />
	</g>
</svg>