<?xml version="1.0" encoding="UTF-8"?><svg id="Layer_2" xmlns="http://www.w3.org/2000/svg" xmlns:xlink="http://www.w3.org/1999/xlink" viewBox="0 0 60.9 53.18"><defs><style>.cls-1,.cls-2{fill:none;}.cls-3{clip-path:url(#clippath);}.cls-2{stroke:#0f1132;stroke-miterlimit:10;stroke-width:4px;}</style><clipPath id="clippath"><rect class="cls-1" width="60.9" height="53.18"/></clipPath></defs><g id="Layer_1-2"><g class="cls-3"><path class="cls-2" d="M9.13,51.18v-17.67H2.05c-.08-.98-.16-1.76,.63-2.55C11.8,21.91,20.86,12.83,29.94,3.75c.16-.16,.26-.37,.47-.65,3.62,3.64,7.12,7.16,10.71,10.77V5.07h7.11v.79c0,4.84,0,9.68-.01,14.53,0,.44,.13,.74,.44,1.06,3.09,3.06,6.12,6.17,9.25,9.19,.84,.81,1.18,1.62,.89,2.82h-7.01v17.73h-17.75v-10.56h-7.13v10.56H9.13Z"/></g></g></svg>