<svg version="1.1"
	xmlns="http://www.w3.org/2000/svg" width="120px" height="120px" viewBox="0 0 120 120">

	<path fill="#009245" d="M119.548,88c0,17.673-14.272,32-31.88,32H31.879C14.272,120,0,105.673,0,88V32C0,14.327,14.272,0,31.879,0
h55.789c17.605,0,31.88,14.327,31.88,32V88z" />
	<path fill="#fff4" d="M115.495,15.705C110.6,7.244,101.955,1.247,91.841,0H28.204C12.45,1.942,0.249,15.411,0.249,31.75v56
c0,9.414,4.051,17.877,10.497,23.732C43.246,104.831,104.001,44.82,115.495,15.705z" />

	<g>
		<path fill="#0003" d="M7.083,83.672v8.562c0,10.09,8.178,18.267,18.266,18.267h69.069c10.089,0,18.266-8.177,18.266-18.267
v-8.562H7.083z" />
	</g>

<line fill="none" stroke="#0006" stroke-width="2" x1="7.083" y1="82.87" x2="112.527" y2="82.87" />

	<text transform="matrix(1 0 0 1 7.2881 36.9629)" font-family="sans-serif" font-size="22" font-weight="bold" fill="#fff">PENDING</text>
</svg>
