<?xml version="1.0" encoding="utf-8"?>
<svg version="1.1"
	xmlns="http://www.w3.org/2000/svg" x="0px" y="0px" width="120px" height="120px" viewBox="-0.203 -0.25 120 120">
	<path fill="#009245" d="M119.548,88c0,17.673-14.273,32-31.88,32H31.879C14.272,120,0,105.673,0,88V32C0,14.327,14.272,0,31.879,0
h55.789c17.606,0,31.88,14.327,31.88,32V88z" />
	<g opacity="0.3">
		<path fill="#ffffff" d="M115.495,15.705C110.599,7.244,101.955,1.247,91.841,0H28.204C12.45,1.942,0.249,15.411,0.249,31.75v56
c0,9.414,4.051,17.877,10.497,23.732C43.246,104.831,104.001,44.82,115.495,15.705z" />
	</g>
</svg>
