<svg xmlns="http://www.w3.org/2000/svg" viewBox="0 0 368.64 318.66">
<path d="M159.65,130.65H344.71c10.22,0,19.94,4.55,27.17,12.64A45.51,45.51,0,0,1,383.13,172L366.64,370.71H79.84l-21.66.69V173.71c0-1.11,0-2.22.13-3.32,0-.45.07-.9.11-1.34s-.08-.81-.11-1.22c-.08-1.07-.13-2.14-.13-3.22V120.76A39.75,39.75,0,0,1,68,94.26a31.7,31.7,0,0,1,23.67-11h34.46a31.71,31.71,0,0,1,23.67,11,39.79,39.79,0,0,1,9.83,26.5Z" transform="translate(-58.1 -83.25)" fill="#e8b826" fill-rule="evenodd" />
<rect x="66.72" y="85.47" width="235.2" height="112.8" rx="15.36" fill="#f5f5f5" />
<path d="M395.68,192.44a34,34,0,0,1,8.81,1.14,29.69,29.69,0,0,1,16.24,10.88,30.66,30.66,0,0,1,6,18.49,36.1,36.1,0,0,1-1.27,9.36L388.8,369.15a44.78,44.78,0,0,1-15.67,23.18c-7.41,5.85-16.7,9.58-26.21,9.58H89.16a34.16,34.16,0,0,1-8.82-1.14,29.7,29.7,0,0,1-16.23-10.88,30.64,30.64,0,0,1-6-18.49A36.1,36.1,0,0,1,59.37,362L96,225.2A44.82,44.82,0,0,1,111.7,202c7.42-5.84,16.71-9.58,26.22-9.58Z" transform="translate(-58.1 -83.25)" fill="#ffca28" fill-rule="evenodd" />

</svg>
