<svg width="94" height="94" viewBox="0 0 94 94" fill="none"
	xmlns="http://www.w3.org/2000/svg">
<circle cx="47" cy="47" r="47" fill="#4296D5" />
<path d="M51.6302 48.4614C54.2014 44.9018 53.3414 39.9727 49.7106 37.4525C46.0798 34.9323 41.0522 35.7748 38.4816 39.335C35.9109 42.8946 36.7703 47.823 40.4017 50.3432C42.9932 52.142 46.4195 52.2805 49.1529 50.6979L55.0921 56.4857C55.7333 57.1475 56.8003 57.174 57.4753 56.5453C58.1504 55.9172 58.1774 54.8712 57.5368 54.2094C57.5165 54.1883 57.4968 54.169 57.4753 54.1492L51.6302 48.4614ZM45.0509 49.0009C42.1818 49.0015 39.8556 46.7228 39.8538 43.9099C39.8532 41.097 42.1775 38.8165 45.0473 38.8153C47.9127 38.8141 50.2377 41.0892 50.2432 43.8985C50.2481 46.712 47.925 48.9961 45.0546 49.0009C45.0534 49.0009 45.0528 49.0009 45.0509 49.0009Z" fill="white" />

</svg>
