<?xml version="1.0"?>

<svg xmlns="http://www.w3.org/2000/svg">
	<symbol id="rectangle-icon">
		<svg viewBox="0 0 641 695">
			<g filter="url(#filter0_d_911:3)">
				<path d="M2.68467 472.789L439.185 2.78882L618.685 2.78882L2.2328 672.305L2.68467 472.789Z" fill="#C32033"/>
			</g>
			<defs>
				<filter id="filter0_d_911:3" x="0.232796" y="0.789062" width="640.452" height="693.516" filterUnits="userSpaceOnUse" color-interpolation-filters="sRGB">
					<feFlood flood-opacity="0" result="BackgroundImageFix"/>
					<feColorMatrix in="SourceAlpha" type="matrix" values="0 0 0 0 0 0 0 0 0 0 0 0 0 0 0 0 0 0 127 0" result="hardAlpha"/>
					<feOffset dx="10" dy="10"/>
					<feGaussianBlur stdDeviation="6"/>
					<feColorMatrix type="matrix" values="0 0 0 0 0 0 0 0 0 0 0 0 0 0 0 0 0 0 0.18 0"/>
					<feBlend mode="normal" in2="BackgroundImageFix" result="effect1_dropShadow_911:3"/>
					<feBlend mode="normal" in="SourceGraphic" in2="effect1_dropShadow_911:3" result="shape"/>
				</filter>
			</defs>
		</svg>
	</symbol>

	<symbol id="avg-dom-icon">
		<svg viewBox="0 0 500 500">
			<path d="M250,8.36C116.55,8.36,8.36,116.55,8.36,250S116.55,491.64,250,491.64S491.64,383.45,491.64,250 S383.45,8.36,250,8.36z M354.85,355.89L354.85,355.89c-5.5,5.5-14.43,5.5-19.93,0l-72-72c-4.01,1.53-8.36,2.38-12.92,2.38 c-20.03,0-36.27-16.24-36.27-36.27c0-15.13,9.26-28.08,22.42-33.52V95.52c0-7.78,6.31-14.09,14.09-14.09 c7.78,0,14.09,6.31,14.09,14.09v121.16c12.89,5.56,21.92,18.38,21.92,33.31c0,5.12-1.07,9.99-2.98,14.4l71.56,71.56 C360.35,341.46,360.35,350.39,354.85,355.89z"/>
		</svg>
	</symbol>

	<symbol id="barchart-icon">
		<svg viewBox="0 0 512 512">
			<path d="M396.8 352h22.4c6.4 0 12.8-6.4 12.8-12.8V108.8c0-6.4-6.4-12.8-12.8-12.8h-22.4c-6.4 0-12.8 6.4-12.8 12.8v230.4c0 6.4 6.4 12.8 12.8 12.8zm-192 0h22.4c6.4 0 12.8-6.4 12.8-12.8V140.8c0-6.4-6.4-12.8-12.8-12.8h-22.4c-6.4 0-12.8 6.4-12.8 12.8v198.4c0 6.4 6.4 12.8 12.8 12.8zm96 0h22.4c6.4 0 12.8-6.4 12.8-12.8V204.8c0-6.4-6.4-12.8-12.8-12.8h-22.4c-6.4 0-12.8 6.4-12.8 12.8v134.4c0 6.4 6.4 12.8 12.8 12.8zM496 400H48V80c0-8.84-7.16-16-16-16H16C7.16 64 0 71.16 0 80v336c0 17.67 14.33 32 32 32h464c8.84 0 16-7.16 16-16v-16c0-8.84-7.16-16-16-16zm-387.2-48h22.4c6.4 0 12.8-6.4 12.8-12.8v-70.4c0-6.4-6.4-12.8-12.8-12.8h-22.4c-6.4 0-12.8 6.4-12.8 12.8v70.4c0 6.4 6.4 12.8 12.8 12.8z"></path>
		</svg>
	</symbol>

	<symbol id="dollar-icon">
		<svg viewBox="0 0 288 512">
			<path d="M211.9 242.1L95.6 208.9c-15.8-4.5-28.6-17.2-31.1-33.5C60.6 150 80.3 128 105 128h73.8c15.9 0 31.5 5 44.4 14.1 6.4 4.5 15 3.8 20.5-1.7l22.9-22.9c6.8-6.8 6.1-18.2-1.5-24.1C240.4 74.3 210.4 64 178.8 64H176V16c0-8.8-7.2-16-16-16h-32c-8.8 0-16 7.2-16 16v48h-2.5C60.3 64 14.9 95.8 3.1 143.6c-13.9 56.2 20.2 111.2 73 126.3l116.3 33.2c15.8 4.5 28.6 17.2 31.1 33.5C227.4 362 207.7 384 183 384h-73.8c-15.9 0-31.5-5-44.4-14.1-6.4-4.5-15-3.8-20.5 1.7l-22.9 22.9c-6.8 6.8-6.1 18.2 1.5 24.1 24.6 19.1 54.6 29.4 86.3 29.4h2.8v48c0 8.8 7.2 16 16 16h32c8.8 0 16-7.2 16-16v-48h2.5c49.2 0 94.6-31.8 106.4-79.6 13.9-56.2-20.2-111.2-73-126.3z"></path>
		</svg>
	</symbol>

	<symbol id="pin-icon">
		<svg viewBox="0 0 50 50">
			<path d="M28.7915 23.6212L28.7916 23.6219L29.4686 44.0925L20.6647 25.5994" fill="#B0BCC1" style="stroke: #555;stroke-linejoin: round;"/>
			<path d="M24.9368 25.4694C30.4682 24.1235 33.8612 18.5483 32.5153 13.0169C31.1694 7.48556 25.5942 4.09256 20.0628 5.43848C14.5314 6.7844 11.1384 12.3596 12.4844 17.891C13.8303 23.4223 19.4055 26.8153 24.9368 25.4694Z" fill="#C32033" style="stroke: #555;"/>
			<path d="M28.1319 14.3775C29.1775 14.1231 29.8189 13.0693 29.5645 12.0237C29.3101 10.978 28.2562 10.3367 27.2106 10.5911C26.165 10.8455 25.5236 11.8994 25.7781 12.945C26.0325 13.9906 27.0863 14.632 28.1319 14.3775Z" fill="#FF645F" />
		</svg>
	</symbol>

	<symbol id="checkmark-icon">
		<svg viewBox="0 0 500 500">
			<path d="M30.04,106.76h343.61c-34.34,37.09-67.4,75.31-98.4,115.44c-25.15,32.52-49.27,65.85-74.47,99.65 c-2.5-3.75-4.68-7.07-6.88-10.36c-23.14-34.26-48.31-66.8-81.35-91.92c-6.74-5.11-14.3-9.57-22.08-12.78 c-9.57-3.92-17.18-0.27-22.57,8.7c-6.69,11.2-4.68,21.91,8.37,34.61c32.54,31.65,55.82,69.74,75.53,110.36 c6.69,13.76,11.99,28.25,19.2,41.65c11.2,20.72,34.48,24.33,51.63,8.4c4.51-4.19,7.97-9.71,11.26-15.01 c31.13-49.86,61.15-100.46,93.37-149.56c23.65-36.11,50.24-69.82,77.92-102.61v317.45H30.04V106.76z M470.33,12.22 c-8.18,5.44-16.18,11.5-23.11,18.49c-15.85,15.77-31.51,31.7-46.98,47.85H21.77c-10.74,0-19.47,8.89-19.47,19.82v370.8 c0,10.9,8.73,19.82,19.47,19.82h391.68c10.74,0,19.47-8.92,19.47-19.82V111.11c14.6-16.67,29.28-33.25,43.91-49.89 c6.93-7.86,12.75-16.91,17.89-26.13c4.08-7.34,4.27-15.55-2.61-22.08c-3.4-3.24-7.04-4.59-10.71-4.59 C477.64,8.41,473.86,9.86,470.33,12.22"/>
		</svg>
	</symbol>

	<symbol id="check-mark-icon">
		<svg viewBox="0 0 55 47">
			<path d="M44.2268 1.08685H0V46.739H47.0619V16.8477L41.3918 21.739V41.3042H5.10309V6.52164H39.1237L44.2268 1.08685Z" fill="black"/>
			<path d="M18.1443 11.9565L12.4742 16.8478L27.7835 30.9783L55 5.43479L48.7629 0L27.7835 20.6522L18.1443 11.9565Z" fill="black"/>
		</svg>
	</symbol>

	<symbol id="check-icon" class="stat-icon">
		<svg viewBox="0 0 145 167">
			<g filter="url(#filter0_d_530_8)">
				<rect x="4" y="35" width="126" height="127" stroke="url(#paint0_linear_530_8)" stroke-width="8" shape-rendering="crispEdges"/>
			</g>
			<g filter="url(#filter1_d_530_8)">
				<path d="M143.5 59.5C138.7 37.1 139.833 10.5 141 0C107 20 72.1667 87.3333 59 118.5L41 75L3 103C24.6 117 52.3333 148.167 63.5 162C86.7 110.8 126.5 72.3333 143.5 59.5Z" fill="url(#paint1_linear_530_8)"/>
			</g>
			<defs>
				<filter id="filter0_d_530_8" x="0" y="31" width="135" height="136" filterUnits="userSpaceOnUse" color-interpolation-filters="sRGB">
					<feFlood flood-opacity="0" result="BackgroundImageFix"/>
					<feColorMatrix in="SourceAlpha" type="matrix" values="0 0 0 0 0 0 0 0 0 0 0 0 0 0 0 0 0 0 127 0" result="hardAlpha"/>
					<feOffset dx="1" dy="1"/>
					<feComposite in2="hardAlpha" operator="out"/>
					<feColorMatrix type="matrix" values="0 0 0 0 0 0 0 0 0 0 0 0 0 0 0 0 0 0 0.3 0"/>
					<feBlend mode="normal" in2="BackgroundImageFix" result="effect1_dropShadow_530_8"/>
					<feBlend mode="normal" in="SourceGraphic" in2="effect1_dropShadow_530_8" result="shape"/>
				</filter>
				<filter id="filter1_d_530_8" x="3" y="0" width="141.5" height="163" filterUnits="userSpaceOnUse" color-interpolation-filters="sRGB">
					<feFlood flood-opacity="0" result="BackgroundImageFix"/>
					<feColorMatrix in="SourceAlpha" type="matrix" values="0 0 0 0 0 0 0 0 0 0 0 0 0 0 0 0 0 0 127 0" result="hardAlpha"/>
					<feOffset dx="1" dy="1"/>
					<feComposite in2="hardAlpha" operator="out"/>
					<feColorMatrix type="matrix" values="0 0 0 0 0 0 0 0 0 0 0 0 0 0 0 0 0 0 0.5 0"/>
					<feBlend mode="normal" in2="BackgroundImageFix" result="effect1_dropShadow_530_8"/>
					<feBlend mode="normal" in="SourceGraphic" in2="effect1_dropShadow_530_8" result="shape"/>
				</filter>
				<linearGradient id="paint0_linear_530_8" x1="134" y1="31.5" x2="9.8582e-07" y2="163" gradientUnits="userSpaceOnUse">
					<stop offset="0.0674235" stop-color="#404B4E"/>
					<stop offset="0.217472" stop-color="#495A60" stop-opacity="0"/>
					<stop offset="0.362576" stop-color="#50666E"/>
					<stop offset="0.496742" stop-color="#8DB9D6" stop-opacity="0"/>
					<stop offset="0.623819" stop-color="#404B4E"/>
					<stop offset="0.725398" stop-color="#9CC4D8" stop-opacity="0"/>
					<stop offset="0.848199" stop-color="#404B4E"/>
				</linearGradient>
				<linearGradient id="paint1_linear_530_8" x1="3" y1="90.5" x2="144" y2="90.5" gradientUnits="userSpaceOnUse">
					<stop stop-color="#0A9246"/>
					<stop offset="0.417479" stop-color="#7EC042"/>
					<stop offset="1" stop-color="#1AAD4A"/>
				</linearGradient>
			</defs>
		</svg>
	</symbol>

	<symbol id="arrow-icon">
		<svg viewBox="0 0 384 512" class="not really">
			<path d="M172.268 501.67C26.97 291.031 0 269.413 0 192 0 85.961 85.961 0 192 0s192 85.961 192 192c0 77.413-26.97 99.031-172.268 309.67-9.535 13.774-29.93 13.773-39.464 0zM192 272c44.183 0 80-35.817 80-80s-35.817-80-80-80-80 35.817-80 80 35.817 80 80 80z"></path>
		</svg>
	</symbol>

	<symbol id="arrow-down-icon">
		<svg viewBox="0 0 384 512" class="not really">
			<path d="M172.268 501.67C26.97 291.031 0 269.413 0 192 0 85.961 85.961 0 192 0s192 85.961 192 192c0 77.413-26.97 99.031-172.268 309.67-9.535 13.774-29.93 13.773-39.464 0zM192 272c44.183 0 80-35.817 80-80s-35.817-80-80-80-80 35.817-80 80 35.817 80 80 80z"></path>
		</svg>

	</symbol>

	<symbol id="arrow-up-icon">
		<svg viewBox="0 0 384 512" class="not really">
			<path d="M172.268 501.67C26.97 291.031 0 269.413 0 192 0 85.961 85.961 0 192 0s192 85.961 192 192c0 77.413-26.97 99.031-172.268 309.67-9.535 13.774-29.93 13.773-39.464 0zM192 272c44.183 0 80-35.817 80-80s-35.817-80-80-80-80 35.817-80 80 35.817 80 80 80z"></path>
		</svg>

	</symbol>

	<symbol id="hand-icon">
		<svg viewBox="0 0 384 512" class="not really">
			<path d="M172.268 501.67C26.97 291.031 0 269.413 0 192 0 85.961 85.961 0 192 0s192 85.961 192 192c0 77.413-26.97 99.031-172.268 309.67-9.535 13.774-29.93 13.773-39.464 0zM192 272c44.183 0 80-35.817 80-80s-35.817-80-80-80-80 35.817-80 80 35.817 80 80 80z"></path>
		</svg>

	</symbol>

	<symbol id="home-icon">
		<svg viewBox="0 0 384 512" class="not really">
			<path d="M172.268 501.67C26.97 291.031 0 269.413 0 192 0 85.961 85.961 0 192 0s192 85.961 192 192c0 77.413-26.97 99.031-172.268 309.67-9.535 13.774-29.93 13.773-39.464 0zM192 272c44.183 0 80-35.817 80-80s-35.817-80-80-80-80 35.817-80 80 35.817 80 80 80z"></path>
		</svg>

	</symbol>

	<symbol id="house-icon">
		<svg viewBox="0 0 384 512" class="not really">
			<path d="M172.268 501.67C26.97 291.031 0 269.413 0 192 0 85.961 85.961 0 192 0s192 85.961 192 192c0 77.413-26.97 99.031-172.268 309.67-9.535 13.774-29.93 13.773-39.464 0zM192 272c44.183 0 80-35.817 80-80s-35.817-80-80-80-80 35.817-80 80 35.817 80 80 80z"></path>
		</svg>

	</symbol>

	<symbol id="map-pin-icon">
		<svg viewBox="0 0 384 512">
			<path d="M172.268 501.67C26.97 291.031 0 269.413 0 192 0 85.961 85.961 0 192 0s192 85.961 192 192c0 77.413-26.97 99.031-172.268 309.67-9.535 13.774-29.93 13.773-39.464 0zM192 272c44.183 0 80-35.817 80-80s-35.817-80-80-80-80 35.817-80 80 35.817 80 80 80z"></path>
		</svg>
	</symbol>

	<symbol id="calendar-icon">
		<svg viewBox="0 0 448 512">
			<path d="M400 64h-48V8c0-4.4-3.6-8-8-8h-16c-4.4 0-8 3.6-8 8v56H128V8c0-4.4-3.6-8-8-8h-16c-4.4 0-8 3.6-8 8v56H48C21.5 64 0 85.5 0 112v352c0 26.5 21.5 48 48 48h352c26.5 0 48-21.5 48-48V112c0-26.5-21.5-48-48-48zm16 400c0 8.8-7.2 16-16 16H48c-8.8 0-16-7.2-16-16V192h384v272zm0-304H32v-48c0-8.8 7.2-16 16-16h352c8.8 0 16 7.2 16 16v48zM112 384h96c8.8 0 16-7.2 16-16v-96c0-8.8-7.2-16-16-16h-96c-8.8 0-16 7.2-16 16v96c0 8.8 7.2 16 16 16zm16-96h64v64h-64v-64z"></path>
		</svg>
	</symbol>

	<symbol id="email-new">
		<svg viewBox="0 0 512 512">
			<path d="M502.3 190.8c3.9-3.1 9.7-.2 9.7 4.7V400c0 26.5-21.5 48-48 48H48c-26.5 0-48-21.5-48-48V195.6c0-5 5.7-7.8 9.7-4.7 22.4 17.4 52.1 39.5 154.1 113.6 21.1 15.4 56.7 47.8 92.2 47.6 35.7.3 72-32.8 92.3-47.6 102-74.1 131.6-96.3 154-113.7zM256 320c23.2.4 56.6-29.2 73.4-41.4 132.7-96.3 142.8-104.7 173.4-128.7 5.8-4.5 9.2-11.5 9.2-18.9v-19c0-26.5-21.5-48-48-48H48C21.5 64 0 85.5 0 112v19c0 7.4 3.4 14.3 9.2 18.9 30.6 23.9 40.7 32.4 173.4 128.7 16.8 12.2 50.2 41.8 73.4 41.4z"></path>
		</svg>
	</symbol>

	<symbol id="bed-icon">
		<svg viewBox="0 0 20 20">
			<path d="M5.289,9.615c1.29,0,2.34-1.05,2.34-2.339c0-1.29-1.05-2.34-2.34-2.34C4,4.936,2.95,5.985,2.95,7.275 C2.95,8.565,4,9.615,5.289,9.615z M15.582,5.872H9.033c-0.26,0-0.469,0.209-0.469,0.468v4.211H2.014V4.468 C2.014,4.209,1.805,4,1.547,4H0.61C0.352,4,0.143,4.209,0.143,4.468v10.294c0,0.259,0.209,0.468,0.468,0.468h0.937 c0.258,0,0.467-0.209,0.467-0.468v-1.404h14.973v1.404c0,0.259,0.209,0.468,0.469,0.468h0.936c0.258,0,0.467-0.209,0.467-0.468	V9.147C18.857,7.338,17.393,5.872,15.582,5.872z"/>
		</svg>
	</symbol>

	<symbol id="bath-icon">
		<svg viewBox="0 0 512 512">
			<path d="M32,384a95.4,95.4,0,0,0,32,71.09V496a16,16,0,0,0,16,16h32a16,16,0,0,0,16-16V480H384v16a16,16,0,0,0,16,16h32a16,16,0,0,0,16-16V455.09A95.4,95.4,0,0,0,480,384V336H32ZM496,256H80V69.25a21.26,21.26,0,0,1,36.28-15l19.27,19.26c-13.13,29.88-7.61,59.11,8.62,79.73l-.17.17A16,16,0,0,0,144,176l11.31,11.31a16,16,0,0,0,22.63,0L283.31,81.94a16,16,0,0,0,0-22.63L272,48a16,16,0,0,0-22.62,0l-.17.17c-20.62-16.23-49.83-21.75-79.73-8.62L150.22,20.28A69.25,69.25,0,0,0,32,69.25V256H16A16,16,0,0,0,0,272v16a16,16,0,0,0,16,16H496a16,16,0,0,0,16-16V272A16,16,0,0,0,496,256Z"></path>
		</svg>
	</symbol>

	<symbol id="dom-icon">
		<svg viewBox="0 0 500 500">
			<path d="M250,8.36C116.55,8.36,8.36,116.55,8.36,250S116.55,491.64,250,491.64S491.64,383.45,491.64,250 S383.45,8.36,250,8.36z M354.85,355.89L354.85,355.89c-5.5,5.5-14.43,5.5-19.93,0l-72-72c-4.01,1.53-8.36,2.38-12.92,2.38 c-20.03,0-36.27-16.24-36.27-36.27c0-15.13,9.26-28.08,22.42-33.52V95.52c0-7.78,6.31-14.09,14.09-14.09 c7.78,0,14.09,6.31,14.09,14.09v121.16c12.89,5.56,21.92,18.38,21.92,33.31c0,5.12-1.07,9.99-2.98,14.4l71.56,71.56 C360.35,341.46,360.35,350.39,354.85,355.89z"/>
		</svg>
	</symbol>

	<symbol id="email-icon">
		<svg viewBox="0 0 512 512">
			<path d="M502.3 190.8c3.9-3.1 9.7-.2 9.7 4.7V400c0 26.5-21.5 48-48 48H48c-26.5 0-48-21.5-48-48V195.6c0-5 5.7-7.8 9.7-4.7 22.4 17.4 52.1 39.5 154.1 113.6 21.1 15.4 56.7 47.8 92.2 47.6 35.7.3 72-32.8 92.3-47.6 102-74.1 131.6-96.3 154-113.7zM256 320c23.2.4 56.6-29.2 73.4-41.4 132.7-96.3 142.8-104.7 173.4-128.7 5.8-4.5 9.2-11.5 9.2-18.9v-19c0-26.5-21.5-48-48-48H48C21.5 64 0 85.5 0 112v19c0 7.4 3.4 14.3 9.2 18.9 30.6 23.9 40.7 32.4 173.4 128.7 16.8 12.2 50.2 41.8 73.4 41.4z"></path>
		</svg>

	</symbol>

	<symbol id="globe-icon">
		<svg viewBox="0 0 496 512">
			<path d="M248 8C111.03 8 0 119.03 0 256s111.03 248 248 248 248-111.03 248-248S384.97 8 248 8zm82.29 357.6c-3.9 3.88-7.99 7.95-11.31 11.28-2.99 3-5.1 6.7-6.17 10.71-1.51 5.66-2.73 11.38-4.77 16.87l-17.39 46.85c-13.76 3-28 4.69-42.65 4.69v-27.38c1.69-12.62-7.64-36.26-22.63-51.25-6-6-9.37-14.14-9.37-22.63v-32.01c0-11.64-6.27-22.34-16.46-27.97-14.37-7.95-34.81-19.06-48.81-26.11-11.48-5.78-22.1-13.14-31.65-21.75l-.8-.72a114.792 114.792 0 0 1-18.06-20.74c-9.38-13.77-24.66-36.42-34.59-51.14 20.47-45.5 57.36-82.04 103.2-101.89l24.01 12.01C203.48 89.74 216 82.01 216 70.11v-11.3c7.99-1.29 16.12-2.11 24.39-2.42l28.3 28.3c6.25 6.25 6.25 16.38 0 22.63L264 112l-10.34 10.34c-3.12 3.12-3.12 8.19 0 11.31l4.69 4.69c3.12 3.12 3.12 8.19 0 11.31l-8 8a8.008 8.008 0 0 1-5.66 2.34h-8.99c-2.08 0-4.08.81-5.58 2.27l-9.92 9.65a8.008 8.008 0 0 0-1.58 9.31l15.59 31.19c2.66 5.32-1.21 11.58-7.15 11.58h-5.64c-1.93 0-3.79-.7-5.24-1.96l-9.28-8.06a16.017 16.017 0 0 0-15.55-3.1l-31.17 10.39a11.95 11.95 0 0 0-8.17 11.34c0 4.53 2.56 8.66 6.61 10.69l11.08 5.54c9.41 4.71 19.79 7.16 30.31 7.16s22.59 27.29 32 32h66.75c8.49 0 16.62 3.37 22.63 9.37l13.69 13.69a30.503 30.503 0 0 1 8.93 21.57 46.536 46.536 0 0 1-13.72 32.98zM417 274.25c-5.79-1.45-10.84-5-14.15-9.97l-17.98-26.97a23.97 23.97 0 0 1 0-26.62l19.59-29.38c2.32-3.47 5.5-6.29 9.24-8.15l12.98-6.49C440.2 193.59 448 223.87 448 256c0 8.67-.74 17.16-1.82 25.54L417 274.25z" />
		</svg>
	</symbol>

	<symbol id="object-ungroup-icon">
		<svg viewBox="0 0 512 512">
			<path d="M400,168H328V112h32V16H264V48H112V16H16v96H48V264H16v96h96V328h72v72H152v96h96V464H400v32h96V400H464V232h32V136H400ZM296,48h32V80H296Zm32,248v32H296V296ZM48,48H80V80H48ZM80,328H48V296H80Zm32-32V264H80V112h32V80H264v32h32V264H264v32ZM216,464H184V432h32Zm248,0H432V432h32ZM432,168h32v32H432Zm0,232H400v32H248V400H216V328h48v32h96V264H328V200h72v32h32Z" />
		</svg>
	</symbol>

	<symbol id="phone-icon">
		<svg viewBox="0 0 512 512">
			<path d="M493.4 24.6l-104-24c-11.3-2.6-22.9 3.3-27.5 13.9l-48 112c-4.2 9.8-1.4 21.3 6.9 28l60.6 49.6c-36 76.7-98.9 140.5-177.2 177.2l-49.6-60.6c-6.8-8.3-18.2-11.1-28-6.9l-112 48C3.9 366.5-2 378.1.6 389.4l24 104C27.1 504.2 36.7 512 48 512c256.1 0 464-207.5 464-464 0-11.2-7.7-20.9-18.6-23.4z"></path>
		</svg>
	</symbol>

	<symbol id="size-icon">
		<svg viewBox="0 0 512 512">
			<path d="M501.65 452.08l-51.16-51.16-38.57 38.57c-3.12 3.12-8.19 3.12-11.31 0l-11.31-11.31c-3.12-3.12-3.12-8.19 0-11.31l38.57-38.57-56.57-56.57-38.57 38.57c-3.12 3.12-8.19 3.12-11.31 0l-11.31-11.31c-3.12-3.12-3.12-8.19 0-11.31l38.57-38.57-56.57-56.57-38.57 38.57c-3.12 3.12-8.19 3.12-11.31 0l-11.31-11.31c-3.12-3.12-3.12-8.19 0-11.31l38.57-38.57-56.57-56.57-38.57 38.57c-3.12 3.12-8.19 3.12-11.31 0l-11.31-11.31c-3.12-3.12-3.12-8.19 0-11.31l38.57-38.57-56.6-56.59-38.57 38.57c-3.12 3.12-8.19 3.12-11.31 0L72.51 111.4c-3.12-3.12-3.12-8.19 0-11.31l38.57-38.57-51.17-51.17C52.76 3.2 43.97 0 35.35 0 17.31 0 0 14.01 0 35.17V476.9C0 496.29 15.71 512 35.1 512h441.73c31.27 0 46.93-37.8 24.82-59.92zM128 384V259.46L252.54 384H128z"></path>
		</svg>
	</symbol>

	<symbol id="smartphone-icon">
		<svg viewBox="0 0 24 24">
			<path d="M19 2c0-1.104-.896-2-2-2h-10c-1.104 0-2 .896-2 2v20c0 1.104.896 2 2 2h10c1.104 0 2-.896 2-2v-20zm-8.5 0h3c.276 0 .5.224.5.5s-.224.5-.5.5h-3c-.276 0-.5-.224-.5-.5s.224-.5.5-.5zm1.5 20c-.553 0-1-.448-1-1s.447-1 1-1c.552 0 .999.448.999 1s-.447 1-.999 1zm5-3h-10v-14.024h10v14.024z"/>
		</svg>
	</symbol>

	<symbol id="sold-icon">
		<svg viewBox="0.5 -11.5 500 500">
			<polygon fill="#3B4652" points="285.745,192.496 285.745,227.518 252.69,251.204 252.69,192.496 "/>
			<path fill="#3B4652" d="M202.417,192.496c0,19.836,0,39.288,0,58.934c11.233,0,22.15,0,33.048,0c0-19.889,0-39.348,0-58.934 C224.368,192.496,213.641,192.496,202.417,192.496z"/>
			<path fill="#3B4652" d="M81.922,39.599h41.148c5.985,0,10.841,4.853,10.841,10.839v25.153c4.891-3.357,7.597-5.039,10.072-6.944 c26.828-20.619,53.626-41.269,80.419-61.921c12.214-9.413,26.092-8.977,39.771,1.507c38.549,29.532,77.045,59.116,115.548,88.694 c31.211,23.977,62.364,48.011,93.625,71.938c8.399,6.43,13.699,13.933,11.672,23.991c-3.918,19.439-28.821,26.51-46.864,12.963 c-26.807-20.127-53.162-40.709-79.702-61.104c-34.997-26.896-70.188-53.605-104.82-80.854c-7.559-5.945-12.09-6.282-19.98-0.17 c-61.029,47.274-122.483,94.141-183.94,141c-4.288,3.27-9.282,6.436-14.589,7.978c-12.027,3.494-25.079-1.277-31.354-10.411 c-6.566-9.563-4.498-22.375,5.789-30.476c17.886-14.084,36.444-27.532,54.046-41.872c3.921-3.193,6.998-8.937,7.138-13.581 c0.606-20.691,0.407-41.395,0.345-65.871C71.066,44.459,75.925,39.599,81.922,39.599z"/>
			<path fill="#3B4652" d="M451.009,443.937c0.079-0.787,0.157-1.574,0.157-2.361v-69.568c-11.647,1.182-23.297,2.281-34.941,3.465 v66.104c0,0.787,0.078,1.574,0.157,2.361h-216.34c0.787-0.63,1.181-1.653,1.181-3.463c-0.158-19.36-0.079-38.722-0.079-58.158 c0-17.628,0-35.335-0.079-53.042c0-3.463-0.155-6.925-0.708-10.311c-4.249-26.128-31.164-43.757-56.817-37.382 c-21.956,5.51-36.83,25.026-36.83,48.792c-0.079,36.598,0,73.189,0,109.862c0,2.046,0,3.148,0.472,3.699H69.01 c0.158-0.787,0.236-1.574,0.236-2.361V313.297c0,0,0,0,0.079,0V273.16c0-5.509,2.597-10.781,7.158-14.087l4.328-3.146 l151.651-109.862c6.139-4.407,14.402-4.407,20.54,0l72.874,52.806l0.551-0.393c0-0.079-0.079-0.158-0.079-0.236 c0.079-13.457,9.68-24.317,22.586-26.206L243.326,94.99l-0.633,0.473l-0.629-0.473L50.753,234.442l-16.527,12.041v195.091 c0,0.787,0.079,1.574,0.236,2.361h-17.55v30.22h451.564v-30.22L451.009,443.937L451.009,443.937z"/>
			<path fill="#EE2E33" d="M353.32,179.534c-10.789-0.049-19.017,8.079-19.063,18.771c-0.052,10.641,8.178,18.918,18.918,19.017 c10.592,0.1,19.017-8.227,19.063-18.82C372.238,187.812,364.061,179.583,353.32,179.534z M353.222,208.602 c-5.813-0.049-10.247-4.483-10.247-10.247c0.049-5.766,4.481-10.149,10.297-10.149c5.813,0.05,10.247,4.483,10.247,10.247 C363.47,204.167,358.937,208.699,353.222,208.602z"/>
			<path fill="#EE2E33" d="M442.629,229.762l-31.49,2.922c-0.021,0-0.021,0-0.021,0c-3.55-1.186-7.045-3.291-10.503-4.789	c-9.412-4.105-18.768-8.396-27.791-12.444c1.926-5.011,3.606-9.449,5.566-14.552C399.581,210.42,421.105,220.09,442.629,229.762z"/>
			<path fill="#EE2E33" d="M273.106,246.273c18.604-13.295,37.222-26.59,56.045-40.051c2.922,4.382,5.658,8.506,8.672,13.034 c-11.39,8.101-22.596,16.588-34.374,24.188L273.106,246.273z"/>
			<path fill="#EE2E33" d="M500.548,316.783c1.759,17.584-11.071,33.267-28.656,35.025l-211.607,21.17 c-17.585,1.759-33.27-11.071-35.026-28.656l-5.176-51.742c-1.761-17.584,11.069-33.267,28.653-35.023l211.61-21.169 c17.586-1.762,33.268,11.068,35.025,28.653L500.548,316.783z"/>
			<g>
				<path fill="#FFFFFF" d="M239.577,326.959l12.58-2.507c1.192,4.188,3.058,7.165,5.596,8.931c2.538,1.765,5.792,2.449,9.763,2.051 c4.205-0.421,7.285-1.627,9.238-3.621c1.955-1.992,2.813-4.18,2.574-6.563c-0.153-1.528-0.732-2.785-1.737-3.769 c-1.004-0.984-2.664-1.761-4.978-2.331c-1.583-0.376-5.162-0.967-10.738-1.776c-7.173-1.033-12.298-2.673-15.374-4.92 c-4.327-3.16-6.746-7.3-7.259-12.418c-0.33-3.293,0.294-6.467,1.875-9.521c1.58-3.054,4.051-5.508,7.417-7.359 c3.363-1.852,7.531-3.025,12.501-3.523c8.117-0.813,14.405,0.354,18.864,3.501s7.089,7.682,7.89,13.601l-13,1.881 c-0.893-3.266-2.33-5.535-4.313-6.808c-1.984-1.271-4.814-1.724-8.49-1.355c-3.794,0.381-6.686,1.457-8.676,3.23 c-1.283,1.139-1.84,2.546-1.672,4.223c0.153,1.529,0.931,2.773,2.334,3.732c1.785,1.217,5.93,2.257,12.432,3.12 c6.503,0.864,11.356,1.945,14.561,3.243s5.806,3.25,7.805,5.857c1.999,2.606,3.203,5.954,3.612,10.041 c0.371,3.705-0.312,7.279-2.045,10.721c-1.735,3.441-4.406,6.138-8.013,8.088c-3.606,1.949-8.219,3.206-13.836,3.769 c-8.176,0.819-14.644-0.442-19.403-3.781C244.323,339.354,241.154,334.108,239.577,326.959z"/>
				<path fill="#FFFFFF" d="M299.406,309.962c-0.66-6.587-0.229-12.215,1.294-16.883c1.141-3.44,2.851-6.598,5.134-9.47 c2.281-2.871,4.873-5.092,7.776-6.66c3.857-2.108,8.418-3.427,13.683-3.954c9.528-0.954,17.449,1.236,23.762,6.575 c6.312,5.339,9.995,13.273,11.05,23.801c1.046,10.439-0.975,18.893-6.06,25.357c-5.086,6.465-12.378,10.173-21.877,11.124 c-9.616,0.964-17.558-1.204-23.82-6.503C304.084,328.051,300.437,320.256,299.406,309.962z M312.816,308.174 c0.733,7.322,2.98,12.705,6.741,16.145c3.76,3.44,8.243,4.899,13.449,4.378c5.205-0.521,9.288-2.823,12.251-6.908 c2.962-4.084,4.067-9.875,3.316-17.375c-0.742-7.411-2.921-12.775-6.535-16.098c-3.615-3.321-8.113-4.713-13.495-4.174 s-9.536,2.82-12.459,6.84C313.16,295.002,312.071,300.733,312.816,308.174z"/>
				<path fill="#FFFFFF" d="M375.877,334.562l-6.424-64.142l13.058-1.308l5.333,53.245l32.467-3.252l1.091,10.896L375.877,334.562z"/>
				<path fill="#FFFFFF" d="M424.188,264.404l23.865-2.391c5.383-0.539,9.525-0.537,12.432,0.003c3.905,0.737,7.354,2.397,10.345,4.978 c2.992,2.582,5.4,5.87,7.226,9.858c1.825,3.991,3.042,9.016,3.648,15.074c0.533,5.323,0.331,9.976-0.606,13.962 c-1.146,4.867-3.074,8.907-5.781,12.119c-2.045,2.433-4.93,4.459-8.659,6.081c-2.791,1.199-6.598,2.041-11.421,2.524l-24.57,2.461 L424.188,264.404z M438.342,274.036l4.29,42.834l9.749-0.977c3.646-0.365,6.258-0.835,7.835-1.408 c2.063-0.742,3.731-1.814,5.002-3.22c1.27-1.403,2.201-3.599,2.794-6.584c0.592-2.985,0.638-6.978,0.137-11.977 s-1.326-8.794-2.477-11.381c-1.15-2.588-2.596-4.553-4.333-5.894c-1.738-1.34-3.855-2.153-6.349-2.438 c-1.865-0.229-5.459-0.078-10.781,0.455L438.342,274.036z"/>
			</g>
		</svg>
	</symbol>

	<symbol id="tag-icon">
		<svg viewBox="0 0 512 512">
			<path d="M0 252.118V48C0 21.49 21.49 0 48 0h204.118a48 48 0 0 1 33.941 14.059l211.882 211.882c18.745 18.745 18.745 49.137 0 67.882L293.823 497.941c-18.745 18.745-49.137 18.745-67.882 0L14.059 286.059A48 48 0 0 1 0 252.118zM112 64c-26.51 0-48 21.49-48 48s21.49 48 48 48 48-21.49 48-48-21.49-48-48-48z"></path>
		</svg>
	</symbol>
</svg>