<?xml version="1.0"?>

<svg xmlns="http://www.w3.org/2000/svg">
	<symbol id="rectangle-icon">
		<svg viewBox="0 0 641 695">
			<g filter="url(#filter0_d_911:3)">
				<path d="M2.68467 472.789L439.185 2.78882L618.685 2.78882L2.2328 672.305L2.68467 472.789Z" fill="#C32033" />
			</g>
			<defs>
				<filter id="filter0_d_911:3" x="0.232796" y="0.789062" width="640.452" height="693.516" filterUnits="userSpaceOnUse" color-interpolation-filters="sRGB">
					<feFlood flood-opacity="0" result="BackgroundImageFix" />
					<feColorMatrix in="SourceAlpha" type="matrix" values="0 0 0 0 0 0 0 0 0 0 0 0 0 0 0 0 0 0 127 0" result="hardAlpha" />
					<feOffset dx="10" dy="10" />
					<feGaussianBlur stdDeviation="6" />
					<feColorMatrix type="matrix" values="0 0 0 0 0 0 0 0 0 0 0 0 0 0 0 0 0 0 0.18 0" />
					<feBlend mode="normal" in2="BackgroundImageFix" result="effect1_dropShadow_911:3" />
					<feBlend mode="normal" in="SourceGraphic" in2="effect1_dropShadow_911:3" result="shape" />

				</filter>
			</defs>
		</svg>
	</symbol>

	<symbol id="arrow-down-bg-shape">
		<svg viewBox="0 0 204 503"
			xmlns="http://www.w3.org/2000/svg">
			<path d="M6.78387 5.5L102 477.704L197.216 5.5H6.78387Z" fill="currentColor" stroke="currentColor" />
		</svg>
	</symbol>

	<symbol id="avg-dom-icon">
		<svg viewBox="0 0 500 500">
			<path d="M250,8.36C116.55,8.36,8.36,116.55,8.36,250S116.55,491.64,250,491.64S491.64,383.45,491.64,250 S383.45,8.36,250,8.36z M354.85,355.89L354.85,355.89c-5.5,5.5-14.43,5.5-19.93,0l-72-72c-4.01,1.53-8.36,2.38-12.92,2.38 c-20.03,0-36.27-16.24-36.27-36.27c0-15.13,9.26-28.08,22.42-33.52V95.52c0-7.78,6.31-14.09,14.09-14.09 c7.78,0,14.09,6.31,14.09,14.09v121.16c12.89,5.56,21.92,18.38,21.92,33.31c0,5.12-1.07,9.99-2.98,14.4l71.56,71.56 C360.35,341.46,360.35,350.39,354.85,355.89z" />
		</svg>
	</symbol>

	<symbol id="barchart-icon">
		<svg viewBox="0 0 512 512">
			<path d="M396.8 352h22.4c6.4 0 12.8-6.4 12.8-12.8V108.8c0-6.4-6.4-12.8-12.8-12.8h-22.4c-6.4 0-12.8 6.4-12.8 12.8v230.4c0 6.4 6.4 12.8 12.8 12.8zm-192 0h22.4c6.4 0 12.8-6.4 12.8-12.8V140.8c0-6.4-6.4-12.8-12.8-12.8h-22.4c-6.4 0-12.8 6.4-12.8 12.8v198.4c0 6.4 6.4 12.8 12.8 12.8zm96 0h22.4c6.4 0 12.8-6.4 12.8-12.8V204.8c0-6.4-6.4-12.8-12.8-12.8h-22.4c-6.4 0-12.8 6.4-12.8 12.8v134.4c0 6.4 6.4 12.8 12.8 12.8zM496 400H48V80c0-8.84-7.16-16-16-16H16C7.16 64 0 71.16 0 80v336c0 17.67 14.33 32 32 32h464c8.84 0 16-7.16 16-16v-16c0-8.84-7.16-16-16-16zm-387.2-48h22.4c6.4 0 12.8-6.4 12.8-12.8v-70.4c0-6.4-6.4-12.8-12.8-12.8h-22.4c-6.4 0-12.8 6.4-12.8 12.8v70.4c0 6.4 6.4 12.8 12.8 12.8z"/>
		</svg>
	</symbol>

	<symbol id="dollar-icon">
		<svg viewBox="0 0 288 512">
			<path d="M211.9 242.1L95.6 208.9c-15.8-4.5-28.6-17.2-31.1-33.5C60.6 150 80.3 128 105 128h73.8c15.9 0 31.5 5 44.4 14.1 6.4 4.5 15 3.8 20.5-1.7l22.9-22.9c6.8-6.8 6.1-18.2-1.5-24.1C240.4 74.3 210.4 64 178.8 64H176V16c0-8.8-7.2-16-16-16h-32c-8.8 0-16 7.2-16 16v48h-2.5C60.3 64 14.9 95.8 3.1 143.6c-13.9 56.2 20.2 111.2 73 126.3l116.3 33.2c15.8 4.5 28.6 17.2 31.1 33.5C227.4 362 207.7 384 183 384h-73.8c-15.9 0-31.5-5-44.4-14.1-6.4-4.5-15-3.8-20.5 1.7l-22.9 22.9c-6.8 6.8-6.1 18.2 1.5 24.1 24.6 19.1 54.6 29.4 86.3 29.4h2.8v48c0 8.8 7.2 16 16 16h32c8.8 0 16-7.2 16-16v-48h2.5c49.2 0 94.6-31.8 106.4-79.6 13.9-56.2-20.2-111.2-73-126.3z"/>
		</svg>
	</symbol>

	<symbol id="checkmark-icon">
		<svg viewBox="0 0 500 500">
			<path d="M30.04,106.76h343.61c-34.34,37.09-67.4,75.31-98.4,115.44c-25.15,32.52-49.27,65.85-74.47,99.65 c-2.5-3.75-4.68-7.07-6.88-10.36c-23.14-34.26-48.31-66.8-81.35-91.92c-6.74-5.11-14.3-9.57-22.08-12.78 c-9.57-3.92-17.18-0.27-22.57,8.7c-6.69,11.2-4.68,21.91,8.37,34.61c32.54,31.65,55.82,69.74,75.53,110.36 c6.69,13.76,11.99,28.25,19.2,41.65c11.2,20.72,34.48,24.33,51.63,8.4c4.51-4.19,7.97-9.71,11.26-15.01 c31.13-49.86,61.15-100.46,93.37-149.56c23.65-36.11,50.24-69.82,77.92-102.61v317.45H30.04V106.76z M470.33,12.22 c-8.18,5.44-16.18,11.5-23.11,18.49c-15.85,15.77-31.51,31.7-46.98,47.85H21.77c-10.74,0-19.47,8.89-19.47,19.82v370.8 c0,10.9,8.73,19.82,19.47,19.82h391.68c10.74,0,19.47-8.92,19.47-19.82V111.11c14.6-16.67,29.28-33.25,43.91-49.89 c6.93-7.86,12.75-16.91,17.89-26.13c4.08-7.34,4.27-15.55-2.61-22.08c-3.4-3.24-7.04-4.59-10.71-4.59 C477.64,8.41,473.86,9.86,470.33,12.22" />
		</svg>
	</symbol>

	<symbol id="check-mark-icon">
		<svg viewBox="0 0 55 47">
			<path d="M44.2268 1.08685H0V46.739H47.0619V16.8477L41.3918 21.739V41.3042H5.10309V6.52164H39.1237L44.2268 1.08685Z" />
			<path d="M18.1443 11.9565L12.4742 16.8478L27.7835 30.9783L55 5.43479L48.7629 0L27.7835 20.6522L18.1443 11.9565Z" />
		</svg>
	</symbol>

	<symbol id="check-icon" class="stat-icon">
		<svg viewBox="0 0 145 167">
			<g filter="url(#filter0_d_530_8)">
				<rect x="4" y="35" width="126" height="127" stroke="url(#paint0_linear_530_8)" stroke-width="8" shape-rendering="crispEdges" />
			</g>
			<g filter="url(#filter1_d_530_8)">
				<path d="M143.5 59.5C138.7 37.1 139.833 10.5 141 0C107 20 72.1667 87.3333 59 118.5L41 75L3 103C24.6 117 52.3333 148.167 63.5 162C86.7 110.8 126.5 72.3333 143.5 59.5Z" fill="url(#paint1_linear_530_8)" />
			</g>
			<defs>
				<filter id="filter0_d_530_8" x="0" y="31" width="135" height="136" filterUnits="userSpaceOnUse" color-interpolation-filters="sRGB">
					<feFlood flood-opacity="0" result="BackgroundImageFix" />
					<feColorMatrix in="SourceAlpha" type="matrix" values="0 0 0 0 0 0 0 0 0 0 0 0 0 0 0 0 0 0 127 0" result="hardAlpha" />
					<feOffset dx="1" dy="1" />
					<feComposite in2="hardAlpha" operator="out" />
					<feColorMatrix type="matrix" values="0 0 0 0 0 0 0 0 0 0 0 0 0 0 0 0 0 0 0.3 0" />
					<feBlend mode="normal" in2="BackgroundImageFix" result="effect1_dropShadow_530_8" />
					<feBlend mode="normal" in="SourceGraphic" in2="effect1_dropShadow_530_8" result="shape" />

				</filter>
				<filter id="filter1_d_530_8" x="3" y="0" width="141.5" height="163" filterUnits="userSpaceOnUse" color-interpolation-filters="sRGB">
					<feFlood flood-opacity="0" result="BackgroundImageFix" />
					<feColorMatrix in="SourceAlpha" type="matrix" values="0 0 0 0 0 0 0 0 0 0 0 0 0 0 0 0 0 0 127 0" result="hardAlpha" />
					<feOffset dx="1" dy="1" />
					<feComposite in2="hardAlpha" operator="out" />
					<feColorMatrix type="matrix" values="0 0 0 0 0 0 0 0 0 0 0 0 0 0 0 0 0 0 0.5 0" />
					<feBlend mode="normal" in2="BackgroundImageFix" result="effect1_dropShadow_530_8" />
					<feBlend mode="normal" in="SourceGraphic" in2="effect1_dropShadow_530_8" result="shape" />

				</filter>
				<linearGradient id="paint0_linear_530_8" x1="134" y1="31.5" x2="9.8582e-07" y2="163" gradientUnits="userSpaceOnUse">
					<stop offset="0.0674235" stop-color="#404B4E" />
					<stop offset="0.217472" stop-color="#495A60" stop-opacity="0" />
					<stop offset="0.362576" stop-color="#50666E" />
					<stop offset="0.496742" stop-color="#8DB9D6" stop-opacity="0" />
					<stop offset="0.623819" stop-color="#404B4E" />
					<stop offset="0.725398" stop-color="#9CC4D8" stop-opacity="0" />
					<stop offset="0.848199" stop-color="#404B4E" />

				</linearGradient>
				<linearGradient id="paint1_linear_530_8" x1="3" y1="90.5" x2="144" y2="90.5" gradientUnits="userSpaceOnUse">
					<stop stop-color="#0A9246" />
					<stop offset="0.417479" stop-color="#7EC042" />
					<stop offset="1" stop-color="#1AAD4A" />

				</linearGradient>
			</defs>
		</svg>
	</symbol>

	<symbol id="arrow-icon">
		<svg viewBox="0 0 384 512" class="not really">
			<path d="M172.268 501.67C26.97 291.031 0 269.413 0 192 0 85.961 85.961 0 192 0s192 85.961 192 192c0 77.413-26.97 99.031-172.268 309.67-9.535 13.774-29.93 13.773-39.464 0zM192 272c44.183 0 80-35.817 80-80s-35.817-80-80-80-80 35.817-80 80 35.817 80 80 80z"/>
		</svg>
	</symbol>

	<symbol id="arrow-down-icon">
		<svg viewBox="0 0 384 512" class="not really">
			<path d="M172.268 501.67C26.97 291.031 0 269.413 0 192 0 85.961 85.961 0 192 0s192 85.961 192 192c0 77.413-26.97 99.031-172.268 309.67-9.535 13.774-29.93 13.773-39.464 0zM192 272c44.183 0 80-35.817 80-80s-35.817-80-80-80-80 35.817-80 80 35.817 80 80 80z"/>
		</svg>
	</symbol>

	<symbol id="arrow-up-icon">
		<svg viewBox="0 0 384 512" class="not really">
			<path d="M172.268 501.67C26.97 291.031 0 269.413 0 192 0 85.961 85.961 0 192 0s192 85.961 192 192c0 77.413-26.97 99.031-172.268 309.67-9.535 13.774-29.93 13.773-39.464 0zM192 272c44.183 0 80-35.817 80-80s-35.817-80-80-80-80 35.817-80 80 35.817 80 80 80z"/>
		</svg>
	</symbol>

	<symbol id="hand-icon">
		<svg viewBox="0 0 384 512" class="not really">
			<path d="M172.268 501.67C26.97 291.031 0 269.413 0 192 0 85.961 85.961 0 192 0s192 85.961 192 192c0 77.413-26.97 99.031-172.268 309.67-9.535 13.774-29.93 13.773-39.464 0zM192 272c44.183 0 80-35.817 80-80s-35.817-80-80-80-80 35.817-80 80 35.817 80 80 80z"/>
		</svg>
	</symbol>

	<symbol id="home-icon">
		<svg viewBox="0 0 384 512" class="not really">
			<path d="M172.268 501.67C26.97 291.031 0 269.413 0 192 0 85.961 85.961 0 192 0s192 85.961 192 192c0 77.413-26.97 99.031-172.268 309.67-9.535 13.774-29.93 13.773-39.464 0zM192 272c44.183 0 80-35.817 80-80s-35.817-80-80-80-80 35.817-80 80 35.817 80 80 80z"/>
		</svg>
	</symbol>

	<symbol id="house-icon">
		<svg viewBox="0 0 384 512" class="not really">
			<path d="M172.268 501.67C26.97 291.031 0 269.413 0 192 0 85.961 85.961 0 192 0s192 85.961 192 192c0 77.413-26.97 99.031-172.268 309.67-9.535 13.774-29.93 13.773-39.464 0zM192 272c44.183 0 80-35.817 80-80s-35.817-80-80-80-80 35.817-80 80 35.817 80 80 80z"/>
		</svg>
	</symbol>

	<symbol id="map-pin-icon">
		<svg viewBox="0 0 384 512">
			<path d="M172.268 501.67C26.97 291.031 0 269.413 0 192 0 85.961 85.961 0 192 0s192 85.961 192 192c0 77.413-26.97 99.031-172.268 309.67-9.535 13.774-29.93 13.773-39.464 0zM192 272c44.183 0 80-35.817 80-80s-35.817-80-80-80-80 35.817-80 80 35.817 80 80 80z"/>
		</svg>
	</symbol>

	<symbol id="calendar-icon">
		<svg viewBox="0 0 448 512">
			<path d="M400 64h-48V8c0-4.4-3.6-8-8-8h-16c-4.4 0-8 3.6-8 8v56H128V8c0-4.4-3.6-8-8-8h-16c-4.4 0-8 3.6-8 8v56H48C21.5 64 0 85.5 0 112v352c0 26.5 21.5 48 48 48h352c26.5 0 48-21.5 48-48V112c0-26.5-21.5-48-48-48zm16 400c0 8.8-7.2 16-16 16H48c-8.8 0-16-7.2-16-16V192h384v272zm0-304H32v-48c0-8.8 7.2-16 16-16h352c8.8 0 16 7.2 16 16v48zM112 384h96c8.8 0 16-7.2 16-16v-96c0-8.8-7.2-16-16-16h-96c-8.8 0-16 7.2-16 16v96c0 8.8 7.2 16 16 16zm16-96h64v64h-64v-64z"/>
		</svg>
	</symbol>

	<symbol id="email-new">
		<svg viewBox="0 0 512 512">
			<path d="M502.3 190.8c3.9-3.1 9.7-.2 9.7 4.7V400c0 26.5-21.5 48-48 48H48c-26.5 0-48-21.5-48-48V195.6c0-5 5.7-7.8 9.7-4.7 22.4 17.4 52.1 39.5 154.1 113.6 21.1 15.4 56.7 47.8 92.2 47.6 35.7.3 72-32.8 92.3-47.6 102-74.1 131.6-96.3 154-113.7zM256 320c23.2.4 56.6-29.2 73.4-41.4 132.7-96.3 142.8-104.7 173.4-128.7 5.8-4.5 9.2-11.5 9.2-18.9v-19c0-26.5-21.5-48-48-48H48C21.5 64 0 85.5 0 112v19c0 7.4 3.4 14.3 9.2 18.9 30.6 23.9 40.7 32.4 173.4 128.7 16.8 12.2 50.2 41.8 73.4 41.4z"/>
		</svg>
	</symbol>

	<symbol id="bed-icon">
		<svg viewBox="0 0 20 20">
			<path d="M5.289,9.615c1.29,0,2.34-1.05,2.34-2.339c0-1.29-1.05-2.34-2.34-2.34C4,4.936,2.95,5.985,2.95,7.275 C2.95,8.565,4,9.615,5.289,9.615z M15.582,5.872H9.033c-0.26,0-0.469,0.209-0.469,0.468v4.211H2.014V4.468 C2.014,4.209,1.805,4,1.547,4H0.61C0.352,4,0.143,4.209,0.143,4.468v10.294c0,0.259,0.209,0.468,0.468,0.468h0.937 c0.258,0,0.467-0.209,0.467-0.468v-1.404h14.973v1.404c0,0.259,0.209,0.468,0.469,0.468h0.936c0.258,0,0.467-0.209,0.467-0.468	V9.147C18.857,7.338,17.393,5.872,15.582,5.872z" />

		</svg>
	</symbol>

	<symbol id="bath-icon">
		<svg viewBox="0 0 512 512">
			<path d="M32,384a95.4,95.4,0,0,0,32,71.09V496a16,16,0,0,0,16,16h32a16,16,0,0,0,16-16V480H384v16a16,16,0,0,0,16,16h32a16,16,0,0,0,16-16V455.09A95.4,95.4,0,0,0,480,384V336H32ZM496,256H80V69.25a21.26,21.26,0,0,1,36.28-15l19.27,19.26c-13.13,29.88-7.61,59.11,8.62,79.73l-.17.17A16,16,0,0,0,144,176l11.31,11.31a16,16,0,0,0,22.63,0L283.31,81.94a16,16,0,0,0,0-22.63L272,48a16,16,0,0,0-22.62,0l-.17.17c-20.62-16.23-49.83-21.75-79.73-8.62L150.22,20.28A69.25,69.25,0,0,0,32,69.25V256H16A16,16,0,0,0,0,272v16a16,16,0,0,0,16,16H496a16,16,0,0,0,16-16V272A16,16,0,0,0,496,256Z"/>
		</svg>
	</symbol>

	<symbol id="dom-icon">
		<svg viewBox="0 0 500 500">
			<path d="M250,8.36C116.55,8.36,8.36,116.55,8.36,250S116.55,491.64,250,491.64S491.64,383.45,491.64,250 S383.45,8.36,250,8.36z M354.85,355.89L354.85,355.89c-5.5,5.5-14.43,5.5-19.93,0l-72-72c-4.01,1.53-8.36,2.38-12.92,2.38 c-20.03,0-36.27-16.24-36.27-36.27c0-15.13,9.26-28.08,22.42-33.52V95.52c0-7.78,6.31-14.09,14.09-14.09 c7.78,0,14.09,6.31,14.09,14.09v121.16c12.89,5.56,21.92,18.38,21.92,33.31c0,5.12-1.07,9.99-2.98,14.4l71.56,71.56 C360.35,341.46,360.35,350.39,354.85,355.89z" />
		</svg>
	</symbol>

	<symbol id="email-icon">
		<svg viewBox="0 0 512 512">
			<path d="M502.3 190.8c3.9-3.1 9.7-.2 9.7 4.7V400c0 26.5-21.5 48-48 48H48c-26.5 0-48-21.5-48-48V195.6c0-5 5.7-7.8 9.7-4.7 22.4 17.4 52.1 39.5 154.1 113.6 21.1 15.4 56.7 47.8 92.2 47.6 35.7.3 72-32.8 92.3-47.6 102-74.1 131.6-96.3 154-113.7zM256 320c23.2.4 56.6-29.2 73.4-41.4 132.7-96.3 142.8-104.7 173.4-128.7 5.8-4.5 9.2-11.5 9.2-18.9v-19c0-26.5-21.5-48-48-48H48C21.5 64 0 85.5 0 112v19c0 7.4 3.4 14.3 9.2 18.9 30.6 23.9 40.7 32.4 173.4 128.7 16.8 12.2 50.2 41.8 73.4 41.4z"/>
		</svg>
	</symbol>

	<symbol id="globe-icon">
		<svg viewBox="0 0 496 512">
			<path d="M248 8C111.03 8 0 119.03 0 256s111.03 248 248 248 248-111.03 248-248S384.97 8 248 8zm82.29 357.6c-3.9 3.88-7.99 7.95-11.31 11.28-2.99 3-5.1 6.7-6.17 10.71-1.51 5.66-2.73 11.38-4.77 16.87l-17.39 46.85c-13.76 3-28 4.69-42.65 4.69v-27.38c1.69-12.62-7.64-36.26-22.63-51.25-6-6-9.37-14.14-9.37-22.63v-32.01c0-11.64-6.27-22.34-16.46-27.97-14.37-7.95-34.81-19.06-48.81-26.11-11.48-5.78-22.1-13.14-31.65-21.75l-.8-.72a114.792 114.792 0 0 1-18.06-20.74c-9.38-13.77-24.66-36.42-34.59-51.14 20.47-45.5 57.36-82.04 103.2-101.89l24.01 12.01C203.48 89.74 216 82.01 216 70.11v-11.3c7.99-1.29 16.12-2.11 24.39-2.42l28.3 28.3c6.25 6.25 6.25 16.38 0 22.63L264 112l-10.34 10.34c-3.12 3.12-3.12 8.19 0 11.31l4.69 4.69c3.12 3.12 3.12 8.19 0 11.31l-8 8a8.008 8.008 0 0 1-5.66 2.34h-8.99c-2.08 0-4.08.81-5.58 2.27l-9.92 9.65a8.008 8.008 0 0 0-1.58 9.31l15.59 31.19c2.66 5.32-1.21 11.58-7.15 11.58h-5.64c-1.93 0-3.79-.7-5.24-1.96l-9.28-8.06a16.017 16.017 0 0 0-15.55-3.1l-31.17 10.39a11.95 11.95 0 0 0-8.17 11.34c0 4.53 2.56 8.66 6.61 10.69l11.08 5.54c9.41 4.71 19.79 7.16 30.31 7.16s22.59 27.29 32 32h66.75c8.49 0 16.62 3.37 22.63 9.37l13.69 13.69a30.503 30.503 0 0 1 8.93 21.57 46.536 46.536 0 0 1-13.72 32.98zM417 274.25c-5.79-1.45-10.84-5-14.15-9.97l-17.98-26.97a23.97 23.97 0 0 1 0-26.62l19.59-29.38c2.32-3.47 5.5-6.29 9.24-8.15l12.98-6.49C440.2 193.59 448 223.87 448 256c0 8.67-.74 17.16-1.82 25.54L417 274.25z" />
		</svg>
	</symbol>

	<symbol id="object-ungroup-icon">
		<svg viewBox="0 0 512 512">
			<path d="M400,168H328V112h32V16H264V48H112V16H16v96H48V264H16v96h96V328h72v72H152v96h96V464H400v32h96V400H464V232h32V136H400ZM296,48h32V80H296Zm32,248v32H296V296ZM48,48H80V80H48ZM80,328H48V296H80Zm32-32V264H80V112h32V80H264v32h32V264H264v32ZM216,464H184V432h32Zm248,0H432V432h32ZM432,168h32v32H432Zm0,232H400v32H248V400H216V328h48v32h96V264H328V200h72v32h32Z" />
		</svg>
	</symbol>

	<symbol id="phone-icon">
		<svg viewBox="0 0 512 512">
			<path d="M493.4 24.6l-104-24c-11.3-2.6-22.9 3.3-27.5 13.9l-48 112c-4.2 9.8-1.4 21.3 6.9 28l60.6 49.6c-36 76.7-98.9 140.5-177.2 177.2l-49.6-60.6c-6.8-8.3-18.2-11.1-28-6.9l-112 48C3.9 366.5-2 378.1.6 389.4l24 104C27.1 504.2 36.7 512 48 512c256.1 0 464-207.5 464-464 0-11.2-7.7-20.9-18.6-23.4z"/>
		</svg>
	</symbol>

	<symbol id="size-icon">
		<svg viewBox="0 0 512 512">
			<path d="M501.65 452.08l-51.16-51.16-38.57 38.57c-3.12 3.12-8.19 3.12-11.31 0l-11.31-11.31c-3.12-3.12-3.12-8.19 0-11.31l38.57-38.57-56.57-56.57-38.57 38.57c-3.12 3.12-8.19 3.12-11.31 0l-11.31-11.31c-3.12-3.12-3.12-8.19 0-11.31l38.57-38.57-56.57-56.57-38.57 38.57c-3.12 3.12-8.19 3.12-11.31 0l-11.31-11.31c-3.12-3.12-3.12-8.19 0-11.31l38.57-38.57-56.57-56.57-38.57 38.57c-3.12 3.12-8.19 3.12-11.31 0l-11.31-11.31c-3.12-3.12-3.12-8.19 0-11.31l38.57-38.57-56.6-56.59-38.57 38.57c-3.12 3.12-8.19 3.12-11.31 0L72.51 111.4c-3.12-3.12-3.12-8.19 0-11.31l38.57-38.57-51.17-51.17C52.76 3.2 43.97 0 35.35 0 17.31 0 0 14.01 0 35.17V476.9C0 496.29 15.71 512 35.1 512h441.73c31.27 0 46.93-37.8 24.82-59.92zM128 384V259.46L252.54 384H128z"/>
		</svg>
	</symbol>

	<symbol id="smartphone-icon">
		<svg viewBox="0 0 24 24">
			<path d="M19 2c0-1.104-.896-2-2-2h-10c-1.104 0-2 .896-2 2v20c0 1.104.896 2 2 2h10c1.104 0 2-.896 2-2v-20zm-8.5 0h3c.276 0 .5.224.5.5s-.224.5-.5.5h-3c-.276 0-.5-.224-.5-.5s.224-.5.5-.5zm1.5 20c-.553 0-1-.448-1-1s.447-1 1-1c.552 0 .999.448.999 1s-.447 1-.999 1zm5-3h-10v-14.024h10v14.024z" />
		</svg>
	</symbol>

	<symbol id="sold-icon">
		<svg viewBox="0.5 -11.5 500 500">
			<polygon fill="#3B4652" points="285.745,192.496 285.745,227.518 252.69,251.204 252.69,192.496 " />
			<path fill="#3B4652" d="M202.417,192.496c0,19.836,0,39.288,0,58.934c11.233,0,22.15,0,33.048,0c0-19.889,0-39.348,0-58.934 C224.368,192.496,213.641,192.496,202.417,192.496z" />
			<path fill="#3B4652" d="M81.922,39.599h41.148c5.985,0,10.841,4.853,10.841,10.839v25.153c4.891-3.357,7.597-5.039,10.072-6.944 c26.828-20.619,53.626-41.269,80.419-61.921c12.214-9.413,26.092-8.977,39.771,1.507c38.549,29.532,77.045,59.116,115.548,88.694 c31.211,23.977,62.364,48.011,93.625,71.938c8.399,6.43,13.699,13.933,11.672,23.991c-3.918,19.439-28.821,26.51-46.864,12.963 c-26.807-20.127-53.162-40.709-79.702-61.104c-34.997-26.896-70.188-53.605-104.82-80.854c-7.559-5.945-12.09-6.282-19.98-0.17 c-61.029,47.274-122.483,94.141-183.94,141c-4.288,3.27-9.282,6.436-14.589,7.978c-12.027,3.494-25.079-1.277-31.354-10.411 c-6.566-9.563-4.498-22.375,5.789-30.476c17.886-14.084,36.444-27.532,54.046-41.872c3.921-3.193,6.998-8.937,7.138-13.581 c0.606-20.691,0.407-41.395,0.345-65.871C71.066,44.459,75.925,39.599,81.922,39.599z" />
			<path fill="#3B4652" d="M451.009,443.937c0.079-0.787,0.157-1.574,0.157-2.361v-69.568c-11.647,1.182-23.297,2.281-34.941,3.465 v66.104c0,0.787,0.078,1.574,0.157,2.361h-216.34c0.787-0.63,1.181-1.653,1.181-3.463c-0.158-19.36-0.079-38.722-0.079-58.158 c0-17.628,0-35.335-0.079-53.042c0-3.463-0.155-6.925-0.708-10.311c-4.249-26.128-31.164-43.757-56.817-37.382 c-21.956,5.51-36.83,25.026-36.83,48.792c-0.079,36.598,0,73.189,0,109.862c0,2.046,0,3.148,0.472,3.699H69.01 c0.158-0.787,0.236-1.574,0.236-2.361V313.297c0,0,0,0,0.079,0V273.16c0-5.509,2.597-10.781,7.158-14.087l4.328-3.146 l151.651-109.862c6.139-4.407,14.402-4.407,20.54,0l72.874,52.806l0.551-0.393c0-0.079-0.079-0.158-0.079-0.236 c0.079-13.457,9.68-24.317,22.586-26.206L243.326,94.99l-0.633,0.473l-0.629-0.473L50.753,234.442l-16.527,12.041v195.091 c0,0.787,0.079,1.574,0.236,2.361h-17.55v30.22h451.564v-30.22L451.009,443.937L451.009,443.937z" />
			<path fill="#EE2E33" d="M353.32,179.534c-10.789-0.049-19.017,8.079-19.063,18.771c-0.052,10.641,8.178,18.918,18.918,19.017 c10.592,0.1,19.017-8.227,19.063-18.82C372.238,187.812,364.061,179.583,353.32,179.534z M353.222,208.602 c-5.813-0.049-10.247-4.483-10.247-10.247c0.049-5.766,4.481-10.149,10.297-10.149c5.813,0.05,10.247,4.483,10.247,10.247 C363.47,204.167,358.937,208.699,353.222,208.602z" />
			<path fill="#EE2E33" d="M442.629,229.762l-31.49,2.922c-0.021,0-0.021,0-0.021,0c-3.55-1.186-7.045-3.291-10.503-4.789	c-9.412-4.105-18.768-8.396-27.791-12.444c1.926-5.011,3.606-9.449,5.566-14.552C399.581,210.42,421.105,220.09,442.629,229.762z" />
			<path fill="#EE2E33" d="M273.106,246.273c18.604-13.295,37.222-26.59,56.045-40.051c2.922,4.382,5.658,8.506,8.672,13.034 c-11.39,8.101-22.596,16.588-34.374,24.188L273.106,246.273z" />
			<path fill="#EE2E33" d="M500.548,316.783c1.759,17.584-11.071,33.267-28.656,35.025l-211.607,21.17 c-17.585,1.759-33.27-11.071-35.026-28.656l-5.176-51.742c-1.761-17.584,11.069-33.267,28.653-35.023l211.61-21.169 c17.586-1.762,33.268,11.068,35.025,28.653L500.548,316.783z" />
			<g>
				<path fill="#FFFFFF" d="M239.577,326.959l12.58-2.507c1.192,4.188,3.058,7.165,5.596,8.931c2.538,1.765,5.792,2.449,9.763,2.051 c4.205-0.421,7.285-1.627,9.238-3.621c1.955-1.992,2.813-4.18,2.574-6.563c-0.153-1.528-0.732-2.785-1.737-3.769 c-1.004-0.984-2.664-1.761-4.978-2.331c-1.583-0.376-5.162-0.967-10.738-1.776c-7.173-1.033-12.298-2.673-15.374-4.92 c-4.327-3.16-6.746-7.3-7.259-12.418c-0.33-3.293,0.294-6.467,1.875-9.521c1.58-3.054,4.051-5.508,7.417-7.359 c3.363-1.852,7.531-3.025,12.501-3.523c8.117-0.813,14.405,0.354,18.864,3.501s7.089,7.682,7.89,13.601l-13,1.881 c-0.893-3.266-2.33-5.535-4.313-6.808c-1.984-1.271-4.814-1.724-8.49-1.355c-3.794,0.381-6.686,1.457-8.676,3.23 c-1.283,1.139-1.84,2.546-1.672,4.223c0.153,1.529,0.931,2.773,2.334,3.732c1.785,1.217,5.93,2.257,12.432,3.12 c6.503,0.864,11.356,1.945,14.561,3.243s5.806,3.25,7.805,5.857c1.999,2.606,3.203,5.954,3.612,10.041 c0.371,3.705-0.312,7.279-2.045,10.721c-1.735,3.441-4.406,6.138-8.013,8.088c-3.606,1.949-8.219,3.206-13.836,3.769 c-8.176,0.819-14.644-0.442-19.403-3.781C244.323,339.354,241.154,334.108,239.577,326.959z" />
				<path fill="#FFFFFF" d="M299.406,309.962c-0.66-6.587-0.229-12.215,1.294-16.883c1.141-3.44,2.851-6.598,5.134-9.47 c2.281-2.871,4.873-5.092,7.776-6.66c3.857-2.108,8.418-3.427,13.683-3.954c9.528-0.954,17.449,1.236,23.762,6.575 c6.312,5.339,9.995,13.273,11.05,23.801c1.046,10.439-0.975,18.893-6.06,25.357c-5.086,6.465-12.378,10.173-21.877,11.124 c-9.616,0.964-17.558-1.204-23.82-6.503C304.084,328.051,300.437,320.256,299.406,309.962z M312.816,308.174 c0.733,7.322,2.98,12.705,6.741,16.145c3.76,3.44,8.243,4.899,13.449,4.378c5.205-0.521,9.288-2.823,12.251-6.908 c2.962-4.084,4.067-9.875,3.316-17.375c-0.742-7.411-2.921-12.775-6.535-16.098c-3.615-3.321-8.113-4.713-13.495-4.174 s-9.536,2.82-12.459,6.84C313.16,295.002,312.071,300.733,312.816,308.174z" />
				<path fill="#FFFFFF" d="M375.877,334.562l-6.424-64.142l13.058-1.308l5.333,53.245l32.467-3.252l1.091,10.896L375.877,334.562z" />
				<path fill="#FFFFFF" d="M424.188,264.404l23.865-2.391c5.383-0.539,9.525-0.537,12.432,0.003c3.905,0.737,7.354,2.397,10.345,4.978 c2.992,2.582,5.4,5.87,7.226,9.858c1.825,3.991,3.042,9.016,3.648,15.074c0.533,5.323,0.331,9.976-0.606,13.962 c-1.146,4.867-3.074,8.907-5.781,12.119c-2.045,2.433-4.93,4.459-8.659,6.081c-2.791,1.199-6.598,2.041-11.421,2.524l-24.57,2.461 L424.188,264.404z M438.342,274.036l4.29,42.834l9.749-0.977c3.646-0.365,6.258-0.835,7.835-1.408 c2.063-0.742,3.731-1.814,5.002-3.22c1.27-1.403,2.201-3.599,2.794-6.584c0.592-2.985,0.638-6.978,0.137-11.977 s-1.326-8.794-2.477-11.381c-1.15-2.588-2.596-4.553-4.333-5.894c-1.738-1.34-3.855-2.153-6.349-2.438 c-1.865-0.229-5.459-0.078-10.781,0.455L438.342,274.036z" />
			</g>
		</svg>
	</symbol>

	<symbol id="tag-icon">
		<svg viewBox="0 0 512 512">
			<path d="M0 252.118V48C0 21.49 21.49 0 48 0h204.118a48 48 0 0 1 33.941 14.059l211.882 211.882c18.745 18.745 18.745 49.137 0 67.882L293.823 497.941c-18.745 18.745-49.137 18.745-67.882 0L14.059 286.059A48 48 0 0 1 0 252.118zM112 64c-26.51 0-48 21.49-48 48s21.49 48 48 48 48-21.49 48-48-21.49-48-48-48z"/>
		</svg>
	</symbol>

	<symbol id="pin-icon">
		<svg viewBox="0 0 50 50">
			<path d="M28.7915 23.6212L28.7916 23.6219L29.4686 44.0925L20.6647 25.5994" stroke-linejoin="round" />
			<path d="M24.9368 25.4694C30.4682 24.1235 33.8612 18.5483 32.5153 13.0169C31.1694 7.48556 25.5942 4.09256 20.0628 5.43848C14.5314 6.7844 11.1384 12.3596 12.4844 17.891C13.8303 23.4223 19.4055 26.8153 24.9368 25.4694Z" style="stroke: #555;" />
			<path d="M28.1319 14.3775C29.1775 14.1231 29.8189 13.0693 29.5645 12.0237C29.3101 10.978 28.2562 10.3367 27.2106 10.5911C26.165 10.8455 25.5236 11.8994 25.7781 12.945C26.0325 13.9906 27.0863 14.632 28.1319 14.3775Z" />
		</svg>
	</symbol>

	<symbol id="up-icon">
		<svg viewBox="0 0 500 500">
			<style type="text/css">
	.st0{fill:none;stroke:url(#SVGID_1_);stroke-width:60;stroke-miterlimit:10;}
	.st1{fill:url(#SVGID_2_);}
	.st2{fill:url(#SVGID_3_);}
	.st3{fill:url(#SVGID_4_);}
			</style>
			<linearGradient id="SVGID_1_" gradientUnits="userSpaceOnUse" x1="483.04" y1="250" x2="16.96" y2="250">
				<stop offset="0" style="stop-color:#EDA324" />
				<stop offset="1" style="stop-color:#F8B628" />
			</linearGradient>
			<circle class="st0" cx="250" cy="250" r="203.04" />

			<linearGradient id="SVGID_2_" gradientUnits="userSpaceOnUse" x1="160.71" y1="253.35" x2="342.96" y2="253.35">
				<stop offset="0" style="stop-color:#FCBD29" />
				<stop offset="1" style="stop-color:#EA9F23" />
			</linearGradient>
			<path class="st1" d="M250,147.6l-89.29,119.34h42.84v92.16c16.03,0,32.06,0,48.09,0c14.96,0,29.92,0,44.88,0
c0-30.36,0-60.72,0-91.08h46.44L250,147.6z" />
			<linearGradient id="SVGID_3_" gradientUnits="userSpaceOnUse" x1="203.4" y1="386.5" x2="296.4" y2="386.5">
				<stop offset="0" style="stop-color:#FCBC29" />
				<stop offset="1" style="stop-color:#EBA123" />
			</linearGradient>
			<rect x="203.4" y="376.96" class="st2" width="93" height="19.08" />

			<linearGradient id="SVGID_4_" gradientUnits="userSpaceOnUse" x1="203.4" y1="417.729" x2="296.4" y2="417.729">
				<stop offset="0" style="stop-color:#FCBD29" />
				<stop offset="1" style="stop-color:#EBA123" />
			</linearGradient>
			<path class="st3" d="M203.4,410.12c0.07,2.92,0.15,5.84,0.22,8.76c17.84,6.36,42.13,6.36,42.13,6.36s23.58,1.41,50.64-6.11
c0-3,0-6,0-9H203.4z" />
		</svg>
	</symbol>

	<symbol id="telephone">
		<svg viewBox="0 0 44 44">
			<g clip-path="url(#clip0_1219:2)">
				<path d="M40.3956 32.6291C42.118 33.7894 42.3238 36.247 40.817 37.6779L40.1346 38.3261L28.5504 29.1763L30.2804 27.5336C31.3842 26.4854 33.067 26.3446 34.3299 27.1948L40.3956 32.6291Z" />
				<path d="M17.4842 9.61647C18.268 10.9213 18.0404 12.5946 16.9365 13.6431L15.2066 15.2854L7.47918 3.26498L8.16185 2.61674C9.66866 1.18592 12.1124 1.51879 13.182 3.29955L17.4842 9.61647Z" />
				<path d="M40.1346 38.326L38.4935 39.884C26.2178 51.5406 -6.68704 16.7166 5.00608 5.61348L7.47917 3.26481L15.2066 15.2852L13.49 16.9162C13.0139 17.3677 12.857 18.0619 13.0921 18.6746C13.004 18.5343 15.3127 26.7834 25.0566 31.1123C25.6563 31.3788 26.3577 31.2583 26.8338 30.8062L28.5504 29.1761L40.1346 38.326Z" />
				<path d="M20.0493 32.8604C19.7244 33.1686 19.7111 33.6825 20.0196 34.0077C20.3287 34.3326 20.8423 34.3459 21.1669 34.0374C21.4925 33.7286 21.5058 33.2147 21.1966 32.89C20.8884 32.5645 20.3748 32.5512 20.0493 32.8604Z" />
				<path d="M40.8988 31.9892L34.8724 26.5902C34.8445 26.5653 34.815 26.5424 34.7841 26.5216C33.1942 25.4507 31.1127 25.6249 29.7223 26.9449L26.2758 30.2173C26.0371 30.4443 25.6881 30.5041 25.387 30.3707C21.634 28.7032 18.5787 26.2601 16.3059 23.1097C14.5727 20.7074 13.9744 18.8186 13.896 18.5527C13.8873 18.496 13.8726 18.4394 13.8512 18.384C13.7332 18.0764 13.8109 17.7316 14.0503 17.505L17.4965 14.2316C18.8869 12.9114 19.1682 10.8416 18.1809 9.19848C18.173 9.18526 18.1648 9.17236 18.1562 9.15945L13.8663 2.86061C12.5225 0.652405 9.4814 0.245394 7.60383 2.02797L6.91368 2.68331C6.91335 2.68394 6.9127 2.68455 6.91206 2.68485L4.44808 5.02457C1.50991 7.81488 0.930007 12.1068 2.77142 17.4372C4.34867 22.0032 7.61228 27.0401 11.9609 31.6197C16.4125 36.3077 21.4061 39.8935 26.0218 41.7169C30.5904 43.5212 35.4911 43.8558 39.0534 40.4728L41.3772 38.2665C43.2464 36.4913 43.0067 33.4535 40.8988 31.9892ZM33.8338 27.8393L39.8549 33.2337C39.8825 33.2585 39.912 33.2815 39.9429 33.3023C41.2363 34.1736 41.3878 36.0175 40.2589 37.0891L40.0866 37.2531L29.7895 29.1197L30.8403 28.1222C31.6615 27.3421 32.8852 27.2288 33.8338 27.8393ZM12.4873 3.71735C12.4952 3.73057 12.5034 3.74379 12.512 3.75638L16.8 10.0529C17.3793 11.0358 17.2075 12.2671 16.3785 13.0543L15.3602 14.0216L8.52634 3.39092L8.7218 3.20531C9.85524 2.12903 11.687 2.38548 12.4873 3.71735ZM26.618 40.2066C22.2177 38.4685 17.4305 35.0219 13.1383 30.5018C8.94557 26.0867 5.80886 21.2586 4.30569 16.9071C3.17735 13.6408 2.48024 9.13212 5.56605 6.20223L7.32785 4.52897L14.1617 15.1596L12.9326 16.3273C12.2334 16.99 11.9931 17.9914 12.31 18.8968C12.539 19.9547 13.6613 22.1673 14.8089 23.8061C16.4977 26.2177 19.5894 29.5713 24.7278 31.8545C25.6308 32.2557 26.677 32.0753 27.3938 31.3949L28.6001 30.2491L38.8972 38.3825L37.9355 39.2954C34.6275 42.4369 29.9552 41.5248 26.618 40.2066Z" />
				<path d="M18.5762 30.8832C17.7384 30.1094 16.2891 28.7782 15.529 27.9546C13.6651 25.9373 11.7177 23.4999 10.5677 21.7456C10.322 21.3706 9.81875 21.2656 9.44375 21.5116C9.06876 21.7573 8.96405 22.2606 9.20974 22.6356C10.6601 24.8481 12.809 27.403 14.3363 29.056C15.1386 29.9257 16.6003 31.2687 17.4744 32.0758C17.8031 32.3794 18.3166 32.3603 18.6218 32.0303C18.9259 31.7013 18.9056 31.1874 18.5762 30.8832Z" />
			</g>
			<defs>
				<clipPath id="clip0_1219:2">
					<rect width="41.5681" height="41.5681" fill="white" transform="translate(2 0.693359) rotate(1.48172)" />
				</clipPath>
			</defs>
		</svg>
	</symbol>

	<symbol id="pending-icon">
		<svg viewBox="-3.667 -18.924 512 512">
			<polygon style="fill:#3B4652;" points="285.745,192.496 285.745,227.517 252.691,251.204 252.691,192.496 " />
			<path style="fill:#3B4652;" d="M202.417,192.496c0,19.836,0,39.288,0,58.934c11.233,0,22.15,0,33.048,0c0-19.889,0-39.348,0-58.934
C224.368,192.496,213.641,192.496,202.417,192.496z" />
			<path style="fill:#3B4652;" d="M81.922,39.598h41.148c5.985,0,10.841,4.853,10.841,10.839v25.153
	c4.891-3.357,7.597-5.039,10.072-6.944c26.828-20.619,53.626-41.269,80.419-61.921c12.214-9.413,26.092-8.977,39.771,1.507
	c38.549,29.532,77.045,59.116,115.548,88.694c31.211,23.977,62.364,48.011,93.625,71.938c8.399,6.43,13.699,13.933,11.672,23.991
	c-3.918,19.439-28.821,26.51-46.864,12.963c-26.807-20.127-53.162-40.709-79.702-61.104c-34.997-26.896-70.188-53.605-104.82-80.854
	c-7.559-5.945-12.09-6.282-19.98-0.17c-61.029,47.274-122.483,94.141-183.94,141c-4.288,3.27-9.282,6.436-14.589,7.978
	c-12.027,3.494-25.079-1.277-31.354-10.411c-6.566-9.563-4.498-22.375,5.789-30.476c17.886-14.084,36.444-27.532,54.046-41.872
c3.921-3.193,6.998-8.937,7.138-13.581c0.606-20.691,0.407-41.395,0.345-65.871C71.067,44.459,75.925,39.598,81.922,39.598z" />
			<path style="fill:#3B4652;" d="M451.009,443.936c0.079-0.787,0.157-1.574,0.157-2.361v-69.568
	c-11.647,1.182-23.297,2.281-34.941,3.465v66.104c0,0.787,0.078,1.574,0.157,2.361h-216.34c0.787-0.63,1.181-1.653,1.181-3.463
	c-0.158-19.36-0.079-38.722-0.079-58.158c0-17.628,0-35.335-0.079-53.042c0-3.463-0.155-6.925-0.708-10.311
	c-4.249-26.128-31.164-43.757-56.817-37.382c-21.956,5.51-36.83,25.026-36.83,48.792c-0.079,36.598,0,73.189,0,109.862
	c0,2.046,0,3.148,0.472,3.699H69.01c0.158-0.787,0.236-1.574,0.236-2.361V313.297c0,0,0,0,0.079,0V273.16
	c0-5.509,2.597-10.781,7.158-14.087l4.328-3.146l151.651-109.862c6.139-4.407,14.402-4.407,20.54,0l72.874,52.806l0.551-0.393
	c0-0.079-0.079-0.158-0.079-0.236c0.079-13.457,9.68-24.317,22.586-26.206L243.326,94.99l-0.633,0.473l-0.629-0.473L50.753,234.442
l-16.527,12.041v195.091c0,0.787,0.079,1.574,0.236,2.361h-17.55v30.22h451.564v-30.22L451.009,443.936L451.009,443.936z" />
			<path style="fill:#2D7ABF;" d="M353.321,179.534c-10.789-0.049-19.017,8.079-19.063,18.771
	c-0.052,10.641,8.178,18.918,18.918,19.017c10.592,0.1,19.017-8.227,19.063-18.82C372.239,187.811,364.061,179.583,353.321,179.534z
	 M353.222,208.601c-5.813-0.049-10.247-4.483-10.247-10.247c0.049-5.766,4.481-10.149,10.297-10.149
c5.813,0.05,10.247,4.483,10.247,10.247C363.47,204.167,358.937,208.699,353.222,208.601z" />
			<path style="fill:#2D7ABF;" d="M442.629,229.761l-31.49,2.922c-0.021,0-0.021,0-0.021,0c-3.55-1.186-7.045-3.291-10.503-4.789
c-9.412-4.105-18.768-8.396-27.791-12.444c1.926-5.011,3.606-9.449,5.566-14.552C399.581,210.42,421.106,220.09,442.629,229.761z" />
			<path style="fill:#2D7ABF;" d="M273.107,246.273c18.604-13.295,37.222-26.59,56.045-40.051c2.922,4.382,5.658,8.506,8.672,13.034
c-11.39,8.101-22.596,16.588-34.374,24.188L273.107,246.273z" />
			<g>
				<path style="fill:#2D7ABF;" d="M500.548,316.783c1.759,17.584-11.071,33.267-28.656,35.025l-211.607,21.17
		c-17.585,1.759-33.27-11.071-35.026-28.656l-5.176-51.742c-1.761-17.584,11.069-33.267,28.653-35.023l211.61-21.169
c17.586-1.762,33.268,11.068,35.025,28.653L500.548,316.783z" />
				<g style="enable-background:new    ;">
					<path style="fill:#FFFFFF;" d="M273.96,285.513l1.184,11.84c-8.398-2.81-14.983-3.978-19.755-3.5
			c-2.718,0.271-4.833,0.941-6.347,2.016c-1.514,1.07-2.195,2.358-2.044,3.86c0.115,1.157,0.804,2.197,2.063,3.122
			c1.26,0.926,4.213,1.987,8.86,3.188c4.646,1.199,8.385,2.373,11.215,3.521c2.83,1.147,5.351,2.911,7.56,5.289
			s3.511,5.533,3.903,9.466c0.562,5.608-1.125,10.29-5.058,14.041s-9.382,5.975-16.351,6.671
			c-7.518,0.751-14.999-0.472-22.442-3.669l-1.306-13.054c4.319,2.313,8.104,3.937,11.351,4.865
			c3.247,0.932,6.619,1.223,10.118,0.871c5.927-0.592,8.704-2.753,8.331-6.479c-0.128-1.271-0.842-2.411-2.14-3.418
			c-1.298-1.011-4.291-2.097-8.979-3.262c-4.688-1.167-8.423-2.312-11.207-3.435c-2.783-1.124-5.266-2.877-7.444-5.258
			c-2.18-2.383-3.471-5.583-3.873-9.604c-0.521-5.206,1.156-9.615,5.028-13.23s9.322-5.774,16.348-6.478
C259.454,282.232,266.448,283.111,273.96,285.513z" />
					<path style="fill:#FFFFFF;" d="M313.187,276.859c10.322-1.031,18.988,1.25,26.002,6.84c7.013,5.592,10.933,12.522,11.759,20.792
			c0.839,8.385-1.672,15.979-7.531,22.785c-5.861,6.807-13.865,10.716-24.015,11.73c-10.264,1.025-18.927-1.201-25.985-6.688
			c-7.062-5.484-11.014-12.447-11.856-20.891c-0.83-8.3,1.646-15.875,7.429-22.731C294.77,281.843,302.836,277.894,313.187,276.859z
			 M318.144,326.429c5.725-0.572,10.167-2.73,13.325-6.479c3.158-3.746,4.462-8.381,3.909-13.902
			c-0.556-5.553-2.751-9.844-6.587-12.877c-3.838-3.033-8.617-4.264-14.343-3.69c-5.754,0.576-10.218,2.729-13.393,6.465
			c-3.175,3.734-4.484,8.376-3.929,13.928c0.552,5.521,2.754,9.808,6.605,12.853C307.587,325.771,312.39,327.006,318.144,326.429z" />
					<path style="fill:#FFFFFF;" d="M385.93,269.586c10.321-1.032,18.988,1.249,26.001,6.841s10.933,12.521,11.76,20.79
			c0.839,8.386-1.673,15.979-7.533,22.785c-5.859,6.808-13.863,10.718-24.013,11.73c-10.265,1.026-18.927-1.201-25.986-6.687
			c-7.061-5.485-11.014-12.448-11.856-20.891c-0.83-8.299,1.646-15.876,7.43-22.732C367.513,274.567,375.578,270.621,385.93,269.586
			z M390.887,319.156c5.725-0.572,10.166-2.731,13.324-6.479s4.462-8.383,3.909-13.903c-0.555-5.551-2.751-9.844-6.588-12.876
			c-3.836-3.034-8.617-4.263-14.342-3.69c-5.754,0.574-10.218,2.729-13.393,6.464c-3.175,3.733-4.484,8.376-3.93,13.93
c0.553,5.521,2.755,9.805,6.606,12.851C380.329,318.497,385.133,319.73,390.887,319.156z" />
					<path style="fill:#FFFFFF;" d="M487.981,260.169l6.059,60.586l-12.745,1.273l-37.322-35.471l3.881,38.814l-15.092,1.509
l-6.06-60.586l13.839-1.383l36.053,33.801l-3.703-37.035L487.981,260.169z" />
				</g>
			</g>
		</svg>
	</symbol>

	<symbol id="up-green-icon">
		<svg viewBox="0 0 500 500">
			<circle stroke="#8bad57" stroke-width="60" stroke-miter-limit="10" cx="250" cy="250" r="203.04" fill-opacity="0" />
			<path fill="#8bad57" d="M250,147.6l-89.29,119.34h42.84v92.16c16.03,0,32.06,0,48.09,0c14.96,0,29.92,0,44.88,0
c0-30.36,0-60.72,0-91.08h46.44L250,147.6z" />
			<rect x="203.4" y="376.96" fill="#8bad57" width="93" height="19.08" />
			<path fill="#8bad57" d="M203.4,410.12c0.07,2.92,0.15,5.84,0.22,8.76c17.84,6.36,42.13,6.36,42.13,6.36s23.58,1.41,50.64-6.11
c0-3,0-6,0-9H203.4z" />
		</svg>
	</symbol>

	<symbol id="circle-up-arrow">
		<svg viewBox="0 0 490.667 490.667">
			<path d="M245.333,0C110.059,0,0,110.059,0,245.333s110.059,245.333,245.333,245.333s245.333-110.059,245.333-245.333
					            S380.608,0,245.333,0z M245.333,469.333c-123.52,0-224-100.48-224-224s100.48-224,224-224s224,100.48,224,224S368.853,469.333,245.333,469.333z"/>
			<path d="M245.333,106.667c-5.888,0-10.667,4.779-10.667,10.667v256c0,5.888,4.779,10.667,10.667,10.667S256,379.221,256,373.333 v-256C256,111.445,251.221,106.667,245.333,106.667z"/>
			<path d="M338.219,195.115l-85.333-85.333c-4.16-4.16-10.923-4.16-15.083,0l-85.333,85.333c-4.16,4.16-4.16,10.923,0,15.083 c4.16,4.16,10.923,4.16,15.083,0l77.781-77.781l77.781,77.803c2.091,2.069,4.821,3.115,7.552,3.115
c2.731,0,5.461-1.045,7.552-3.136C342.379,206.037,342.379,199.275,338.219,195.115z"/>
		</svg>
	</symbol>

	<symbol id="listing-7-clock">
		<svg viewBox="0 0 54 54">
			<circle cx="27" cy="27" r="27" fill="var(--theme-body-background)" />
			<path d="M20.3927 37.9944C20.0155 38.6425 19.1794 38.8675 18.5724 38.4272C17.3201 37.5187 16.2306 36.3996 15.3539 35.1167C14.2212 33.4592 13.4725 31.57 13.1622 29.5866C12.8519 27.6032 12.9879 25.5756 13.5602 23.6513C14.1325 21.7271 15.1268 19.9548 16.4706 18.4633C17.8144 16.9719 19.4739 15.799 21.3283 15.0299C23.1827 14.2608 25.1852 13.915 27.1901 14.0176C29.195 14.1203 31.1518 14.6687 32.9179 15.6231C34.2849 16.3618 35.5111 17.3293 36.5447 18.4804C37.0458 19.0384 36.9088 19.8933 36.3034 20.3358V20.3358C35.6979 20.7783 34.8541 20.639 34.3391 20.0939C33.5534 19.2623 32.6384 18.5589 31.6269 18.0123C30.216 17.2499 28.6529 16.8118 27.0513 16.7298C25.4497 16.6478 23.85 16.9241 22.3686 17.5384C20.8873 18.1528 19.5616 19.0898 18.4881 20.2812C17.4147 21.4726 16.6204 22.8884 16.1632 24.4255C15.706 25.9627 15.5974 27.5824 15.8453 29.1668C16.0932 30.7513 16.6913 32.2604 17.5961 33.5845C18.2448 34.5338 19.0394 35.3708 19.9481 36.0658C20.5437 36.5214 20.7699 37.3462 20.3927 37.9944V37.9944Z" fill="var(--theme-sub-heading-color)" />
			<circle cx="28" cy="28" r="4" fill="var(--theme-sub-heading-color)" />
			<rect x="25.1475" y="28.0896" width="18.4828" height="3" rx="1.5" transform="rotate(-40.8516 25.1475 28.0896)" fill="var(--theme-sub-heading-color)" />
		</svg>
	</symbol>

	<symbol id="homes-being-sold-icon">
		<svg viewBox="0 0 500 500">
			<path d="M250,10.12C117.52,10.12,10.12,117.52,10.12,250S117.52,489.88,250,489.88S489.88,382.48,489.88,250
	S382.48,10.12,250,10.12z M361.22,165.72l-79.37,68.9c2.25,4.65,3.51,9.86,3.51,15.37c0,19.53-15.83,35.36-35.36,35.36
	s-35.36-15.83-35.36-35.36c0-19.53,15.83-35.36,35.36-35.36c3.68,0,7.22,0.56,10.56,1.6l57.63-50.03c-1.86-1.71-3.51-3.15-4.51-3.97
	c0,0-3.94-3.23-10.14-6.37c-5.67-2.87-90.94-32.66-136.62,26.89c-36.28,47.3-12.75,107.4-4.07,121.67c3.33,5.47,6.7,9.71,9.29,12.67
	c4.05,5.54,3.27,13.19-1.53,17.58c-3.83,3.49-10.35,3.85-16.29,0.99c-2.51-2.64-5.12-5.61-7.74-8.91c-2.31-2.91-4.37-5.75-6.2-8.45
	c-1.52-2.25-43.94-82.95,5.66-146.83c56.33-72.55,161.7-33.67,168.66-29.49c4.82,2.9,9.54,6.21,9.54,6.21
c2.98,2.09,5.61,4.09,7.89,5.91l10.84-9.41c5.81-5.04,14.6-4.42,19.64,1.39C367.65,151.89,367.03,160.68,361.22,165.72z" />
		</svg>
	</symbol>

	<symbol id="increase-graph">
		<svg width="100%" height="100%" viewBox="0 0 50 40"
			xmlns="http://www.w3.org/2000/svg">
			<g clip-path="url(#clip0_1210:2)">
				<path d="M0.90918 0.453125V39.0895H50.0001" stroke="var(--theme-body-background)" stroke-width="2" />
				<path d="M5.90918 31.8184L16.8183 20.9093L26.3637 26.3638L43.1819 9.09109" stroke="var(--theme-body-background)" stroke-width="2" />
				<path d="M44.0914 17.2715C44.0914 16.5442 43.7884 11.2108 43.6369 8.63512L35.4551 8.18057" stroke="var(--theme-body-background)" stroke-width="2" />
			</g>
			<defs>
				<clipPath id="clip0_1210:2">
					<rect width="50" height="40" fill="var(--theme-body-background)" />
				</clipPath>
			</defs>
		</svg>
	</symbol>

	<symbol id="decrease-graph">
		<svg width="100%" height="100%" viewBox="0 0 55 44"
			xmlns="http://www.w3.org/2000/svg">
			<path d="M1 0.5V43H55" stroke="var(--theme-body-background)" stroke-width="2" />
			<path d="M6.5 9L18.5 21L29 15L47.5 34" stroke="var(--theme-body-background)" stroke-width="2" />
			<path d="M48.5 25C48.5 25.8 48.1667 31.6667 48 34.5L39 35" stroke="var(--theme-body-background)" stroke-width="2" />
		</svg>
	</symbol>

	<symbol id="flyer-right-icon">
		<svg viewBox="-128 0 512 512">
			<path d="M224.3 273l-136 136c-9.4 9.4-24.6 9.4-33.9 0l-22.6-22.6c-9.4-9.4-9.4-24.6 0-33.9l96.4-96.4-96.4-96.4c-9.4-9.4-9.4-24.6 0-33.9L54.3 103c9.4-9.4 24.6-9.4 33.9 0l136 136c9.5 9.4 9.5 24.6.1 34z" />
		</svg>
	</symbol>

	<symbol id="flyer-navigation">
		<svg viewBox="0 0 256 512">
			<path d="M224.3 273l-136 136c-9.4 9.4-24.6 9.4-33.9 0l-22.6-22.6c-9.4-9.4-9.4-24.6 0-33.9l96.4-96.4-96.4-96.4c-9.4-9.4-9.4-24.6 0-33.9L54.3 103c9.4-9.4 24.6-9.4 33.9 0l136 136c9.5 9.4 9.5 24.6.1 34z"/>

		</svg>
	</symbol>

	<symbol id="blue-col-icon">
		<svg viewBox="0 0 500 500">
			<style type="text/css">
	.st0{fill:none;stroke:url(#SVGID_1_);stroke-width:80;stroke-miterlimit:10;}
	.st1{display:none;fill:#FFFFFF;}
	.st2{fill:url(#SVGID_2_);}
	.st3{fill:url(#SVGID_3_);}
			</style>
			<linearGradient id="SVGID_1_" gradientUnits="userSpaceOnUse" x1="14.44" y1="250" x2="485.56" y2="250">
				<stop offset="0" style="stop-color:#5898B0" />
				<stop offset="1" style="stop-color:#207F9C" />

			</linearGradient>
			<circle class="st0" cx="250" cy="250" r="195.56" />
			<circle class="st1" cx="250" cy="250" r="169.28" />

			<linearGradient id="SVGID_2_" gradientUnits="userSpaceOnUse" x1="300.4098" y1="220.68" x2="194.4098" y2="220.68">
				<stop offset="0" style="stop-color:#207F9C" />
				<stop offset="1" style="stop-color:#5898B0" />

			</linearGradient>
			<polygon class="st2" points="197,124.38 303,124.38 280.23,316.98 218.65,316.98 " />

			<linearGradient id="SVGID_3_" gradientUnits="userSpaceOnUse" x1="279.4566" y1="363.3" x2="214.6566" y2="363.3">
				<stop offset="0" style="stop-color:#207F9C" />
				<stop offset="1" style="stop-color:#5898B0" />

			</linearGradient>
			<rect x="216.24" y="337.2" class="st3" width="64.8" height="52.2" />
		</svg>
	</symbol>

	<symbol id="arrow-up-bg">
		<svg viewBox="0 0 300 204">
			<path d="M166.5 44.5L126.5 65.5C170.9 151.1 260.333 183.5 299.5 189C172.7 234.2 73.3333 159.833 39.5 117L0 138.5L31 0L166.5 44.5Z" fill="var(--theme-sub-heading-color)" />
		</svg>
	</symbol>

	<symbol id="arrow-down">
		<svg viewBox="0 0 256 512">
			<path d="M168 345.941V44c0-6.627-5.373-12-12-12h-56c-6.627 0-12 5.373-12 12v301.941H41.941c-21.382 0-32.09 25.851-16.971 40.971l86.059 86.059c9.373 9.373 24.569 9.373 33.941 0l86.059-86.059c15.119-15.119 4.411-40.971-16.971-40.971H168z"/>
		</svg>
	</symbol>

	<symbol id="arrow-up">
		<svg viewBox="0 0 256 512">
			<path d="M88 166.059V468c0 6.627 5.373 12 12 12h56c6.627 0 12-5.373 12-12V166.059h46.059c21.382 0 32.09-25.851 16.971-40.971l-86.059-86.059c-9.373-9.373-24.569-9.373-33.941 0l-86.059 86.059c-15.119 15.119-4.411 40.971 16.971 40.971H88z"/>
		</svg>
	</symbol>

	<symbol id="arrow-down-red">
		<svg viewBox="0 0 500 500" class="no-style-override">
			<circle stroke-width="60" stroke-miter-limit="10" cx="250" cy="250" r="203.04" fill-opacity="0" style="stroke: rgb(161, 20, 20);" transform="matrix(1, 0, 0, 0.9999999999999999, 0, 0)"/>
			<path d="M 248.07 136.6 L 158.78 255.94 L 201.62 255.94 L 201.62 348.1 C 217.65 348.1 233.68 348.1 249.71 348.1 C 264.67 348.1 279.63 348.1 294.59 348.1 C 294.59 317.74 294.59 287.38 294.59 257.02 L 341.03 257.02 L 248.07 136.6 Z" style="fill: rgb(161, 20, 20); transform-origin: 249.905px 242.35px;" transform="matrix(-1, 0, 0, -1, 0.000023476069, 0.000023688944)"/>
			<rect x="-298.47" y="-124.305" width="93" height="19.08" transform="matrix(-1, 0, 0, -1, 503.939974523457, 229.5300009799)" style="fill: rgb(161, 20, 20); transform-origin: -251.97px -114.765px;"/>
			<path d="M 204.41 75.92 C 204.48 78.84 204.56 81.76 204.63 84.68 C 222.47 91.04 246.76 91.04 246.76 91.04 C 246.76 91.04 270.34 92.45 297.4 84.93 C 297.4 81.93 297.4 78.93 297.4 75.93 L 204.41 75.93 L 204.41 75.92 Z" style="fill: rgb(161, 20, 20); transform-origin: 250.905px 83.5324px;" transform="matrix(-1, 0, 0, -1, 0.000023447893, -0.000017612461)"/>
		</svg>
	</symbol>

	<symbol id="arrow-up-green">
		<svg viewBox="0 0 500 500" class="no-style-override">
			<circle stroke="#8bad57" stroke-width="60" stroke-miter-limit="10" cx="250" cy="250" r="203.04" fill-opacity="0" />
			<path fill="#8bad57" d="M250,147.6l-89.29,119.34h42.84v92.16c16.03,0,32.06,0,48.09,0c14.96,0,29.92,0,44.88,0 c0-30.36,0-60.72,0-91.08h46.44L250,147.6z" />
			<rect x="203.4" y="376.96" fill="#8bad57" width="93" height="19.08" />
			<path fill="#8bad57" d="M203.4,410.12c0.07,2.92,0.15,5.84,0.22,8.76c17.84,6.36,42.13,6.36,42.13,6.36s23.58,1.41,50.64-6.11 c0-3,0-6,0-9H203.4z" />
		</svg>
	</symbol>

	<symbol id="avg-yih-icon">
		<svg viewBox="0 0 500 500">
			<path d="M123.57,92.19h-5.03c-7.16,0-12.96-5.8-12.96-12.96V38.6c0-7.16,5.8-12.96,12.96-12.96h5.03
c7.16,0,12.96,5.8,12.96,12.96v40.63C136.53,86.39,130.73,92.19,123.57,92.19z" />
			<path d="M381.45,92.19h-5.03c-7.16,0-12.96-5.8-12.96-12.96V38.6c0-7.16,5.8-12.96,12.96-12.96h5.03
c7.16,0,12.96,5.8,12.96,12.96v40.63C394.41,86.39,388.61,92.19,381.45,92.19z" />
			<path d="M445.2,71.95h-41.17v8.75c0,13.86-11.23,25.09-25.09,25.09c-13.86,0-25.09-11.23-25.09-25.09v-8.75h-207.7
		v8.72c0,13.86-11.23,25.09-25.09,25.09S95.97,94.52,95.97,80.66v-8.72H54.8c-12.93,0-23.42,10.49-23.42,23.42v355.57
		c0,12.93,10.49,23.42,23.42,23.42h390.4c12.93,0,23.42-10.49,23.42-23.42V95.37C468.62,82.43,458.13,71.95,445.2,71.95z
		 M158.74,360.87c0,4.76-3.86,8.62-8.62,8.62H94.57c-4.76,0-8.62-3.86-8.62-8.62v-61.68c0-4.76,3.86-8.62,8.62-8.62h55.56
		c4.76,0,8.62,3.86,8.62,8.62V360.87z M158.74,222.47c0,4.76-3.86,8.62-8.62,8.62H94.57c-4.76,0-8.62-3.86-8.62-8.62v-61.68
		c0-4.76,3.86-8.62,8.62-8.62h55.56c4.76,0,8.62,3.86,8.62,8.62V222.47z M286.4,360.87c0,4.76-3.86,8.62-8.62,8.62h-55.56
		c-4.76,0-8.62-3.86-8.62-8.62v-61.68c0-4.76,3.86-8.62,8.62-8.62h55.56c4.76,0,8.62,3.86,8.62,8.62V360.87z M286.4,222.47
		c0,4.76-3.86,8.62-8.62,8.62h-55.56c-4.76,0-8.62-3.86-8.62-8.62v-61.68c0-4.76,3.86-8.62,8.62-8.62h55.56
		c4.76,0,8.62,3.86,8.62,8.62V222.47z M414.05,360.87c0,4.76-3.86,8.62-8.62,8.62h-55.56c-4.76,0-8.62-3.86-8.62-8.62v-61.68
		c0-4.76,3.86-8.62,8.62-8.62h55.56c4.76,0,8.62,3.86,8.62,8.62V360.87z M414.05,222.47c0,4.76-3.86,8.62-8.62,8.62h-55.56
c-4.76,0-8.62-3.86-8.62-8.62v-61.68c0-4.76,3.86-8.62,8.62-8.62h55.56c4.76,0,8.62,3.86,8.62,8.62V222.47z" />
		</svg>
	</symbol>


	<symbol id="barcode-hand">
		<svg viewBox="0 0 179 268">
			<path d="M23.5173 82.1935L4.92058 62.9521C-1.77024 54.8085 10.13 40.0056 23.518 52.5886" stroke-width="4.46287" stroke-linecap="round" />
			<path d="M176.001 240.576L162.612 219.853C158.15 211.712 159.042 201.35 162.612 183.588C164.844 169.032 165.439 135.036 149.968 115.497C146.735 111.415 137.769 106.024 130.628 100.695C125.422 96.2539 118.579 88.8531 115.008 100.695C114.017 106.616 115.008 120.826 126.909 130.299C129.637 132.026 133.455 138.144 126.909 148.802C117.983 162.617 101.619 197.501 107.57 226.514" stroke="#000000" stroke-width="4.46287" stroke-linecap="round" />
			<path d="M50.2959 208.751C53.2711 216.893 65.1721 234.803 88.9741 241.316C103.255 248.422 110.793 260.066 112.776 265" stroke-width="4.46287" stroke-linecap="round" />
			<path d="M104.594 207.271H80.0486H34.6761C28.9249 207.271 24.2627 202.609 24.2627 196.858V176.186M135.835 103.655V13.4134C135.835 7.66223 131.172 3 125.421 3H34.6761C28.9249 3 24.2627 7.66224 24.2627 13.4134V102.175" stroke-width="4.46287" stroke-linecap="" />
			<path d="M18.3108 94.7739C11.8645 95.7607 1.35115 100.991 4.92145 114.017C11.4675 127.043 25.7488 129.559 32.4431 129.559C36.906 129.559 45.2367 124.082 39.8812 114.017C36.906 109.576 34.6745 107.356 25.7488 102.915" stroke-width="4.46287" stroke-linecap="round" />
			<path d="M10.1308 128.08C3.43571 137.701 12.362 148.063 20.5438 151.763C31.7011 156.204 36.1649 151.023 36.9088 150.283C41.3716 144.362 39.8824 136.961 31.7004 129.56" stroke-width="4.46287" stroke-linecap="round" />
			<path d="M10.1308 151.022C3.43571 160.643 12.362 171.005 20.5438 174.706C31.7011 179.146 36.1649 173.965 36.9088 173.225C41.3716 167.304 39.1386 161.384 30.9566 153.982" stroke-width="4.46287" stroke-linecap="round" />
			<line x1="24.2627" y1="22.9722" x2="135.835" y2="22.9722" stroke-width="4.46287" />
			<line x1="24.2627" y1="184.317" x2="110.545" y2="184.317" stroke-width="4.46287" />
			<path d="M93.3534 121.349V118.208H83.9318V108.787H93.3534V115.068H99.6345V121.349H96.4939V127.63H90.2129V133.911H83.9318V124.489H90.2129V121.349H93.3534ZM109.056 133.911H96.4939V127.63H102.775V121.349H109.056V133.911ZM52.5264 77.3813H77.6507V102.506H52.5264V77.3813ZM58.8074 83.6624V96.2246H71.3696V83.6624H58.8074ZM83.9318 77.3813H109.056V102.506H83.9318V77.3813ZM90.2129 83.6624V96.2246H102.775V83.6624H90.2129ZM52.5264 108.787H77.6507V133.911H52.5264V108.787ZM58.8074 115.068V127.63H71.3696V115.068H58.8074ZM99.6345 108.787H109.056V115.068H99.6345V108.787ZM61.948 86.803H68.2291V93.0841H61.948V86.803ZM61.948 118.208H68.2291V124.489H61.948V118.208ZM93.3534 86.803H99.6345V93.0841H93.3534V86.803Z" />
		</svg>
	</symbol>

	<symbol id="clock-green-icon">
		<svg viewBox="0 0 500 500">
			<path fill="var(--active-green)" d="M162.6,131.64c-6.14,8.39-6.01,19.75,0.12,27.6c6.76,8.65,19.35,11.17,29.4,5.52
	c11.9-8.78,29.14-18.56,51.21-25.56c31.23-9.9,73.71-14.04,118.71,9c0,0,113.76,67.68,75.6,182.88c0,0-23.76,108.72-153.36,109.44
	c0,0-43.92,0-88.56-33.12c-9.31-6.97-22.33-6.22-30.6,1.62c-8.6,8.15-9.77,21.8-2.52,31.5c14.08,10.96,53.41,38.94,111.38,42.24
	c32.35,1.84,70.29-4.11,111.82-25.68c0,0,82.8-34.12,100.08-149.9c0,0,22.32-115.78-90-192.1c0,0-41.04-25.92-83.52-28.8
	c0.04-8.68,0.08-17.36,0.12-26.04c9.44-0.04,18.88-0.08,28.32-0.12c9.81-2.74,16.8-11.3,17.4-21.12c0.66-10.8-6.56-20.93-17.4-24
	c-33.9,0-67.8,0-101.7,0c-10.45,2.07-18.2,10.84-18.9,21.12c-0.75,11.09,6.89,21.45,18.12,24.12c9.39,0.24,18.78,0.48,28.17,0.72
c-0.18,8.57-0.35,17.13-0.53,25.7c-10.79,1.12-23.34,3.37-36.94,7.68C198.4,104.04,176.29,119.85,162.6,131.64z" />
			<path fill="var(--active-green)" d="M375.24,200.28L375.24,200.28c-6.5-6.5-16.82-7.14-24.08-1.5c-18.93,15.36-37.87,30.71-56.8,46.07
	c-1.88-0.26-3.8-0.41-5.76-0.41c-22.67,0-41.04,18.37-41.04,41.04s18.37,41.04,41.04,41.04s41.04-18.37,41.04-41.04
c0-1.48-0.08-2.94-0.24-4.38c15.72-19.09,31.44-38.19,47.16-57.28C382.18,216.78,381.61,206.65,375.24,200.28z" />
			<path fill="var(--active-green)" d="M180.42,235.32H29.94c-10.64,0-19.26-8.62-19.26-19.26v0c0-10.64,8.62-19.26,19.26-19.26h150.48
c10.64,0,19.26,8.62,19.26,19.26v0C199.68,226.7,191.06,235.32,180.42,235.32z" />
			<path fill="var(--active-green)" d="M178.62,304.44H67.38c-10.84,0-19.62-8.78-19.62-19.62v0c0-10.84,8.78-19.62,19.62-19.62h111.24
c10.84,0,19.62,8.78,19.62,19.62v0C198.24,295.66,189.46,304.44,178.62,304.44z" />
			<path fill="var(--active-green)" d="M179.7,374.64H96.9c-11.03,0-19.98-8.95-19.98-19.98v0c0-11.03,8.95-19.98,19.98-19.98h82.8
c11.03,0,19.98,8.95,19.98,19.98v0C199.68,365.69,190.73,374.64,179.7,374.64z" />
		</svg>
	</symbol>

	<symbol id="circle-up-arrow">
		<svg viewBox="0 0 490.667 490.667">
			<path d="M245.333,0C110.059,0,0,110.059,0,245.333s110.059,245.333,245.333,245.333s245.333-110.059,245.333-245.333
					            S380.608,0,245.333,0z M245.333,469.333c-123.52,0-224-100.48-224-224s100.48-224,224-224s224,100.48,224,224
S368.853,469.333,245.333,469.333z"/>

			<path d="M245.333,106.667c-5.888,0-10.667,4.779-10.667,10.667v256c0,5.888,4.779,10.667,10.667,10.667S256,379.221,256,373.333
v-256C256,111.445,251.221,106.667,245.333,106.667z"/>

			<path d="M338.219,195.115l-85.333-85.333c-4.16-4.16-10.923-4.16-15.083,0l-85.333,85.333c-4.16,4.16-4.16,10.923,0,15.083
					            c4.16,4.16,10.923,4.16,15.083,0l77.781-77.781l77.781,77.803c2.091,2.069,4.821,3.115,7.552,3.115
c2.731,0,5.461-1.045,7.552-3.136C342.379,206.037,342.379,199.275,338.219,195.115z"/>
		</svg>
	</symbol>

	<symbol id="double-arrow-down">
		<svg viewBox="0 0 320 512">
			<path d="M143 256.3L7 120.3c-9.4-9.4-9.4-24.6 0-33.9l22.6-22.6c9.4-9.4 24.6-9.4 33.9 0l96.4 96.4 96.4-96.4c9.4-9.4 24.6-9.4 33.9 0L313 86.3c9.4 9.4 9.4 24.6 0 33.9l-136 136c-9.4 9.5-24.6 9.5-34 .1zm34 192l136-136c9.4-9.4 9.4-24.6 0-33.9l-22.6-22.6c-9.4-9.4-24.6-9.4-33.9 0L160 352.1l-96.4-96.4c-9.4-9.4-24.6-9.4-33.9 0L7 278.3c-9.4 9.4-9.4 24.6 0 33.9l136 136c9.4 9.5 24.6 9.5 34 .1z"/>

		</svg>
	</symbol>

	<!-- 
		check-mark-icon-2
		down-icon
		home-dollar
		
		qr-code-svg
		right-arrow
		user-icon
	-->
	<symbol id="homes-icon">
		<svg viewBox="0 0 500 500">
			<path d="M137.91,262.52c0-6.88-5.58-12.46-12.46-12.46c-6.88,0-12.46,5.58-12.46,12.46c0,6.88,5.58,12.46,12.46,12.46C132.33,274.98,137.91,269.4,137.91,262.52z" />
			<ellipse transform="matrix(0.3827 -0.9239 0.9239 0.3827 -47.003 367.1276)" cx="251.22" cy="218.74" rx="21.29" ry="21.29" />
			<path d="M120.92,304.04c0.75,2.26,4.53,27.93,4.53,27.93l31.71-6.04L153.38,298L120.92,304.04z" />
			<polygon points="225.85,317.63 280.96,314.99 280.96,274.98 225.85,274.98 	" />
			<polygon points="348.15,328.2 376.84,331.97 383.63,303.29 348.15,298 	" />
			<path d="M248.88,11.78C116.24,11.78,8.71,119.31,8.71,251.95s107.53,240.17,240.17,240.17s240.17-107.53,240.17-240.17
		S381.52,11.78,248.88,11.78z M434.59,277.62l-28.31,65.68c7.93,6.79,15.85,13.59,23.78,20.38c-45.12-13.8-109.21-28.1-186.84-28.69
		c-67.99-0.51-125.25,9.66-167.59,20.51l21.52-17.87l-27.18-62.28l-11.32,8.67l-14.72-12.07l63.41-71.34l37.37,41.33l12.46-6.23
		l21.52,83.8l-7.93-101.91l-24.91,7.93l-14.72-18.12l120.11-87.19l119.96,87.19l-16.99,21.52l-18.12-14.72l-9.06,107.58l18.12-86.06
l15.85,9.06l31.71-44.16l61.15,72.47l-10.19,10.94L434.59,277.62z" />
			<ellipse transform="matrix(0.0498 -0.9988 0.9988 0.0498 95.8714 625.8149)" cx="376.84" cy="262.52" rx="12.46" ry="12.46" />
		</svg>
	</symbol>

	<symbol id="home-plus">
		<svg viewBox="0 0 500 500">
			<path fill="#fff" d="M252.81,172.92c-23.28-23.89-46.56-47.77-69.84-71.66L49.64,219.96v160.16h100.18v-93.5h28.28
c1.66-12.78,5.46-30,14.57-48.51C210.71,201.43,238.86,181.45,252.81,172.92z" />
			<path fill="#fff" d="M273.54,162.76c-26.96-26.55-53.92-53.1-80.88-79.64c-5.42-5.32-14.06-5.44-19.63-0.27L31.86,213.83
	c-2.79,2.59-7.05,2.77-10.05,0.42l-9.67-7.56c-3.75-2.93-4-8.52-0.52-11.77L173.07,43.86c5.54-5.19,14.19-5.1,19.63,0.19
c37.79,36.51,75.58,73.03,113.36,109.54C295.22,156.65,284.38,159.71,273.54,162.76z" />
			<polygon fill="#fff" points="282.98,119.15 315.5,149.23 322,149.23 322,74.43 282.98,74.43 " />
			<circle stroke="#fff" stroke-width="15" fill="transparent" cx="328.09" cy="309" r="156.04" />

			<path fill="#fff" d="M328.09,181.32c-70.52,0-127.68,57.16-127.68,127.68s57.16,127.68,127.68,127.68S455.77,379.52,455.77,309
S398.6,181.32,328.09,181.32z M339.13,320.04v81.6h-22.08v-81.6h-81.6v-22.08h81.6v-81.6h22.08v81.6h81.6v22.08H339.13z" />
		</svg>
	</symbol>

	<symbol id="home-speaker">
		<svg viewBox="0 0 500 500" fill="#ffffff">
			<path fill="#fff" d="M252.81,172.92c-23.28-23.89-46.56-47.77-69.84-71.66L49.64,219.96v160.16h100.18v-93.5h28.28
c1.66-12.78,5.46-30,14.57-48.51C210.71,201.43,238.86,181.45,252.81,172.92z" />
			<path fill="#fff" d="M273.54,162.76c-26.96-26.55-53.92-53.1-80.88-79.64c-5.42-5.32-14.06-5.44-19.63-0.27L31.86,213.83
	c-2.79,2.59-7.05,2.77-10.05,0.42l-9.67-7.56c-3.75-2.93-4-8.52-0.52-11.77L173.07,43.86c5.54-5.19,14.19-5.1,19.63,0.19
c37.79,36.51,75.58,73.03,113.36,109.54C295.22,156.65,284.38,159.71,273.54,162.76z" />
			<polygon fill="#fff" points="282.98,119.15 315.5,149.23 322,149.23 322,74.43 282.98,74.43 " />
			<circle fill-opacity="0" stroke="#fff" stroke-width="15" cx="328.09" cy="309" r="156.04" />

			<path fill="#fff" d="M338.14,287.78c-8.14-0.91-16-2.94-23.68-5.75c-14.91-5.45-28.35-13.53-40.99-23.02
		c-0.41-0.31-0.74-0.85-1.4-0.77c0,27.64,0,55.24,0,82.91c0.19,0.01,0.25,0.04,0.28,0.02c2.23-1.61,4.44-3.25,6.7-4.82
		c17.97-12.54,37.28-21.86,59.31-24.64c0.84-0.11,0.96-0.44,0.95-1.16c-0.02-7.14-0.03-14.29,0.01-21.43
C339.33,288.2,339.03,287.88,338.14,287.78z" />
			<path fill="#fff" d="M328.09,183.42c-70.52,0-127.68,57.16-127.68,127.68s57.16,127.68,127.68,127.68s127.68-57.16,127.68-127.68
		S398.6,183.42,328.09,183.42z M406.5,310.42c-0.72,2.15-1.32,4.35-2.81,6.17c-2.75,3.37-6.16,5.46-10.61,5.53
		c-3.37,0.06-6.74,0.04-10.11,0.03c-0.73,0-1.18,0.03-0.91,0.99c3.04,10.62,2.44,21.15-0.67,31.65c-1.77,5.95-4.01,11.75-5.85,17.67
		c-0.24,0.76-0.85,1.13-1.42,1.54c-3.49,2.52-7.52,3.58-11.71,4.06c-5.46,0.63-10.79,0.01-15.89-2.12c-2.63-1.1-4.88-2.71-6.54-5.11
		c-0.6-0.87-0.63-1.36,0.3-2.07c3.45-2.63,6.74-5.45,9.38-8.96c3.25-4.32,3.55-8.85,1.17-13.63c-0.24-0.48-0.65-0.89-0.09-1.49
		c5.72-5.96,3.15-16.61-4.75-20.93c-1.79-0.98-3.57-1.23-5.57-0.99c-15.53,1.88-29.75,7.42-43.19,15.22
		c-8.53,4.96-16.52,10.68-24.11,16.97c-0.96,0.79-1.86,0.89-2.95,0.69c-5.29-0.99-9.2-5.39-9.26-10.82
		c-0.11-10.31-0.04-20.62-0.05-30.93c0-0.15,0-0.31,0-0.46c0-2.28,0-2.28-2.19-2.66c-5.37-0.94-9.25-5.93-9.02-11.61
		c0.22-5.37,4.63-10.07,9.95-10.46c1.16-0.08,1.27-0.54,1.27-1.5c-0.03-10.52-0.03-21.03-0.01-31.55
		c0.01-5.67,3.23-10.08,8.26-11.49c1.74-0.49,3.09-0.32,4.6,0.93c12.49,10.28,25.92,19.07,41.03,25.09
		c11.86,4.73,24.14,7.29,36.96,7.2c13.32-0.09,26.65-0.02,39.97-0.02c7.67,0,12.92,4.24,14.57,11.73c0.02,0.08,0.14,0.13,0.21,0.19
C406.5,296.33,406.5,303.37,406.5,310.42z" />
		</svg>
	</symbol>

	<symbol id="home-dot">
		<svg viewBox="0 0 500 500">
			<path fill="#fff" d="M252.81,172.92c-23.28-23.89-46.56-47.77-69.84-71.66L49.64,219.96v160.16h100.18v-93.5h28.28
c1.66-12.78,5.46-30,14.57-48.51C210.71,201.43,238.86,181.45,252.81,172.92z" />
			<path fill="#fff" d="M269.97,158.98l-86.99-85.37L25.25,219.96c0,0-30.38,2.44-21.29-17.89L182.98,34.59l121.95,118.7L269.97,158.98
z" />
			<polygon fill="#fff" points="282.98,119.15 315.5,149.23 322,149.23 322,74.43 282.98,74.43 " />
			<circle fill-opacity="0" stroke="#fff" stroke-width="15" cx="332.72" cy="306.97" r="156.04" />

			<path fill="#fff" d="M332.47,180.62c-70.17,0-127.05,56.88-127.05,127.05s56.88,127.05,127.05,127.05s127.05-56.88,127.05-127.05
	S402.64,180.62,332.47,180.62z M255.46,333.23c-13.58,0-24.59-11.01-24.59-24.59c0-13.58,11.01-24.59,24.59-24.59
	c13.58,0,24.59,11.01,24.59,24.59C280.05,322.22,269.04,333.23,255.46,333.23z M329.52,332.56c-13.58,0-24.59-11.01-24.59-24.59
	c0-13.58,11.01-24.59,24.59-24.59s24.59,11.01,24.59,24.59C354.11,321.55,343.1,332.56,329.52,332.56z M407.46,331.23
	c-13.58,0-24.59-11.01-24.59-24.59c0-13.58,11.01-24.59,24.59-24.59c13.58,0,24.59,11.01,24.59,24.59
C432.05,320.22,421.04,331.23,407.46,331.23z" />
		</svg>

	</symbol>

	<symbol id="home-lock">
		<svg viewBox="0 0 500 500">
			<path fill="#fff" d="M252.81,172.92c-23.28-23.89-46.56-47.77-69.84-71.66L49.64,219.96v160.16h100.18v-93.5h28.28
c1.66-12.78,5.46-30,14.57-48.51C210.71,201.43,238.86,181.45,252.81,172.92z" />
			<path fill="#fff" d="M269.97,158.98l-86.99-85.37L25.25,219.96c0,0-30.38,2.44-21.29-17.89L182.98,34.59l121.95,118.7L269.97,158.98
z" />
			<polygon fill="#fff" points="282.98,119.15 315.5,149.23 322,149.23 322,74.43 282.98,74.43 " />
			<circle fill-opacity="0" stroke="#fff" stroke-width="15" cx="332.53" cy="306.96" r="156.04" />
			<path fill="#fff" d="M342.71,320.25c-1.05-4.57-4.72-7.58-9.5-7.97c-4.18-0.35-8.39,2.31-10.09,6.35
		c-1.76,4.18-0.66,8.74,2.89,11.84c0.42,0.36,0.53,0.69,0.46,1.24c-0.53,4.49-1.03,8.99-1.52,13.49c-0.23,2.1,0.84,3.29,2.98,3.32
		c1.58,0.02,3.15,0,4.73,0c1.62,0,3.23,0.03,4.85-0.01c2.05-0.04,3.1-1.26,2.88-3.3c-0.48-4.42-0.96-8.84-1.49-13.25
c-0.09-0.72,0.05-1.14,0.6-1.64C342.48,327.61,343.62,324.2,342.71,320.25z" />
			<path fill="#fff" d="M353.3,280.2c-0.33-10.62-9.36-19.5-19.99-19.72c-11.83-0.24-21.21,8.84-21.35,20.69
		c-0.04,3.11,0.03,6.23-0.03,9.34c-0.02,0.87,0.23,1.05,1.07,1.05c6.55-0.04,13.1-0.02,19.65-0.02s13.1-0.02,19.65,0.02
c0.85,0,1.07-0.2,1.06-1.06C353.31,287.07,353.41,283.63,353.3,280.2z" />
			<path fill="#fff" d="M332.53,179.28c-70.52,0-127.68,57.16-127.68,127.68s57.16,127.68,127.68,127.68s127.68-57.16,127.68-127.68
		S403.05,179.28,332.53,179.28z M379.62,318.9c0,13.15,0.01,26.29,0,39.44c0,4.64-2.08,8.03-6.18,10.21
		c-1.01,0.54-2.12,0.39-3.16,0.68c-25.16,0-50.32,0-75.49,0c-5.86-1.12-9.1-5.07-9.1-11.12c0-20.75,0-41.5,0-62.25
		c0-0.32,0-0.65,0-0.97c0.05-2.58,1.13-3.65,3.75-3.69c1.74-0.02,3.48,0.01,5.22-0.01c1.35-0.01,1.46-0.12,1.46-1.45
		c0.01-3.16-0.05-6.31,0.01-9.47c0.19-9.4,3.63-17.48,10.06-24.29c5.23-5.55,11.64-9.06,19.09-10.63c3.31-0.69,6.68-0.61,10.03-0.5
		c7.95,0.27,14.88,3.29,20.88,8.36c7.22,6.09,11.47,13.91,12.73,23.3c0.55,4.06,0.14,8.16,0.25,12.24c0.01,0.32,0,0.65,0,0.97
		c0.03,1.34,0.12,1.45,1.46,1.46c1.78,0.02,3.56-0.02,5.34,0.01c2.51,0.05,3.62,1.15,3.63,3.68
C379.64,302.88,379.62,310.89,379.62,318.9z" />
		</svg>
	</symbol>

	<symbol id="arrow-right-up">
		<svg viewBox="0 0 224 224">
			<path d="M163.165 68.1715C158.401 64.4813 151.736 65.6104 148.266 70.6776L98.7236 143.16L71.4324 113.611C67.4117 109.039 60.6646 108.819 56.3685 113.115C52.0724 117.384 51.8521 124.572 55.9004 129.115C55.9004 129.115 89.0574 165.908 93.8217 169.598C98.5859 173.288 105.25 172.159 108.72 167.092L165.533 84.0065C169.003 78.9117 167.929 71.8342 163.165 68.1715Z" fill="var(--theme-sub-heading-color)"/>
			<circle cx="112" cy="112" r="95" stroke-width="8"/>
			<circle cx="112" cy="112" r="108" stroke-width="8"/>
		</svg>
	</symbol>
</svg>