<svg width="697" height="596" viewBox="0 0 697 596" fill="none" xmlns="http://www.w3.org/2000/svg">
<path d="M188.226 1.29999C167.693 4.76666 151.56 16.2333 143.96 32.6333C141.426 38.2333 140.893 41.4333 141.16 48.1L141.56 56.5L147.026 56.9C160.36 57.8333 179.026 45.1667 188.226 28.5C193.293 19.4333 199.826 1.83332 198.493 0.633322C197.693 -0.300011 197.293 -0.300011 188.226 1.29999Z" fill="#B0934C" />
<path d="M107.026 9.43339C99.9598 17.5667 92.7598 30.6334 89.6931 41.0334C86.4931 51.7001 86.8931 71.1667 90.2265 80.3667C93.4265 88.7667 100.093 98.5001 102.76 98.5001C105.426 98.5001 112.76 89.7001 115.693 82.7667C119.826 73.1667 121.026 65.5667 121.026 49.1667C121.026 33.9667 117.026 6.10006 114.493 3.56672C113.693 2.76672 110.76 5.16672 107.026 9.43339Z" fill="#B0934C" />
<path d="M58.6263 74.1C50.3597 87.4333 48.2263 95.9667 48.2263 115.3C48.2263 132.633 48.2263 132.633 53.1597 142.633C56.3597 149.033 60.7597 155.167 65.5597 159.833L73.0263 167.167L75.5597 164.1C83.9596 153.967 85.8263 134.233 80.3596 112.9C77.0263 99.8334 67.5597 74.1 64.493 69.9667C62.7597 67.7 62.3597 67.9667 58.6263 74.1Z" fill="#B0934C" />
<path d="M160.226 74.6335C139.026 77.3002 122.226 89.8335 120.626 104.5C120.093 109.167 122.76 110.233 136.493 110.367C153.96 110.633 170.626 105.033 184.626 94.2335C190.893 89.3002 198.226 80.9002 198.226 78.3668C198.226 75.7002 171.96 73.1668 160.226 74.6335Z" fill="#B0934C" />
<path d="M112.893 98.6334C101.426 117.3 86.493 151.433 79.1597 175.833C68.893 209.7 65.5597 234.233 65.5597 275.833C65.693 309.833 67.1597 325.567 73.1597 353.033C86.7597 416.367 122.493 479.567 171.026 526.5C194.093 548.767 210.226 561.167 236.226 576.5C248.226 583.567 269.56 594.5 271.426 594.5C273.16 594.5 275.96 586.9 274.893 585.167C274.36 584.367 268.093 580.767 260.893 577.167C225.026 559.167 197.56 539.033 170.226 511.033C151.293 491.567 143.026 481.433 128.093 459.033C97.0264 412.5 78.7597 361.433 72.7597 303.833C70.7597 284.767 71.9597 233.3 74.7597 215.567C80.7597 178.633 93.4264 140.233 110.36 107.967C116.76 95.7 118.493 89.8334 112.893 98.6334Z" fill="#B0934C" />
<path d="M145.56 127.833C127.16 129.433 114.76 134.233 103.96 144.233C96.7597 150.767 93.0264 158.367 92.8931 165.967C92.8931 172.767 94.4931 173.433 107.293 171.833C124.226 169.7 140.76 161.167 153.16 148.233C159.56 141.433 167.293 129.7 165.96 128.5C164.76 127.3 155.026 126.9 145.56 127.833Z" fill="#B0934C" />
<path d="M22.8931 149.033C18.2264 163.433 18.0931 186.5 22.7597 201.967C25.4264 210.5 33.5597 223.033 40.6264 229.433C46.8931 235.167 56.3597 240.367 58.7597 239.433C61.2931 238.5 63.5597 229.033 63.5597 219.833C63.5597 207.967 60.4931 197.167 52.2264 180.5C45.1597 166.367 28.8931 142.5 26.3597 142.5C25.6931 142.5 24.0931 145.433 22.8931 149.033Z" fill="#B0934C" />
<path d="M126.626 184.5C105.426 189.167 83.2931 206.5 78.7597 222.1C77.1597 227.833 76.8931 231.3 77.6931 235.833C78.8931 241.567 79.1597 241.833 82.8931 241.433C89.0264 240.633 101.826 235.033 111.16 229.033C126.76 218.767 140.36 201.3 143.56 187.167L144.626 182.5L139.693 182.633C137.026 182.633 131.16 183.567 126.626 184.5Z" fill="#B0934C" />
<path d="M3.55969 238.767C3.55969 264.1 10.2264 283.167 24.3597 298.5C32.2264 306.9 46.093 314.9 55.693 316.633L60.493 317.433L61.4264 311.567C64.093 293.567 48.2264 262.767 24.6264 240.5C13.0264 229.433 6.35969 223.833 4.89303 223.833C4.09303 223.833 3.55969 230.1 3.55969 238.767Z" fill="#B0934C" />
<path d="M123.293 243.033C96.7596 254.633 83.0263 268.233 77.5596 288.5C75.4263 296.233 75.293 298.633 76.6263 304.9C77.4263 309.033 78.7596 312.9 79.4263 313.567C81.1596 315.3 92.893 309.167 101.693 301.967C115.96 290.367 128.626 272.767 132.893 258.767C135.56 250.367 136.493 238.5 134.626 238.5C133.96 238.5 128.893 240.5 123.293 243.033Z" fill="#B0934C" />
<path d="M130.493 301.833C112.36 312.233 96.8931 329.7 90.8931 346.633C87.8264 355.167 88.0931 367.567 91.6931 375.7C93.2931 379.433 95.4264 382.5 96.4931 382.5C100.226 382.5 110.626 373.833 117.826 364.633C129.96 349.033 139.426 325.967 139.56 311.7C139.56 305.7 138.226 298.5 137.026 298.5C136.626 298.5 133.693 299.967 130.493 301.833Z" fill="#B0934C" />
<path d="M0.226401 312.1C-1.10693 315.567 3.69307 334.9 8.2264 344.767C18.8931 367.833 34.3597 382.633 54.0931 388.367C61.0264 390.367 75.6931 391.3 77.1597 389.833C78.6264 388.367 75.1597 375.033 71.2931 367.3C63.5597 351.833 38.8931 330.767 11.2931 315.833C3.15973 311.567 0.759734 310.633 0.226401 312.1Z" fill="#B0934C" />
<path d="M139.293 364.233C128.893 374.633 122.76 383.967 117.16 397.433C114.226 404.233 113.56 407.967 113.56 417.167C113.56 427.167 113.96 429.3 117.426 435.433C124.093 447.567 124.76 447.833 132.626 439.167C141.026 429.967 149.293 413.567 153.026 398.5C155.426 389.167 155.826 384.633 155.16 373.167C154.493 357.967 153.56 354.5 150.76 354.5C149.693 354.5 144.493 358.9 139.293 364.233Z" fill="#B0934C" />
<path d="M14.2263 398.367C14.2263 399.7 16.893 406.367 20.2263 413.033C28.893 430.233 43.5596 445.167 59.9596 453.167C70.3596 458.367 72.893 459.033 82.893 459.567C94.493 460.233 104.226 459.3 107.426 457.3C108.893 456.367 108.626 454.9 105.96 449.033C104.093 445.033 100.76 439.567 98.3596 436.633C87.9596 423.7 64.493 410.5 36.893 402.1C15.0263 395.433 14.2263 395.3 14.2263 398.367Z" fill="#B0934C" />
<path d="M167.826 412.767C154.626 430.767 148.893 446.233 148.893 463.833C148.893 478.233 151.693 486.233 159.293 494.633C163.426 499.167 166.493 501.3 167.693 500.9C170.76 499.7 179.026 483.033 182.093 471.833C185.826 458.767 186.893 443.033 185.026 430.233C183.56 419.433 178.493 405.033 175.96 404.233C175.16 403.967 171.56 407.833 167.826 412.767Z" fill="#B0934C" />
<path d="M203.56 457.3C195.96 473.433 193.693 483.167 193.693 500.5C193.56 517.167 195.026 523.567 201.293 532.633C205.026 538.233 216.76 547.833 219.96 547.833C221.426 547.833 225.426 537.967 227.693 529.167C230.36 517.967 229.693 493.433 226.36 480.5C223.16 468.5 215.693 452.233 211.693 448.633C209.026 446.1 208.893 446.233 203.56 457.3Z" fill="#B0934C" />
<path d="M50.4931 475.567L43.2931 475.967L45.6931 479.567C59.1598 500.767 79.9598 516.633 102.76 523.167C114.36 526.5 132.093 525.433 143.96 520.633C148.893 518.5 152.893 516.1 152.893 515.033C152.893 514.1 149.16 509.3 144.76 504.5C133.96 493.033 118.493 485.167 97.5598 480.5C81.6931 477.033 61.8264 474.9 50.4931 475.567Z" fill="#B0934C" />
<path d="M124.226 542.367C106.36 544.1 90.2263 546.9 90.2263 548.1C90.2263 549.967 101.96 560.633 109.96 565.967C133.16 581.567 160.893 586.9 182.893 580.1C192.093 577.3 208.893 567.7 208.893 565.3C208.893 563.167 197.693 553.833 191.56 550.767C176.36 543.433 148.76 539.967 124.226 542.367Z" fill="#B0934C" />
<path d="M498.227 2.63343C498.227 4.1001 500.093 9.96677 502.493 15.5668C512.627 40.2334 526.36 53.5668 545.027 56.9001C555.027 58.7668 555.96 57.7001 555.293 45.8334C554.76 35.1668 552.227 29.1668 544.76 20.6334C535.16 9.83343 521.427 3.03343 503.96 0.633432C498.76 -0.166568 498.227 0.100099 498.227 2.63343Z" fill="#B0934C" />
<path d="M581.96 3.30015C581.56 3.96681 580.093 9.83348 578.76 16.5001C575.427 32.7668 575.293 65.3001 578.493 75.8335C581.16 84.3668 587.56 94.6335 592.093 97.7001C595.293 99.7001 595.427 99.5668 599.56 93.1668C607.027 81.5668 609.293 73.8335 609.427 60.5001C609.427 46.9001 606.893 36.7668 600.627 24.9001C596.093 16.3668 583.16 1.30015 581.96 3.30015Z" fill="#B0934C" />
<path d="M628.493 78.1001C613.16 111.033 609.16 141.433 618.093 158.767C619.96 162.633 622.226 165.967 623.16 166.233C625.693 166.9 639.16 152.233 642.893 144.767C650.626 128.9 651.693 110.633 645.96 91.8335C643.293 83.3001 635.693 67.8335 634.093 67.8335C633.693 67.8335 631.16 72.5001 628.493 78.1001Z" fill="#B0934C" />
<path d="M513.56 74.6335C509.16 75.1668 503.827 76.2335 501.827 77.0335C498.627 78.3668 498.36 78.7668 499.693 81.3001C505.027 91.3001 525.427 104.5 542.227 108.633C551.427 110.9 573.16 110.767 575.427 108.367C576.093 107.7 575.96 104.5 574.893 100.767C573.027 93.5668 565.827 85.1668 558.227 81.1668C547.027 75.4335 529.16 72.7668 513.56 74.6335Z" fill="#B0934C" />
<path d="M586.893 109.033C610.893 157.833 621.96 198.633 624.76 249.033C630.493 350.5 594.493 443.7 521.96 515.433C496.36 540.767 471.56 558.767 438.36 575.7L419.826 585.3L421.826 590.233C422.893 592.9 423.96 595.3 424.226 595.567C424.76 596.233 448.626 583.3 465.293 573.567C508.893 547.7 549.426 507.7 578.493 461.567C614.36 404.9 631.56 344.233 631.56 275.167C631.56 227.3 624.226 188.767 606.893 146.367C599.693 128.633 587.426 104.233 583.693 99.8334C581.96 97.8334 583.16 101.3 586.893 109.033Z" fill="#B0934C" />
<path d="M532.627 127.3C529.427 128.233 529.56 128.767 535.027 137.167C541.693 147.433 546.893 152.633 556.893 159.167C569.293 167.167 579.427 170.633 593.293 171.567C606.627 172.367 606.493 172.5 602.76 159.967C598.76 146.233 584.36 135.167 563.827 129.833C555.16 127.7 536.627 126.1 532.627 127.3Z" fill="#B0934C" />
<path d="M661.293 153.3C639.826 182.233 629.026 213.033 634.093 231.167C636.626 240.5 637.293 240.9 644.226 237.433C667.56 226.1 680.893 196.5 676.893 164.633C675.426 152.633 672.893 143.567 670.626 142.9C669.96 142.633 665.693 147.3 661.293 153.3Z" fill="#B0934C" />
<path d="M552.36 185.967C557.693 208.9 589.16 237.7 611.826 240.633L618.093 241.567L618.893 236.767C619.96 231.433 617.96 220.367 614.893 214.5C607.026 199.3 582.093 185.033 560.093 182.9L551.426 182.1L552.36 185.967Z" fill="#B0934C" />
<path d="M680.227 232.767C660.627 250.1 646.093 269.3 639.293 286.367C635.693 295.7 634.227 317.167 637.16 317.167C641.027 317.167 653.693 312.767 659.16 309.567C671.827 302.233 683.96 285.433 689.693 267.3C693.293 255.567 695.16 235.7 693.293 227.3L692.227 222.233L680.227 232.767Z" fill="#B0934C" />
<path d="M560.893 242.233C560.893 243.7 562.093 249.433 563.56 255.167C569.426 278.233 587.16 300.233 608.626 311.033C612.493 313.033 616.226 314.233 616.893 313.833C617.56 313.433 618.76 309.967 619.693 305.967C624.76 282.9 606.36 256.9 575.56 243.7C564.76 239.167 560.893 238.767 560.893 242.233Z" fill="#B0934C" />
<path d="M558.227 309.167C558.227 327.967 565.16 347.033 578.36 364.5C583.693 371.567 596.893 382.5 600.093 382.5C602.36 382.5 605.693 376.1 607.427 368.367C611.427 351.3 600.093 328.1 579.427 310.9C573.293 305.833 561.16 298.5 558.893 298.5C558.493 298.5 558.227 303.3 558.227 309.167Z" fill="#B0934C" />
<path d="M682.093 317.7C644.093 339.433 622.093 362.633 619.96 383.3L619.16 390.5H627.293C656.093 390.5 681.426 368.5 692.893 333.433C697.56 318.9 698.093 311.833 694.626 311.833C693.293 311.833 687.693 314.5 682.093 317.7Z" fill="#B0934C" />
<path d="M543.293 358.1C540.76 365.567 541.16 390.367 544.093 401.167C547.827 414.9 556.093 430.9 563.96 439.3L571.027 446.9L575.027 441.7C583.56 430.9 585.427 419.567 581.56 404.5C577.293 388.1 565.693 370.367 551.827 358.767L545.16 353.167L543.293 358.1Z" fill="#B0934C" />
<path d="M670.226 398.633C658.226 401.967 637.293 409.567 628.226 414.233C610.76 423.033 595.16 437.3 590.893 448.367C588.093 455.7 588.76 457.833 594.226 459.033C601.026 460.367 618.36 459.967 624.226 458.367C637.826 454.767 654.626 443.433 664.493 431.567C674.226 419.7 685.56 395.567 681.293 395.967C680.626 395.967 675.693 397.167 670.226 398.633Z" fill="#B0934C" />
<path d="M517.426 408.5C511.026 423.967 509.426 448.5 513.693 468.1C516.36 480.233 525.693 500.233 529.16 500.9C531.96 501.433 540.093 493.3 543.826 486.1C545.96 481.833 546.893 477.433 547.293 467.967C547.96 452.9 546.226 443.833 540.093 431.167C535.293 421.033 523.16 403.833 520.893 403.833C520.093 403.833 518.493 405.967 517.426 408.5Z" fill="#B0934C" />
<path d="M483.826 449.833C478.893 455.967 472.893 470.233 470.093 482.233C466.36 497.833 467.026 525.7 471.426 537.833C473.026 542.233 474.76 546.233 475.426 546.9C477.026 548.5 486.093 543.567 491.16 538.233C493.56 535.833 497.16 530.233 499.16 525.833C502.626 518.367 502.893 516.633 502.893 501.167C502.893 482.767 500.493 472.1 492.626 456.5C487.426 445.967 487.026 445.7 483.826 449.833Z" fill="#B0934C" />
<path d="M634.226 475.433C599.826 477.833 570.76 486.9 556.626 499.567C551.16 504.5 543.56 513.967 543.56 515.833C543.56 516.5 547.56 518.5 552.626 520.5C564.493 525.433 582.093 526.5 593.693 523.167C604.093 520.233 617.826 513.167 627.16 506.233C634.626 500.633 645.96 487.833 650.626 480.1L652.893 476.1L645.96 475.567C642.093 475.433 636.76 475.3 634.226 475.433Z" fill="#B0934C" />
<path d="M534.626 542.5C516.093 544.9 499.026 552.233 490.226 561.833L486.893 565.433L490.893 568.633C497.56 574.233 510.093 579.967 520.093 582.1C537.426 585.7 556.76 582.1 577.56 571.433C589.426 565.167 607.693 549.3 604.626 547.7C597.026 543.567 552.36 540.367 534.626 542.5Z" fill="#B0934C" />

</svg>
