<?xml version="1.0" encoding="UTF-8"?>
<svg id="Layer_2"
	xmlns="http://www.w3.org/2000/svg"
	xmlns:xlink="http://www.w3.org/1999/xlink" viewBox="0 0 555.47 294.53">
	<defs>
		<style>.cls-1,.cls-2{fill:none;}.cls-3{clip-path:url(#clippath);}.cls-4{fill:#b1924e;}.cls-5{fill:#0f1132;}.cls-2{stroke:#fff;stroke-width:2px;}.cls-6{clip-path:url(#clippath-1);}.cls-7{fill:#fff;font-family:Futura-Bold, Futura;font-size:89.03px;}.cls-8{letter-spacing:.01em;}</style>
		<clipPath id="clippath">
			<rect class="cls-1" width="555.47" height="294.53" />
		</clipPath>
		<clipPath id="clippath-1">
			<rect class="cls-1" width="555.47" height="294.53" />
		</clipPath>
	</defs>
	<g id="Layer_1-2">
		<g class="cls-3">
			<path class="cls-5" d="M147.1,294.52v-108.25h-43.35c-.51-6.01-1.02-10.79,3.87-15.64C163.46,115.26,219.01,59.61,274.61,4c.97-.97,1.62-2.24,2.87-4.01,22.19,22.31,43.62,43.86,65.63,65.98V12.08h43.54v4.85c0,29.66,.03,59.33-.07,88.99,0,2.7,.77,4.56,2.7,6.47,18.9,18.75,37.5,37.8,56.66,56.29,5.15,4.98,7.26,9.96,5.46,17.25h-42.94v108.6h-108.73v-64.72h-43.67v64.71h-108.95Z" />
		</g>
		<rect class="cls-4" x="9.62" y="84.34" width="536.23" height="127.7" transform="translate(-11.86 24.77) rotate(-5)" />
		<g class="cls-6">
			<rect class="cls-2" x="9.62" y="84.34" width="536.23" height="127.7" transform="translate(-11.86 24.77) rotate(-5)" />
		</g>
		<text class="cls-7" transform="translate(54.26 200.59) rotate(-5)">
			<tspan x="0" y="0">PENDI</tspan>
			<tspan class="cls-8" x="293.69" y="0">N</tspan>
			<tspan x="375.95" y="0">G</tspan>
		</text>
	</g>
</svg>