<?xml version="1.0" encoding="utf-8"?>
<!-- Generator: Adobe Illustrator 13.0.0, SVG Export Plug-In  -->
<!DOCTYPE svg PUBLIC "-//W3C//DTD SVG 1.1//EN" "http://www.w3.org/Graphics/SVG/1.1/DTD/svg11.dtd" [
	<!ENTITY ns_flows "http://ns.adobe.com/Flows/1.0/">
]>
<svg version="1.1"
	 xmlns="http://www.w3.org/2000/svg" xmlns:xlink="http://www.w3.org/1999/xlink" xmlns:a="http://ns.adobe.com/AdobeSVGViewerExtensions/3.0/"
	 x="0px" y="0px" width="110px" height="70px" viewBox="0.667 0.5 110 70" enable-background="new 0.667 0.5 110 70"
	 xml:space="preserve">
<defs>
</defs>
<g>
	<g>
		<path fill="#FFFFFF" d="M105.333,0.5H5.5c-2.75,0-5,2.25-5,5v38.333c0,2.75,2.25,5,5,5h38.733l10.101,20.834l12.152-20.834h38.848
c2.75,0,5-2.25,5-5V5.5C110.333,2.75,108.083,0.5,105.333,0.5z" />
	</g>
	<g>
		<path fill="none" stroke="#000000" d="M105.333,0.5H5.5c-2.75,0-5,2.25-5,5v38.333c0,2.75,2.25,5,5,5h38.733l10.101,20.834
l12.152-20.834h38.848c2.75,0,5-2.25,5-5V5.5C110.333,2.75,108.083,0.5,105.333,0.5z" />
	</g>
</g>
</svg>
