<?xml version="1.0" encoding="UTF-8"?><svg id="Layer_2" xmlns="http://www.w3.org/2000/svg" xmlns:xlink="http://www.w3.org/1999/xlink" viewBox="0 0 437.95 332.07"><defs><style>.cls-1,.cls-2{fill:none;}.cls-3{clip-path:url(#clippath);}.cls-4{fill:#fff;font-family:Futura-Bold, Futura;font-size:100.37px;}.cls-5{fill:#d2232a;}.cls-6{fill:#0f1132;}.cls-2{stroke:#fff;stroke-width:2px;}.cls-7{clip-path:url(#clippath-1);}</style><clipPath id="clippath"><rect class="cls-1" width="437.95" height="332.07"/></clipPath><clipPath id="clippath-1"><rect class="cls-1" width="437.95" height="332.07"/></clipPath></defs><g id="Layer_1-2"><g class="cls-3"><path class="cls-6" d="M70.6,332.06v-122.04H21.72c-.57-6.78-1.15-12.17,4.37-17.63C89.04,129.95,151.67,67.2,214.35,4.51c1.09-1.09,1.83-2.53,3.23-4.52,25.02,25.16,49.18,49.45,73.99,74.39V13.61h49.09v5.47c0,33.44,.03,66.89-.07,100.33-.01,3.04,.87,5.14,3.04,7.3,21.31,21.14,42.28,42.62,63.88,63.46,5.81,5.61,8.18,11.23,6.15,19.45h-48.41v122.44h-122.59v-72.96h-49.23v72.95H70.6Z"/></g><rect class="cls-5" x="11.21" y="95.09" width="415.54" height="143.97" transform="translate(-13.73 19.72) rotate(-5)"/><g class="cls-7"><rect class="cls-2" x="11.21" y="95.09" width="415.54" height="143.97" transform="translate(-13.73 19.72) rotate(-5)"/></g><text class="cls-4" transform="translate(77.76 216.47) rotate(-5)"><tspan x="0" y="0">SOLD</tspan></text></g></svg>