<svg xmlns="http://www.w3.org/2000/svg" viewBox="0.5 -11.5 500 500">
<polygon fill="#3B4652" points="285.745,192.496 285.745,227.518 252.69,251.204 252.69,192.496 " />

	<path fill="#3B4652" d="M202.417,192.496c0,19.836,0,39.288,0,58.934c11.233,0,22.15,0,33.048,0c0-19.889,0-39.348,0-58.934
C224.368,192.496,213.641,192.496,202.417,192.496z" />
	<path fill="#3B4652" d="M81.922,39.599h41.148c5.985,0,10.841,4.853,10.841,10.839v25.153c4.891-3.357,7.597-5.039,10.072-6.944
	c26.828-20.619,53.626-41.269,80.419-61.921c12.214-9.413,26.092-8.977,39.771,1.507c38.549,29.532,77.045,59.116,115.548,88.694
	c31.211,23.977,62.364,48.011,93.625,71.938c8.399,6.43,13.699,13.933,11.672,23.991c-3.918,19.439-28.821,26.51-46.864,12.963
	c-26.807-20.127-53.162-40.709-79.702-61.104c-34.997-26.896-70.188-53.605-104.82-80.854c-7.559-5.945-12.09-6.282-19.98-0.17
	c-61.029,47.274-122.483,94.141-183.94,141c-4.288,3.27-9.282,6.436-14.589,7.978c-12.027,3.494-25.079-1.277-31.354-10.411
	c-6.566-9.563-4.498-22.375,5.789-30.476c17.886-14.084,36.444-27.532,54.046-41.872c3.921-3.193,6.998-8.937,7.138-13.581
c0.606-20.691,0.407-41.395,0.345-65.871C71.066,44.459,75.925,39.599,81.922,39.599z" />
	<path fill="#3B4652" d="M451.009,443.937c0.079-0.787,0.157-1.574,0.157-2.361v-69.568c-11.647,1.182-23.297,2.281-34.941,3.465
	v66.104c0,0.787,0.078,1.574,0.157,2.361h-216.34c0.787-0.63,1.181-1.653,1.181-3.463c-0.158-19.36-0.079-38.722-0.079-58.158
	c0-17.628,0-35.335-0.079-53.042c0-3.463-0.155-6.925-0.708-10.311c-4.249-26.128-31.164-43.757-56.817-37.382
	c-21.956,5.51-36.83,25.026-36.83,48.792c-0.079,36.598,0,73.189,0,109.862c0,2.046,0,3.148,0.472,3.699H69.01
	c0.158-0.787,0.236-1.574,0.236-2.361V313.297c0,0,0,0,0.079,0V273.16c0-5.509,2.597-10.781,7.158-14.087l4.328-3.146
	l151.651-109.862c6.139-4.407,14.402-4.407,20.54,0l72.874,52.806l0.551-0.393c0-0.079-0.079-0.158-0.079-0.236
	c0.079-13.457,9.68-24.317,22.586-26.206L243.326,94.99l-0.633,0.473l-0.629-0.473L50.753,234.442l-16.527,12.041v195.091
c0,0.787,0.079,1.574,0.236,2.361h-17.55v30.22h451.564v-30.22L451.009,443.937L451.009,443.937z" />
	<path fill="#69953D" d="M353.32,179.534c-10.789-0.049-19.017,8.079-19.063,18.771c-0.052,10.641,8.178,18.918,18.918,19.017
	c10.592,0.1,19.017-8.227,19.063-18.82C372.238,187.812,364.061,179.583,353.32,179.534z M353.222,208.602
	c-5.813-0.049-10.247-4.483-10.247-10.247c0.049-5.766,4.481-10.149,10.297-10.149c5.813,0.05,10.247,4.483,10.247,10.247
C363.47,204.167,358.937,208.699,353.222,208.602z" />
	<path fill="#69953D" d="M442.629,229.762l-31.49,2.922c-0.021,0-0.021,0-0.021,0c-3.55-1.186-7.045-3.291-10.503-4.789
c-9.412-4.105-18.768-8.396-27.791-12.444c1.926-5.011,3.606-9.449,5.566-14.552C399.581,210.42,421.105,220.09,442.629,229.762z" />
	<path fill="#69953D" d="M273.106,246.273c18.604-13.295,37.222-26.59,56.045-40.051c2.922,4.382,5.658,8.506,8.672,13.034
c-11.39,8.101-22.596,16.588-34.374,24.188L273.106,246.273z" />
	<path fill="#69953D" d="M500.548,316.783c1.759,17.584-11.071,33.267-28.656,35.025l-211.607,21.17
	c-17.585,1.759-33.27-11.071-35.026-28.656l-5.176-51.742c-1.761-17.584,11.069-33.267,28.653-35.023l211.61-21.169
c17.586-1.762,33.268,11.068,35.025,28.653L500.548,316.783z" />
	<g>
		<path fill="#FFFFFF" d="M280.232,337.357l-11.51,1.152l-5.768-11.445l-20.947,2.099l-3.133,12.336l-11.224,1.124l15.162-54.447
l11.188-1.121L280.232,337.357z M258.675,318.576l-9.168-18.723l-5.13,20.154L258.675,318.576z" />
		<path fill="#FFFFFF" d="M317.444,314.169l10.584,2.227c-1,5.876-3.189,10.386-6.569,13.529c-3.381,3.142-7.882,4.995-13.506,5.559
		c-6.958,0.696-12.916-1.108-17.872-5.413c-4.957-4.306-7.847-10.581-8.673-18.825c-0.873-8.723,0.7-15.722,4.721-20.998
		c4.021-5.278,9.7-8.284,17.041-9.019c6.409-0.643,11.807,0.73,16.189,4.119c2.606,2.001,4.717,5.04,6.328,9.114l-10.223,3.551
		c-0.893-2.655-2.399-4.67-4.523-6.046c-2.123-1.376-4.591-1.924-7.402-1.642c-3.885,0.389-6.896,2.099-9.036,5.129
		c-2.14,3.031-2.896,7.668-2.271,13.911c0.663,6.626,2.327,11.225,4.993,13.798c2.664,2.573,5.902,3.67,9.716,3.288
c2.812-0.282,5.141-1.419,6.987-3.409S316.946,318.096,317.444,314.169z" />
		<path fill="#FFFFFF" d="M350.508,330.318l-4.36-43.538l-15.549,1.558l-0.888-8.865l41.644-4.171l0.888,8.865l-15.514,1.554
l4.36,43.538L350.508,330.318z" />
<path fill="#FFFFFF" d="M383.107,327.053l-5.248-52.402l10.581-1.061l5.248,52.403L383.107,327.053z" />

		<path fill="#FFFFFF" d="M417.138,323.645l-23.979-50.527l11.475-1.148l17.146,37.455l8.949-40.069l11.224-1.124l-13.518,54.283
L417.138,323.645z" />
		<path fill="#FFFFFF" d="M452.597,320.094l-5.248-52.403l38.855-3.892l0.888,8.865l-28.274,2.831l1.163,11.617l26.309-2.635
l0.885,8.829l-26.309,2.635l1.429,14.263l29.275-2.932l0.884,8.829L452.597,320.094z" />
	</g>
</svg>
