<?xml version="1.0" encoding="utf-8"?>
<svg version="1.1"
	xmlns="http://www.w3.org/2000/svg" viewBox="0 0 500 500">
	<g>
		<path fill="#80ccf3" d="M123.57,92.19h-5.03c-7.16,0-12.96-5.8-12.96-12.96V38.6c0-7.16,5.8-12.96,12.96-12.96h5.03
		c7.16,0,12.96,5.8,12.96,12.96v40.63C136.53,86.39,130.73,92.19,123.57,92.19z"/>
		<path fill="#80ccf3" d="M381.45,92.19h-5.03c-7.16,0-12.96-5.8-12.96-12.96V38.6c0-7.16,5.8-12.96,12.96-12.96h5.03
		c7.16,0,12.96,5.8,12.96,12.96v40.63C394.41,86.39,388.61,92.19,381.45,92.19z"/>
		<path fill="#80ccf3" d="M445.2,71.95h-41.17v8.75c0,13.86-11.23,25.09-25.09,25.09c-13.86,0-25.09-11.23-25.09-25.09v-8.75h-207.7
		v8.72c0,13.86-11.23,25.09-25.09,25.09S95.97,94.52,95.97,80.66v-8.72H54.8c-12.93,0-23.42,10.49-23.42,23.42v355.57
		c0,12.93,10.49,23.42,23.42,23.42h390.4c12.93,0,23.42-10.49,23.42-23.42V95.37C468.62,82.43,458.13,71.95,445.2,71.95z
		 M158.74,360.87c0,4.76-3.86,8.62-8.62,8.62H94.57c-4.76,0-8.62-3.86-8.62-8.62v-61.68c0-4.76,3.86-8.62,8.62-8.62h55.56
		c4.76,0,8.62,3.86,8.62,8.62V360.87z M158.74,222.47c0,4.76-3.86,8.62-8.62,8.62H94.57c-4.76,0-8.62-3.86-8.62-8.62v-61.68
		c0-4.76,3.86-8.62,8.62-8.62h55.56c4.76,0,8.62,3.86,8.62,8.62V222.47z M286.4,360.87c0,4.76-3.86,8.62-8.62,8.62h-55.56
		c-4.76,0-8.62-3.86-8.62-8.62v-61.68c0-4.76,3.86-8.62,8.62-8.62h55.56c4.76,0,8.62,3.86,8.62,8.62V360.87z M286.4,222.47
		c0,4.76-3.86,8.62-8.62,8.62h-55.56c-4.76,0-8.62-3.86-8.62-8.62v-61.68c0-4.76,3.86-8.62,8.62-8.62h55.56
		c4.76,0,8.62,3.86,8.62,8.62V222.47z M414.05,360.87c0,4.76-3.86,8.62-8.62,8.62h-55.56c-4.76,0-8.62-3.86-8.62-8.62v-61.68
		c0-4.76,3.86-8.62,8.62-8.62h55.56c4.76,0,8.62,3.86,8.62,8.62V360.87z M414.05,222.47c0,4.76-3.86,8.62-8.62,8.62h-55.56
		c-4.76,0-8.62-3.86-8.62-8.62v-61.68c0-4.76,3.86-8.62,8.62-8.62h55.56c4.76,0,8.62,3.86,8.62,8.62V222.47z"/>
	</g>
</svg>
