<?xml version="1.0" encoding="utf-8"?>
<svg version="1.1"
	xmlns="http://www.w3.org/2000/svg" viewBox="0 0 500 500">
	<path fill="#80ccf3" d="M250,8.36C116.55,8.36,8.36,116.55,8.36,250S116.55,491.64,250,491.64S491.64,383.45,491.64,250
	S383.45,8.36,250,8.36z M354.85,355.89L354.85,355.89c-5.5,5.5-14.43,5.5-19.93,0l-72-72c-4.01,1.53-8.36,2.38-12.92,2.38
	c-20.03,0-36.27-16.24-36.27-36.27c0-15.13,9.26-28.08,22.42-33.52V95.52c0-7.78,6.31-14.09,14.09-14.09
	c7.78,0,14.09,6.31,14.09,14.09v121.16c12.89,5.56,21.92,18.38,21.92,33.31c0,5.12-1.07,9.99-2.98,14.4l71.56,71.56
	C360.35,341.46,360.35,350.39,354.85,355.89z"/>
</svg>
