<svg width="384" height="283" viewBox="0 0 384 283" fill="none" xmlns="http://www.w3.org/2000/svg">
<g opacity="0.4" filter="url(#filter0_f_915:23)">
<ellipse cx="86" cy="262" rx="62" ry="13" fill="#B8FFC3" />

</g>
<g opacity="0.8" filter="url(#filter1_f_915:23)">
<ellipse cx="86" cy="259" rx="40" ry="8" fill="#D7D7D7" />

</g>
<g opacity="0.4" filter="url(#filter2_f_915:23)">
<ellipse cx="298" cy="262" rx="62" ry="13" fill="#B8FFC3" />

</g>
<g opacity="0.8" filter="url(#filter3_f_915:23)">
<ellipse cx="298" cy="259" rx="40" ry="8" fill="#D7D7D7" />

</g>
<path d="M4.88074 115C19.6807 46.2 51.0474 14.3333 64.8808 6.99999C83.6808 -3.40001 98.8807 2.48362 105.381 6C135.881 22.5 156.381 72.5 163.381 98C181.381 168.4 164.881 212.667 154.381 226C131.581 257.2 85.2141 257.333 64.8808 253.5C39.2808 248.3 24.3806 235.902 17.3807 226C-3.11945 197 -0.619259 140.333 4.88074 115Z" fill="#475A45" stroke="#475A45" />
<path d="M14.2882 116.389C27.3624 55.7333 55.0714 27.639 67.2916 21.1738C83.8994 12.005 97.3269 17.1921 103.069 20.2922C130.012 34.8389 148.122 78.9198 154.306 101.401C170.207 163.467 155.631 202.493 146.355 214.248C126.214 241.755 85.2539 241.872 67.2916 238.493C44.6769 233.908 28.8641 219.538 25.3305 214.248C5.60162 184.714 9.42952 138.723 14.2882 116.389Z" fill="#DEE9A0" />
<circle cx="84.3806" cy="145" r="49" fill="#91602A" />
<path d="M83.3805 175.5L68.8805 160L56.8806 146C52.4806 141.6 50.7139 145.167 50.3805 147.5C49.9805 175.9 70.8805 183.667 81.3805 184C88.5805 183.2 85.7139 178 83.3805 175.5Z" fill="#EAF3D7" stroke="#EAF3D7" />
<path d="M216.881 115C231.681 46.2 263.047 14.3333 276.881 6.99999C295.681 -3.40001 310.881 2.48362 317.381 6C347.881 22.5 368.381 72.5 375.381 98C393.381 168.4 376.881 212.667 366.381 226C343.581 257.2 297.214 257.333 276.881 253.5C251.281 248.3 236.381 235.902 229.381 226C208.881 197 211.381 140.333 216.881 115Z" fill="#272E1A" />
<path d="M228.908 116.389C241.982 55.7333 269.691 27.639 281.911 21.1738C298.519 12.005 311.946 17.1921 317.688 20.2922C344.632 34.8389 362.741 78.9198 368.925 101.401C384.826 163.467 370.25 202.493 360.975 214.248C340.833 241.755 299.873 241.872 281.911 238.493C259.296 233.908 243.483 219.538 239.95 214.248C220.221 184.714 224.049 138.723 228.908 116.389Z" fill="#9F9C62" />

<mask id="mask0_915:23" style="mask-type:alpha" maskUnits="userSpaceOnUse" x="225" y="16" width="151" height="224">
<path d="M228.908 116.389C241.982 55.7333 269.691 27.639 281.911 21.1738C298.519 12.005 311.946 17.1921 317.688 20.2922C344.632 34.8389 362.741 78.9198 368.925 101.401C384.826 163.467 370.25 202.493 360.975 214.248C340.833 241.755 299.873 241.872 281.911 238.493C259.296 233.908 243.483 219.538 239.95 214.248C220.221 184.714 224.049 138.723 228.908 116.389Z" fill="#9F9C62" />

</mask>
<g mask="url(#mask0_915:23)">
<path d="M338 60C335.2 51.6 339.667 44.6667 342 42.5L345 44.5L353 56L358.5 71.5C363 80.6667 372 99.2 372 100V114.5C351.6 106.9 342.167 92 340 85.5C336.8 81.1 337.333 75.3333 338 73C340.8 69 339.167 62.6667 338 60Z" fill="#726C3A" />
<path d="M366 175.5C372 176.3 376.5 172.5 378 170.5L380 177V186L374.5 198.5V208L368.5 217.5L360.5 226L350.5 231C348.1 225 349.5 221.5 350.5 220.5C355.3 215.3 354.167 211.333 353 210C346.6 203.2 350.333 195.833 353 193C357 191 363.333 180.5 366 175.5Z" fill="#726C3A" />
<path d="M266 65.5C261.6 54.3 260.667 40.5 262.5 37L257 42L248 56L239.5 67.5L236.5 83L231 96.5V105.5C250.2 107.5 250.333 99.3333 248 95C255.6 95 256.5 83.6667 256 78C270.4 82 268.667 71.3333 266 65.5Z" fill="#726C3A" />
<path d="M286.5 101.5C281.3 101.1 278.333 107 277.5 110L271 113L261.5 131L251.5 149.5C247.9 158.3 249 167.167 250 170.5C242.4 174.9 247.833 182.667 251.5 186C247.9 193.2 249 200 250 202.5C262 226.5 279.333 218.833 286.5 212C299.3 213.6 303.5 203.667 304 198.5L331.5 114.5C335.9 101.7 321.667 93.8333 314 91.5C305.2 87.5 299 92.1667 297 95C294.6 97.8 289 100.5 286.5 101.5Z" fill="#726C3A" />

</g>
<circle cx="296.381" cy="145" r="49" fill="#523017" />
<path d="M295.381 175.5L280.881 160L268.881 146C264.481 141.6 262.714 145.167 262.381 147.5C261.981 175.9 282.881 183.667 293.381 184C300.581 183.2 297.714 178 295.381 175.5Z" fill="#ACAB8D" />

<defs>
<filter id="filter0_f_915:23" x="16" y="241" width="140" height="42" filterUnits="userSpaceOnUse" color-interpolation-filters="sRGB">
<feFlood flood-opacity="0" result="BackgroundImageFix" />
<feBlend mode="normal" in="SourceGraphic" in2="BackgroundImageFix" result="shape" />
<feGaussianBlur stdDeviation="4" result="effect1_foregroundBlur_915:23" />

</filter>
<filter id="filter1_f_915:23" x="40" y="245" width="92" height="28" filterUnits="userSpaceOnUse" color-interpolation-filters="sRGB">
<feFlood flood-opacity="0" result="BackgroundImageFix" />
<feBlend mode="normal" in="SourceGraphic" in2="BackgroundImageFix" result="shape" />
<feGaussianBlur stdDeviation="3" result="effect1_foregroundBlur_915:23" />

</filter>
<filter id="filter2_f_915:23" x="228" y="241" width="140" height="42" filterUnits="userSpaceOnUse" color-interpolation-filters="sRGB">
<feFlood flood-opacity="0" result="BackgroundImageFix" />
<feBlend mode="normal" in="SourceGraphic" in2="BackgroundImageFix" result="shape" />
<feGaussianBlur stdDeviation="4" result="effect1_foregroundBlur_915:23" />

</filter>
<filter id="filter3_f_915:23" x="252" y="245" width="92" height="28" filterUnits="userSpaceOnUse" color-interpolation-filters="sRGB">
<feFlood flood-opacity="0" result="BackgroundImageFix" />
<feBlend mode="normal" in="SourceGraphic" in2="BackgroundImageFix" result="shape" />
<feGaussianBlur stdDeviation="3" result="effect1_foregroundBlur_915:23" />

</filter>
</defs>
</svg>
