<svg width="100%" height="100%" viewBox="0 0 179 268" fill="none" xmlns="http://www.w3.org/2000/svg">
<path d="M23.5173 82.1935L4.92058 62.9521C-1.77024 54.8085 10.13 40.0056 23.518 52.5886" stroke="#000000" stroke-width="4.46287" stroke-linecap="round" />
<path d="M176.001 240.576L162.612 219.853C158.15 211.712 159.042 201.35 162.612 183.588C164.844 169.032 165.439 135.036 149.968 115.497C146.735 111.415 137.769 106.024 130.628 100.695C125.422 96.2539 118.579 88.8531 115.008 100.695C114.017 106.616 115.008 120.826 126.909 130.299C129.637 132.026 133.455 138.144 126.909 148.802C117.983 162.617 101.619 197.501 107.57 226.514" stroke="#000000" stroke-width="4.46287" stroke-linecap="round" />
<path d="M50.2959 208.751C53.2711 216.893 65.1721 234.803 88.9741 241.316C103.255 248.422 110.793 260.066 112.776 265" stroke="#000000" stroke-width="4.46287" stroke-linecap="round" />
<path d="M104.594 207.271H80.0486H34.6761C28.9249 207.271 24.2627 202.609 24.2627 196.858V176.186M135.835 103.655V13.4134C135.835 7.66223 131.172 3 125.421 3H34.6761C28.9249 3 24.2627 7.66224 24.2627 13.4134V102.175" stroke="#000000" stroke-width="4.46287" stroke-linecap="" />
<path d="M18.3108 94.7739C11.8645 95.7607 1.35115 100.991 4.92145 114.017C11.4675 127.043 25.7488 129.559 32.4431 129.559C36.906 129.559 45.2367 124.082 39.8812 114.017C36.906 109.576 34.6745 107.356 25.7488 102.915" stroke="#000000" stroke-width="4.46287" stroke-linecap="round" />
<path d="M10.1308 128.08C3.43571 137.701 12.362 148.063 20.5438 151.763C31.7011 156.204 36.1649 151.023 36.9088 150.283C41.3716 144.362 39.8824 136.961 31.7004 129.56" stroke="#000000" stroke-width="4.46287" stroke-linecap="round" />
<path d="M10.1308 151.022C3.43571 160.643 12.362 171.005 20.5438 174.706C31.7011 179.146 36.1649 173.965 36.9088 173.225C41.3716 167.304 39.1386 161.384 30.9566 153.982" stroke="#000000" stroke-width="4.46287" stroke-linecap="round" />
<line x1="24.2627" y1="22.9722" x2="135.835" y2="22.9722" stroke="#000000" stroke-width="4.46287" />
<line x1="24.2627" y1="184.317" x2="110.545" y2="184.317" stroke="#000000" stroke-width="4.46287" />
<path d="M93.3534 121.349V118.208H83.9318V108.787H93.3534V115.068H99.6345V121.349H96.4939V127.63H90.2129V133.911H83.9318V124.489H90.2129V121.349H93.3534ZM109.056 133.911H96.4939V127.63H102.775V121.349H109.056V133.911ZM52.5264 77.3813H77.6507V102.506H52.5264V77.3813ZM58.8074 83.6624V96.2246H71.3696V83.6624H58.8074ZM83.9318 77.3813H109.056V102.506H83.9318V77.3813ZM90.2129 83.6624V96.2246H102.775V83.6624H90.2129ZM52.5264 108.787H77.6507V133.911H52.5264V108.787ZM58.8074 115.068V127.63H71.3696V115.068H58.8074ZM99.6345 108.787H109.056V115.068H99.6345V108.787ZM61.948 86.803H68.2291V93.0841H61.948V86.803ZM61.948 118.208H68.2291V124.489H61.948V118.208ZM93.3534 86.803H99.6345V93.0841H93.3534V86.803Z" fill="#000000" />

</svg>
