<svg xmlns="http://www.w3.org/2000/svg" viewBox="0 0 20 20">
	<path d="M5.289,9.615c1.29,0,2.34-1.05,2.34-2.339c0-1.29-1.05-2.34-2.34-2.34C4,4.936,2.95,5.985,2.95,7.275
	C2.95,8.565,4,9.615,5.289,9.615z M15.582,5.872H9.033c-0.26,0-0.469,0.209-0.469,0.468v4.211H2.014V4.468
	C2.014,4.209,1.805,4,1.547,4H0.61C0.352,4,0.143,4.209,0.143,4.468v10.294c0,0.259,0.209,0.468,0.468,0.468h0.937
	c0.258,0,0.467-0.209,0.467-0.468v-1.404h14.973v1.404c0,0.259,0.209,0.468,0.469,0.468h0.936c0.258,0,0.467-0.209,0.467-0.468
V9.147C18.857,7.338,17.393,5.872,15.582,5.872z" />
</svg>
