<svg width="313" height="348" viewBox="0 0 313 348" fill="none" xmlns="http://www.w3.org/2000/svg">
<rect x="15.5" y="71.0069" width="259" height="261" stroke="#DFE0E2" stroke-width="31" />
<path d="M256.222 8.50694C217.822 30.5069 161.555 133.34 138.222 182.007C127.422 167.607 111.722 156.34 105.222 152.507C89.7221 143.366 72.7221 155.007 62.7222 164.507C52.7222 175.007 57.8888 187.174 62.7222 192.507C77.5222 208.907 94.5555 232.84 101.722 243.007C111.222 257.507 117.222 259.507 121.722 260.507C133.722 262.507 146.556 260.507 152.222 259.507C165.022 257.507 169.722 241.007 173.222 233.507C208.022 139.507 273.055 59.0069 301.222 30.5069C313.722 19.5069 312.722 16.5069 312.222 8.50694C308.222 -6.49306 268.44 1.50695 256.222 8.50694Z" fill="var(--theme-heading-color)" />

</svg>
