<svg xmlns="http://www.w3.org/2000/svg" viewBox="0 0 500 500">
	<path d="M30.04,106.76h343.61c-34.34,37.09-67.4,75.31-98.4,115.44c-25.15,32.52-49.27,65.85-74.47,99.65 c-2.5-3.75-4.68-7.07-6.88-10.36c-23.14-34.26-48.31-66.8-81.35-91.92c-6.74-5.11-14.3-9.57-22.08-12.78 c-9.57-3.92-17.18-0.27-22.57,8.7c-6.69,11.2-4.68,21.91,8.37,34.61c32.54,31.65,55.82,69.74,75.53,110.36 c6.69,13.76,11.99,28.25,19.2,41.65c11.2,20.72,34.48,24.33,51.63,8.4c4.51-4.19,7.97-9.71,11.26-15.01 c31.13-49.86,61.15-100.46,93.37-149.56c23.65-36.11,50.24-69.82,77.92-102.61v317.45H30.04V106.76z M470.33,12.22 c-8.18,5.44-16.18,11.5-23.11,18.49c-15.85,15.77-31.51,31.7-46.98,47.85H21.77c-10.74,0-19.47,8.89-19.47,19.82v370.8 c0,10.9,8.73,19.82,19.47,19.82h391.68c10.74,0,19.47-8.92,19.47-19.82V111.11c14.6-16.67,29.28-33.25,43.91-49.89 c6.93-7.86,12.75-16.91,17.89-26.13c4.08-7.34,4.27-15.55-2.61-22.08c-3.4-3.24-7.04-4.59-10.71-4.59 C477.64,8.41,473.86,9.86,470.33,12.22"/>
</svg>