<?xml version="1.0" encoding="utf-8"?>
<!-- Generator: Adobe Illustrator 24.3.0, SVG Export Plug-In . SVG Version: 6.00 Build 0)  -->
<svg version="1.1" id="Layer_1" xmlns="http://www.w3.org/2000/svg" xmlns:xlink="http://www.w3.org/1999/xlink" x="0px" y="0px"
	 viewBox="0 0 500 500" style="enable-background:new 0 0 500 500;" xml:space="preserve">
<style type="text/css">
	.st0{fill:#5C7635;}
</style>
<path class="st0" d="M162.6,131.64c-6.14,8.39-6.01,19.75,0.12,27.6c6.76,8.65,19.35,11.17,29.4,5.52
	c11.9-8.78,29.14-18.56,51.21-25.56c31.23-9.9,73.71-14.04,118.71,9c0,0,113.76,67.68,75.6,182.88c0,0-23.76,108.72-153.36,109.44
	c0,0-43.92,0-88.56-33.12c-9.31-6.97-22.33-6.22-30.6,1.62c-8.6,8.15-9.77,21.8-2.52,31.5c14.08,10.96,53.41,38.94,111.38,42.24
	c32.35,1.84,70.29-4.11,111.82-25.68c0,0,82.8-34.12,100.08-149.9c0,0,22.32-115.78-90-192.1c0,0-41.04-25.92-83.52-28.8
	c0.04-8.68,0.08-17.36,0.12-26.04c9.44-0.04,18.88-0.08,28.32-0.12c9.81-2.74,16.8-11.3,17.4-21.12c0.66-10.8-6.56-20.93-17.4-24
	c-33.9,0-67.8,0-101.7,0c-10.45,2.07-18.2,10.84-18.9,21.12c-0.75,11.09,6.89,21.45,18.12,24.12c9.39,0.24,18.78,0.48,28.17,0.72
	c-0.18,8.57-0.35,17.13-0.53,25.7c-10.79,1.12-23.34,3.37-36.94,7.68C198.4,104.04,176.29,119.85,162.6,131.64z"/>
<path class="st0" d="M375.24,200.28L375.24,200.28c-6.5-6.5-16.82-7.14-24.08-1.5c-18.93,15.36-37.87,30.71-56.8,46.07
	c-1.88-0.26-3.8-0.41-5.76-0.41c-22.67,0-41.04,18.37-41.04,41.04s18.37,41.04,41.04,41.04s41.04-18.37,41.04-41.04
	c0-1.48-0.08-2.94-0.24-4.38c15.72-19.09,31.44-38.19,47.16-57.28C382.18,216.78,381.61,206.65,375.24,200.28z"/>
<path class="st0" d="M180.42,235.32H29.94c-10.64,0-19.26-8.62-19.26-19.26v0c0-10.64,8.62-19.26,19.26-19.26h150.48
	c10.64,0,19.26,8.62,19.26,19.26v0C199.68,226.7,191.06,235.32,180.42,235.32z"/>
<path class="st0" d="M178.62,304.44H67.38c-10.84,0-19.62-8.78-19.62-19.62v0c0-10.84,8.78-19.62,19.62-19.62h111.24
	c10.84,0,19.62,8.78,19.62,19.62v0C198.24,295.66,189.46,304.44,178.62,304.44z"/>
<path class="st0" d="M179.7,374.64H96.9c-11.03,0-19.98-8.95-19.98-19.98v0c0-11.03,8.95-19.98,19.98-19.98h82.8
	c11.03,0,19.98,8.95,19.98,19.98v0C199.68,365.69,190.73,374.64,179.7,374.64z"/>
</svg>
