<svg width="100%" height="100%" viewBox="0 0 295 298" fill="none"
	xmlns="http://www.w3.org/2000/svg">
	<ellipse cx="147.5" cy="149" rx="147.5" ry="149" fill="url(#paint0_linear_103_46)"/>
	<path d="M280 147C280 221.017 220.667 281 147.5 281C74.3328 281 15 221.017 15 147C15 72.9833 74.3328 13 147.5 13C220.667 13 280 72.9833 280 147Z" stroke="white" stroke-width="2"/>
	<path d="M92.9139 88.125C93.3299 88.437 93.9669 88.749 94.8249 89.061C95.6829 89.347 96.6969 89.49 97.8669 89.49C99.0109 89.49 99.9339 89.308 100.636 88.944C101.364 88.554 101.91 87.982 102.274 87.228C102.664 86.448 102.924 85.46 103.054 84.264C103.21 83.068 103.288 81.651 103.288 80.013V65.31H107.695V79.389C107.695 81.443 107.578 83.328 107.344 85.044C107.136 86.76 106.707 88.255 106.057 89.529C105.407 90.777 104.432 91.739 103.132 92.415C101.858 93.091 100.142 93.429 97.9839 93.429C96.7099 93.429 95.5789 93.286 94.5909 93C93.6029 92.714 92.6929 92.285 91.8609 91.713L92.9139 88.125ZM127.518 93.195C125.308 93.195 123.436 92.818 121.902 92.064C120.394 91.31 119.172 90.283 118.236 88.983C117.326 87.683 116.65 86.201 116.208 84.537C115.792 82.873 115.584 81.144 115.584 79.35V65.31H119.952V79.35C119.952 80.624 120.082 81.859 120.342 83.055C120.602 84.225 121.018 85.278 121.59 86.214C122.162 87.15 122.929 87.891 123.891 88.437C124.879 88.983 126.088 89.256 127.518 89.256C128.974 89.256 130.183 88.983 131.145 88.437C132.133 87.865 132.9 87.111 133.446 86.175C134.018 85.213 134.434 84.147 134.694 82.977C134.954 81.807 135.084 80.598 135.084 79.35V65.31H139.491V79.35C139.491 81.248 139.257 83.042 138.789 84.732C138.347 86.396 137.645 87.865 136.683 89.139C135.747 90.387 134.525 91.375 133.017 92.103C131.509 92.831 129.676 93.195 127.518 93.195ZM164.02 71.823C163.76 71.537 163.383 71.238 162.889 70.926C162.395 70.588 161.81 70.276 161.134 69.99C160.458 69.704 159.73 69.47 158.95 69.288C158.17 69.106 157.364 69.015 156.532 69.015C154.712 69.015 153.36 69.353 152.476 70.029C151.592 70.705 151.15 71.641 151.15 72.837C151.15 73.721 151.397 74.423 151.891 74.943C152.385 75.437 153.139 75.853 154.153 76.191C155.167 76.529 156.441 76.893 157.975 77.283C159.847 77.725 161.472 78.258 162.85 78.882C164.228 79.48 165.281 80.286 166.009 81.3C166.737 82.314 167.101 83.653 167.101 85.317C167.101 86.721 166.841 87.93 166.321 88.944C165.801 89.958 165.073 90.79 164.137 91.44C163.201 92.064 162.122 92.532 160.9 92.844C159.678 93.13 158.365 93.273 156.961 93.273C155.583 93.273 154.205 93.13 152.827 92.844C151.475 92.558 150.175 92.142 148.927 91.596C147.705 91.024 146.574 90.335 145.534 89.529L147.523 85.785C147.861 86.123 148.342 86.5 148.966 86.916C149.616 87.306 150.357 87.683 151.189 88.047C152.047 88.411 152.97 88.723 153.958 88.983C154.972 89.217 155.999 89.334 157.039 89.334C158.781 89.334 160.107 89.035 161.017 88.437C161.953 87.813 162.421 86.929 162.421 85.785C162.421 84.849 162.122 84.108 161.524 83.562C160.926 82.99 160.055 82.509 158.911 82.119C157.767 81.729 156.402 81.339 154.816 80.949C152.996 80.455 151.475 79.922 150.253 79.35C149.031 78.752 148.108 77.998 147.484 77.088C146.886 76.152 146.587 74.969 146.587 73.539C146.587 71.719 147.029 70.185 147.913 68.937C148.797 67.663 149.993 66.714 151.501 66.09C153.035 65.44 154.751 65.115 156.649 65.115C157.897 65.115 159.08 65.258 160.198 65.544C161.316 65.804 162.356 66.168 163.318 66.636C164.306 67.104 165.203 67.637 166.009 68.235L164.02 71.823ZM194.141 69.171H184.937V93H180.53V69.171H171.287V65.31H194.141V69.171ZM112.56 117.823C112.3 117.537 111.923 117.238 111.429 116.926C110.935 116.588 110.35 116.276 109.674 115.99C108.998 115.704 108.27 115.47 107.49 115.288C106.71 115.106 105.904 115.015 105.072 115.015C103.252 115.015 101.9 115.353 101.016 116.029C100.132 116.705 99.6898 117.641 99.6898 118.837C99.6898 119.721 99.9368 120.423 100.431 120.943C100.925 121.437 101.679 121.853 102.693 122.191C103.707 122.529 104.981 122.893 106.515 123.283C108.387 123.725 110.012 124.258 111.39 124.882C112.768 125.48 113.821 126.286 114.549 127.3C115.277 128.314 115.641 129.653 115.641 131.317C115.641 132.721 115.381 133.93 114.861 134.944C114.341 135.958 113.613 136.79 112.677 137.44C111.741 138.064 110.662 138.532 109.44 138.844C108.218 139.13 106.905 139.273 105.501 139.273C104.123 139.273 102.745 139.13 101.367 138.844C100.015 138.558 98.7148 138.142 97.4668 137.596C96.2448 137.024 95.1138 136.335 94.0738 135.529L96.0628 131.785C96.4008 132.123 96.8818 132.5 97.5058 132.916C98.1558 133.306 98.8968 133.683 99.7288 134.047C100.587 134.411 101.51 134.723 102.498 134.983C103.512 135.217 104.539 135.334 105.579 135.334C107.321 135.334 108.647 135.035 109.557 134.437C110.493 133.813 110.961 132.929 110.961 131.785C110.961 130.849 110.662 130.108 110.064 129.562C109.466 128.99 108.595 128.509 107.451 128.119C106.307 127.729 104.942 127.339 103.356 126.949C101.536 126.455 100.015 125.922 98.7928 125.35C97.5708 124.752 96.6478 123.998 96.0238 123.088C95.4258 122.152 95.1268 120.969 95.1268 119.539C95.1268 117.719 95.5688 116.185 96.4528 114.937C97.3368 113.663 98.5328 112.714 100.041 112.09C101.575 111.44 103.291 111.115 105.189 111.115C106.437 111.115 107.62 111.258 108.738 111.544C109.856 111.804 110.896 112.168 111.858 112.636C112.846 113.104 113.743 113.637 114.549 114.235L112.56 117.823ZM133.867 139.195C131.865 139.195 130.058 138.805 128.446 138.025C126.834 137.245 125.443 136.192 124.273 134.866C123.103 133.514 122.193 132.006 121.543 130.342C120.919 128.652 120.607 126.923 120.607 125.155C120.607 123.309 120.945 121.554 121.621 119.89C122.297 118.2 123.233 116.705 124.429 115.405C125.625 114.079 127.029 113.039 128.641 112.285C130.279 111.505 132.047 111.115 133.945 111.115C135.921 111.115 137.715 111.518 139.327 112.324C140.965 113.13 142.356 114.209 143.5 115.561C144.67 116.913 145.567 118.421 146.191 120.085C146.841 121.749 147.166 123.452 147.166 125.194C147.166 127.04 146.828 128.808 146.152 130.498C145.502 132.162 144.579 133.657 143.383 134.983C142.187 136.283 140.77 137.31 139.132 138.064C137.52 138.818 135.765 139.195 133.867 139.195ZM125.053 125.155C125.053 126.455 125.261 127.716 125.677 128.938C126.093 130.16 126.678 131.252 127.432 132.214C128.212 133.15 129.148 133.891 130.24 134.437C131.332 134.983 132.554 135.256 133.906 135.256C135.31 135.256 136.558 134.97 137.65 134.398C138.742 133.826 139.652 133.059 140.38 132.097C141.134 131.109 141.706 130.017 142.096 128.821C142.486 127.599 142.681 126.377 142.681 125.155C142.681 123.855 142.473 122.607 142.057 121.411C141.667 120.189 141.082 119.11 140.302 118.174C139.522 117.212 138.586 116.458 137.494 115.912C136.428 115.366 135.232 115.093 133.906 115.093C132.502 115.093 131.254 115.379 130.162 115.951C129.07 116.523 128.147 117.29 127.393 118.252C126.639 119.214 126.054 120.293 125.638 121.489C125.248 122.685 125.053 123.907 125.053 125.155ZM154.028 139V111.31H158.396V135.139H173.255V139H154.028ZM179.143 139V111.31H188.971C191.961 111.31 194.457 111.934 196.459 113.182C198.461 114.404 199.956 116.068 200.944 118.174C201.958 120.254 202.465 122.568 202.465 125.116C202.465 127.924 201.906 130.368 200.788 132.448C199.696 134.528 198.136 136.14 196.108 137.284C194.08 138.428 191.701 139 188.971 139H179.143ZM198.019 125.116C198.019 123.166 197.655 121.45 196.927 119.968C196.225 118.46 195.198 117.29 193.846 116.458C192.52 115.6 190.895 115.171 188.971 115.171H183.511V135.139H188.971C190.921 135.139 192.559 134.697 193.885 133.813C195.237 132.929 196.264 131.733 196.966 130.225C197.668 128.717 198.019 127.014 198.019 125.116Z" fill="white"/>
	<line x1="50" y1="163" x2="248" y2="163" stroke="white" stroke-width="2"/>
	<path d="M77.5527 198.718L69.6668 199.597C69.3824 199.632 69.1309 199.823 69.0366 200.114C68.9423 200.405 69.0366 200.708 69.2462 200.899C71.5904 203.052 75.1127 206.276 75.1127 206.276C75.1097 206.276 74.1457 210.965 73.505 214.094C73.4744 214.236 73.4855 214.383 73.5368 214.519C73.588 214.654 73.6773 214.772 73.7938 214.857C73.9102 214.942 74.0488 214.992 74.1926 214.999C74.3364 215.006 74.4793 214.972 74.6037 214.899C77.3641 213.32 81.4987 210.946 81.4987 210.946L88.3906 214.9C88.6421 215.039 88.9565 215.036 89.2005 214.857C89.3165 214.771 89.4058 214.654 89.4576 214.519C89.5093 214.384 89.5214 214.237 89.4924 214.096L87.8891 206.276L93.7557 200.904C93.8619 200.806 93.938 200.68 93.9749 200.541C94.0118 200.401 94.0079 200.254 93.9637 200.116C93.9195 199.978 93.8368 199.857 93.7255 199.765C93.6143 199.674 93.4792 199.617 93.3365 199.6C90.181 199.245 85.4491 198.718 85.4491 198.718L82.1813 191.441C82.122 191.31 82.0263 191.198 81.9057 191.12C81.785 191.042 81.6445 191 81.5009 191C81.3574 191 81.2168 191.042 81.0962 191.12C80.9755 191.198 80.8798 191.31 80.8206 191.441L77.5527 198.718V198.718Z" fill="white"/>
	<path d="M114.553 198.718L106.667 199.597C106.382 199.632 106.131 199.823 106.037 200.114C105.942 200.405 106.037 200.708 106.246 200.899C108.59 203.052 112.113 206.276 112.113 206.276C112.11 206.276 111.146 210.965 110.505 214.094C110.474 214.236 110.485 214.383 110.537 214.519C110.588 214.654 110.677 214.772 110.794 214.857C110.91 214.942 111.049 214.992 111.193 214.999C111.336 215.006 111.479 214.972 111.604 214.899C114.364 213.32 118.499 210.946 118.499 210.946L125.391 214.9C125.642 215.039 125.956 215.036 126.2 214.857C126.317 214.771 126.406 214.654 126.458 214.519C126.509 214.384 126.521 214.237 126.492 214.096L124.889 206.276L130.756 200.904C130.862 200.806 130.938 200.68 130.975 200.541C131.012 200.401 131.008 200.254 130.964 200.116C130.919 199.978 130.837 199.857 130.726 199.765C130.614 199.674 130.479 199.617 130.337 199.6C127.181 199.245 122.449 198.718 122.449 198.718L119.181 191.441C119.122 191.31 119.026 191.198 118.906 191.12C118.785 191.042 118.644 191 118.501 191C118.357 191 118.217 191.042 118.096 191.12C117.976 191.198 117.88 191.31 117.821 191.441L114.553 198.718V198.718Z" fill="white"/>
	<path d="M148.553 198.718L140.667 199.597C140.382 199.632 140.131 199.823 140.037 200.114C139.942 200.405 140.037 200.708 140.246 200.899C142.59 203.052 146.113 206.276 146.113 206.276C146.11 206.276 145.146 210.965 144.505 214.094C144.474 214.236 144.485 214.383 144.537 214.519C144.588 214.654 144.677 214.772 144.794 214.857C144.91 214.942 145.049 214.992 145.193 214.999C145.336 215.006 145.479 214.972 145.604 214.899C148.364 213.32 152.499 210.946 152.499 210.946L159.391 214.9C159.642 215.039 159.956 215.036 160.2 214.857C160.317 214.771 160.406 214.654 160.458 214.519C160.509 214.384 160.521 214.237 160.492 214.096L158.889 206.276L164.756 200.904C164.862 200.806 164.938 200.68 164.975 200.541C165.012 200.401 165.008 200.254 164.964 200.116C164.919 199.978 164.837 199.857 164.726 199.765C164.614 199.674 164.479 199.617 164.337 199.6C161.181 199.245 156.449 198.718 156.449 198.718L153.181 191.441C153.122 191.31 153.026 191.198 152.906 191.12C152.785 191.042 152.644 191 152.501 191C152.357 191 152.217 191.042 152.096 191.12C151.976 191.198 151.88 191.31 151.821 191.441L148.553 198.718V198.718Z" fill="white"/>
	<path d="M184.553 198.718L176.667 199.597C176.382 199.632 176.131 199.823 176.037 200.114C175.942 200.405 176.037 200.708 176.246 200.899C178.59 203.052 182.113 206.276 182.113 206.276C182.11 206.276 181.146 210.965 180.505 214.094C180.474 214.236 180.485 214.383 180.537 214.519C180.588 214.654 180.677 214.772 180.794 214.857C180.91 214.942 181.049 214.992 181.193 214.999C181.336 215.006 181.479 214.972 181.604 214.899C184.364 213.32 188.499 210.946 188.499 210.946L195.391 214.9C195.642 215.039 195.956 215.036 196.2 214.857C196.317 214.771 196.406 214.654 196.458 214.519C196.509 214.384 196.521 214.237 196.492 214.096L194.889 206.276L200.756 200.904C200.862 200.806 200.938 200.68 200.975 200.541C201.012 200.401 201.008 200.254 200.964 200.116C200.919 199.978 200.837 199.857 200.726 199.765C200.614 199.674 200.479 199.617 200.337 199.6C197.181 199.245 192.449 198.718 192.449 198.718L189.181 191.441C189.122 191.31 189.026 191.198 188.906 191.12C188.785 191.042 188.644 191 188.501 191C188.357 191 188.217 191.042 188.096 191.12C187.976 191.198 187.88 191.31 187.821 191.441L184.553 198.718V198.718Z" fill="white"/>
	<path d="M220.553 198.718L212.667 199.597C212.382 199.632 212.131 199.823 212.037 200.114C211.942 200.405 212.037 200.708 212.246 200.899C214.59 203.052 218.113 206.276 218.113 206.276C218.11 206.276 217.146 210.965 216.505 214.094C216.474 214.236 216.485 214.383 216.537 214.519C216.588 214.654 216.677 214.772 216.794 214.857C216.91 214.942 217.049 214.992 217.193 214.999C217.336 215.006 217.479 214.972 217.604 214.899C220.364 213.32 224.499 210.946 224.499 210.946L231.391 214.9C231.642 215.039 231.956 215.036 232.2 214.857C232.317 214.771 232.406 214.654 232.458 214.519C232.509 214.384 232.521 214.237 232.492 214.096L230.889 206.276L236.756 200.904C236.862 200.806 236.938 200.68 236.975 200.541C237.012 200.401 237.008 200.254 236.964 200.116C236.919 199.978 236.837 199.857 236.726 199.765C236.614 199.674 236.479 199.617 236.337 199.6C233.181 199.245 228.449 198.718 228.449 198.718L225.181 191.441C225.122 191.31 225.026 191.198 224.906 191.12C224.785 191.042 224.644 191 224.501 191C224.357 191 224.217 191.042 224.096 191.12C223.976 191.198 223.88 191.31 223.821 191.441L220.553 198.718V198.718Z" fill="white"/>
	<defs>
		<linearGradient id="paint0_linear_103_46" x1="147.5" y1="0" x2="147.5" y2="298" gradientUnits="userSpaceOnUse">
			<stop stop-color="#EFAC29"/>
			<stop offset="0.25" stop-color="#EFAC29"/>
			<stop offset="0.71875" stop-color="#E8A729"/>
			<stop offset="1" stop-color="#C0842C"/>
		</linearGradient>
	</defs>
</svg>
