<svg width="100%" height="100%" viewBox="0 0 295 298" fill="none"
	xmlns="http://www.w3.org/2000/svg">
<ellipse cx="147.5" cy="149" rx="147.5" ry="149" fill="url(#paint0_linear_103_35)" />
<path d="M280 147C280 221.017 220.667 281 147.5 281C74.3328 281 15 221.017 15 147C15 72.9833 74.3328 13 147.5 13C220.667 13 280 72.9833 280 147Z" stroke="white" stroke-width="2" />
<path d="M124.2 93V65.31H128.568V93H124.2ZM141.534 73.422V93H137.166V65.31H140.754L156.432 85.317V65.349H160.839V93H157.017L141.534 73.422ZM80.2884 135.139V139H61.2954V111.31H79.9374V115.171H65.6634V123.049H78.0264V126.676H65.6634V135.139H80.2884ZM103.514 117.823C103.254 117.537 102.877 117.238 102.383 116.926C101.889 116.588 101.304 116.276 100.628 115.99C99.9524 115.704 99.2244 115.47 98.4444 115.288C97.6644 115.106 96.8584 115.015 96.0264 115.015C94.2064 115.015 92.8544 115.353 91.9704 116.029C91.0864 116.705 90.6444 117.641 90.6444 118.837C90.6444 119.721 90.8914 120.423 91.3854 120.943C91.8794 121.437 92.6334 121.853 93.6474 122.191C94.6614 122.529 95.9354 122.893 97.4694 123.283C99.3414 123.725 100.966 124.258 102.344 124.882C103.722 125.48 104.775 126.286 105.503 127.3C106.231 128.314 106.595 129.653 106.595 131.317C106.595 132.721 106.335 133.93 105.815 134.944C105.295 135.958 104.567 136.79 103.631 137.44C102.695 138.064 101.616 138.532 100.394 138.844C99.1724 139.13 97.8594 139.273 96.4554 139.273C95.0774 139.273 93.6994 139.13 92.3214 138.844C90.9694 138.558 89.6694 138.142 88.4214 137.596C87.1994 137.024 86.0684 136.335 85.0284 135.529L87.0174 131.785C87.3554 132.123 87.8364 132.5 88.4604 132.916C89.1104 133.306 89.8514 133.683 90.6834 134.047C91.5414 134.411 92.4644 134.723 93.4524 134.983C94.4664 135.217 95.4934 135.334 96.5334 135.334C98.2754 135.334 99.6014 135.035 100.511 134.437C101.447 133.813 101.915 132.929 101.915 131.785C101.915 130.849 101.616 130.108 101.018 129.562C100.42 128.99 99.5494 128.509 98.4054 128.119C97.2614 127.729 95.8964 127.339 94.3104 126.949C92.4904 126.455 90.9694 125.922 89.7474 125.35C88.5254 124.752 87.6024 123.998 86.9784 123.088C86.3804 122.152 86.0814 120.969 86.0814 119.539C86.0814 117.719 86.5234 116.185 87.4074 114.937C88.2914 113.663 89.4874 112.714 90.9954 112.09C92.5294 111.44 94.2454 111.115 96.1434 111.115C97.3914 111.115 98.5744 111.258 99.6924 111.544C100.81 111.804 101.85 112.168 102.812 112.636C103.8 113.104 104.697 113.637 105.503 114.235L103.514 117.823ZM111.561 124.96C111.561 123.27 111.86 121.619 112.458 120.007C113.056 118.369 113.927 116.887 115.071 115.561C116.241 114.209 117.658 113.143 119.322 112.363C120.986 111.557 122.871 111.154 124.977 111.154C127.473 111.154 129.631 111.726 131.451 112.87C133.271 113.988 134.623 115.431 135.507 117.199L132.075 119.5C131.555 118.382 130.892 117.498 130.086 116.848C129.306 116.198 128.448 115.743 127.512 115.483C126.602 115.223 125.705 115.093 124.821 115.093C123.365 115.093 122.091 115.392 120.999 115.99C119.907 116.562 118.984 117.329 118.23 118.291C117.502 119.253 116.943 120.332 116.553 121.528C116.189 122.724 116.007 123.92 116.007 125.116C116.007 126.442 116.228 127.729 116.67 128.977C117.112 130.199 117.723 131.291 118.503 132.253C119.309 133.189 120.258 133.93 121.35 134.476C122.442 135.022 123.638 135.295 124.938 135.295C125.822 135.295 126.745 135.139 127.707 134.827C128.669 134.515 129.553 134.034 130.359 133.384C131.191 132.708 131.841 131.824 132.309 130.732L135.936 132.799C135.364 134.177 134.467 135.347 133.245 136.309C132.049 137.271 130.697 137.999 129.189 138.493C127.707 138.987 126.238 139.234 124.782 139.234C122.832 139.234 121.051 138.831 119.439 138.025C117.827 137.193 116.436 136.101 115.266 134.749C114.096 133.371 113.186 131.837 112.536 130.147C111.886 128.431 111.561 126.702 111.561 124.96ZM142.316 139V111.31H154.367C155.615 111.31 156.759 111.57 157.799 112.09C158.839 112.61 159.736 113.299 160.49 114.157C161.27 115.015 161.868 115.977 162.284 117.043C162.726 118.109 162.947 119.201 162.947 120.319C162.947 121.541 162.726 122.711 162.284 123.829C161.842 124.947 161.205 125.909 160.373 126.715C159.567 127.521 158.618 128.106 157.526 128.47L164.039 139H159.125L153.119 129.367H146.684V139H142.316ZM146.684 125.506H154.328C155.134 125.506 155.849 125.272 156.473 124.804C157.097 124.336 157.591 123.712 157.955 122.932C158.319 122.126 158.501 121.255 158.501 120.319C158.501 119.357 158.293 118.499 157.877 117.745C157.461 116.965 156.915 116.341 156.239 115.873C155.589 115.405 154.874 115.171 154.094 115.171H146.684V125.506ZM181.869 139.195C179.867 139.195 178.06 138.805 176.448 138.025C174.836 137.245 173.445 136.192 172.275 134.866C171.105 133.514 170.195 132.006 169.545 130.342C168.921 128.652 168.609 126.923 168.609 125.155C168.609 123.309 168.947 121.554 169.623 119.89C170.299 118.2 171.235 116.705 172.431 115.405C173.627 114.079 175.031 113.039 176.643 112.285C178.281 111.505 180.049 111.115 181.947 111.115C183.923 111.115 185.717 111.518 187.329 112.324C188.967 113.13 190.358 114.209 191.502 115.561C192.672 116.913 193.569 118.421 194.193 120.085C194.843 121.749 195.168 123.452 195.168 125.194C195.168 127.04 194.83 128.808 194.154 130.498C193.504 132.162 192.581 133.657 191.385 134.983C190.189 136.283 188.772 137.31 187.134 138.064C185.522 138.818 183.767 139.195 181.869 139.195ZM173.055 125.155C173.055 126.455 173.263 127.716 173.679 128.938C174.095 130.16 174.68 131.252 175.434 132.214C176.214 133.15 177.15 133.891 178.242 134.437C179.334 134.983 180.556 135.256 181.908 135.256C183.312 135.256 184.56 134.97 185.652 134.398C186.744 133.826 187.654 133.059 188.382 132.097C189.136 131.109 189.708 130.017 190.098 128.821C190.488 127.599 190.683 126.377 190.683 125.155C190.683 123.855 190.475 122.607 190.059 121.411C189.669 120.189 189.084 119.11 188.304 118.174C187.524 117.212 186.588 116.458 185.496 115.912C184.43 115.366 183.234 115.093 181.908 115.093C180.504 115.093 179.256 115.379 178.164 115.951C177.072 116.523 176.149 117.29 175.395 118.252C174.641 119.214 174.056 120.293 173.64 121.489C173.25 122.685 173.055 123.907 173.055 125.155ZM210.792 111.427H214.887L218.319 120.826L221.79 111.427H225.885L221.127 123.751L225.261 133.93L233.88 111.31H238.677L227.328 139H223.545L218.358 126.598L213.132 139H209.31L198 111.31H202.758L211.416 133.93L215.55 123.751L210.792 111.427Z" fill="white" />
<line x1="50" y1="163" x2="248" y2="163" stroke="white" stroke-width="2" />
<path d="M77.5527 198.718L69.6668 199.597C69.3824 199.632 69.1309 199.823 69.0366 200.114C68.9423 200.405 69.0366 200.708 69.2462 200.899C71.5904 203.052 75.1127 206.276 75.1127 206.276C75.1097 206.276 74.1457 210.965 73.505 214.094C73.4744 214.236 73.4855 214.383 73.5368 214.519C73.588 214.654 73.6773 214.772 73.7938 214.857C73.9102 214.942 74.0488 214.992 74.1926 214.999C74.3364 215.006 74.4793 214.972 74.6037 214.899C77.3641 213.32 81.4987 210.946 81.4987 210.946L88.3906 214.9C88.6421 215.039 88.9565 215.036 89.2005 214.857C89.3165 214.771 89.4058 214.654 89.4576 214.519C89.5093 214.384 89.5214 214.237 89.4924 214.096L87.8891 206.276L93.7557 200.904C93.8619 200.806 93.938 200.68 93.9749 200.541C94.0118 200.401 94.0079 200.254 93.9637 200.116C93.9195 199.978 93.8368 199.857 93.7255 199.765C93.6143 199.674 93.4792 199.617 93.3365 199.6C90.181 199.245 85.4491 198.718 85.4491 198.718L82.1813 191.441C82.122 191.31 82.0263 191.198 81.9057 191.12C81.785 191.042 81.6445 191 81.5009 191C81.3574 191 81.2168 191.042 81.0962 191.12C80.9755 191.198 80.8798 191.31 80.8206 191.441L77.5527 198.718V198.718Z" fill="white" />
<path d="M114.553 198.718L106.667 199.597C106.382 199.632 106.131 199.823 106.037 200.114C105.942 200.405 106.037 200.708 106.246 200.899C108.59 203.052 112.113 206.276 112.113 206.276C112.11 206.276 111.146 210.965 110.505 214.094C110.474 214.236 110.485 214.383 110.537 214.519C110.588 214.654 110.677 214.772 110.794 214.857C110.91 214.942 111.049 214.992 111.193 214.999C111.336 215.006 111.479 214.972 111.604 214.899C114.364 213.32 118.499 210.946 118.499 210.946L125.391 214.9C125.642 215.039 125.956 215.036 126.2 214.857C126.317 214.771 126.406 214.654 126.458 214.519C126.509 214.384 126.521 214.237 126.492 214.096L124.889 206.276L130.756 200.904C130.862 200.806 130.938 200.68 130.975 200.541C131.012 200.401 131.008 200.254 130.964 200.116C130.919 199.978 130.837 199.857 130.726 199.765C130.614 199.674 130.479 199.617 130.337 199.6C127.181 199.245 122.449 198.718 122.449 198.718L119.181 191.441C119.122 191.31 119.026 191.198 118.906 191.12C118.785 191.042 118.644 191 118.501 191C118.357 191 118.217 191.042 118.096 191.12C117.976 191.198 117.88 191.31 117.821 191.441L114.553 198.718V198.718Z" fill="white" />
<path d="M148.553 198.718L140.667 199.597C140.382 199.632 140.131 199.823 140.037 200.114C139.942 200.405 140.037 200.708 140.246 200.899C142.59 203.052 146.113 206.276 146.113 206.276C146.11 206.276 145.146 210.965 144.505 214.094C144.474 214.236 144.485 214.383 144.537 214.519C144.588 214.654 144.677 214.772 144.794 214.857C144.91 214.942 145.049 214.992 145.193 214.999C145.336 215.006 145.479 214.972 145.604 214.899C148.364 213.32 152.499 210.946 152.499 210.946L159.391 214.9C159.642 215.039 159.956 215.036 160.2 214.857C160.317 214.771 160.406 214.654 160.458 214.519C160.509 214.384 160.521 214.237 160.492 214.096L158.889 206.276L164.756 200.904C164.862 200.806 164.938 200.68 164.975 200.541C165.012 200.401 165.008 200.254 164.964 200.116C164.919 199.978 164.837 199.857 164.726 199.765C164.614 199.674 164.479 199.617 164.337 199.6C161.181 199.245 156.449 198.718 156.449 198.718L153.181 191.441C153.122 191.31 153.026 191.198 152.906 191.12C152.785 191.042 152.644 191 152.501 191C152.357 191 152.217 191.042 152.096 191.12C151.976 191.198 151.88 191.31 151.821 191.441L148.553 198.718V198.718Z" fill="white" />
<path d="M184.553 198.718L176.667 199.597C176.382 199.632 176.131 199.823 176.037 200.114C175.942 200.405 176.037 200.708 176.246 200.899C178.59 203.052 182.113 206.276 182.113 206.276C182.11 206.276 181.146 210.965 180.505 214.094C180.474 214.236 180.485 214.383 180.537 214.519C180.588 214.654 180.677 214.772 180.794 214.857C180.91 214.942 181.049 214.992 181.193 214.999C181.336 215.006 181.479 214.972 181.604 214.899C184.364 213.32 188.499 210.946 188.499 210.946L195.391 214.9C195.642 215.039 195.956 215.036 196.2 214.857C196.317 214.771 196.406 214.654 196.458 214.519C196.509 214.384 196.521 214.237 196.492 214.096L194.889 206.276L200.756 200.904C200.862 200.806 200.938 200.68 200.975 200.541C201.012 200.401 201.008 200.254 200.964 200.116C200.919 199.978 200.837 199.857 200.726 199.765C200.614 199.674 200.479 199.617 200.337 199.6C197.181 199.245 192.449 198.718 192.449 198.718L189.181 191.441C189.122 191.31 189.026 191.198 188.906 191.12C188.785 191.042 188.644 191 188.501 191C188.357 191 188.217 191.042 188.096 191.12C187.976 191.198 187.88 191.31 187.821 191.441L184.553 198.718V198.718Z" fill="white" />
<path d="M220.553 198.718L212.667 199.597C212.382 199.632 212.131 199.823 212.037 200.114C211.942 200.405 212.037 200.708 212.246 200.899C214.59 203.052 218.113 206.276 218.113 206.276C218.11 206.276 217.146 210.965 216.505 214.094C216.474 214.236 216.485 214.383 216.537 214.519C216.588 214.654 216.677 214.772 216.794 214.857C216.91 214.942 217.049 214.992 217.193 214.999C217.336 215.006 217.479 214.972 217.604 214.899C220.364 213.32 224.499 210.946 224.499 210.946L231.391 214.9C231.642 215.039 231.956 215.036 232.2 214.857C232.317 214.771 232.406 214.654 232.458 214.519C232.509 214.384 232.521 214.237 232.492 214.096L230.889 206.276L236.756 200.904C236.862 200.806 236.938 200.68 236.975 200.541C237.012 200.401 237.008 200.254 236.964 200.116C236.919 199.978 236.837 199.857 236.726 199.765C236.614 199.674 236.479 199.617 236.337 199.6C233.181 199.245 228.449 198.718 228.449 198.718L225.181 191.441C225.122 191.31 225.026 191.198 224.906 191.12C224.785 191.042 224.644 191 224.501 191C224.357 191 224.217 191.042 224.096 191.12C223.976 191.198 223.88 191.31 223.821 191.441L220.553 198.718V198.718Z" fill="white" />

	<defs>
		<linearGradient id="paint0_linear_103_35" x1="147.5" y1="0" x2="147.5" y2="298" gradientUnits="userSpaceOnUse">
<stop stop-color="#EFAC29" />
<stop offset="0.25" stop-color="#EFAC29" />
<stop offset="0.71875" stop-color="#E8A729" />
<stop offset="1" stop-color="#C0842C" />

		</linearGradient>
	</defs>
</svg>
