<svg viewBox="0 0 55 55"
	xmlns="http://www.w3.org/2000/svg">

<path d="M45.0586 8.4279L2.61475 18.6753L9.24585 46.1408L51.6897 35.8934L45.0586 8.4279Z" fill="#C0C2D0" stroke="#5C5C5C" stroke-miterlimit="round" stroke-linecap="round" />
<path d="M33.2394 25.8165L51.6881 35.8965L9.24887 46.1428L21.066 28.7556" fill="#D0D7DD" stroke="#5C5C5C" stroke-miterlimit="round" stroke-linecap="round" />
<path d="M28.4871 32.8132L2.61475 18.6753L45.0586 8.4279L28.4871 32.8132Z" fill="#E6EBEF" stroke="#5C5C5C" stroke-miterlimit="round" stroke-linecap="round" />
<path d="M28.1186 27.3485C25.2808 28.0337 23.4443 29.1444 23.9889 31.4001C24.4632 33.3647 26.1544 33.7778 27.7066 33.4031C29.0648 33.0751 29.7489 32.294 30.3452 31.1489C30.7617 32.0237 31.895 32.5716 33.229 32.2495C35.6059 31.6757 35.9545 28.9733 35.2752 26.1598C34.0631 21.1392 30.5168 18.8896 25.5447 20.09C19.9662 21.4369 18.4057 25.8178 19.5593 30.596C20.8944 36.1259 24.8806 37.8586 28.4945 36.9861C30.1681 36.582 32.6286 35.3976 32.412 34.5002C32.3475 34.2334 31.9879 33.8069 31.5755 33.9065C31.0662 34.0295 30.448 34.8718 28.4108 35.3636C24.1664 36.3884 22.107 33.6 21.2755 30.1559C20.3854 26.4693 21.0443 22.8193 25.8951 21.6482C30.1153 20.6293 32.623 22.6164 33.6595 26.9093C33.9874 28.2675 34.3262 30.5216 33.0407 30.832C32.5071 30.9608 32.0011 30.6723 31.6866 29.9012L30.7028 25.8265C30.1992 23.7407 28.3106 23.0416 26.2005 23.551C24.6483 23.9258 23.0542 24.978 23.2474 25.7784C23.3294 26.1179 23.7544 26.7084 24.1424 26.6148C24.5547 26.5152 24.839 25.7792 26.3427 25.4162C27.798 25.0648 28.6177 25.4829 28.9164 26.7199L29.0159 27.1323L28.1185 27.3489L28.1184 27.3486L28.1186 27.3485ZM29.3814 28.327L29.6215 29.3214C29.8498 30.2673 29.0771 31.5319 27.7673 31.8482C26.967 32.0414 26.2853 31.7696 26.0687 30.8722C25.7583 29.5867 26.8346 28.9419 28.6537 28.5027L29.3813 28.327L29.3814 28.327Z" fill="#C32033" />

</svg>
