<svg version="1.1" id="Layer_1"
	xmlns="http://www.w3.org/2000/svg"
	xmlns:xlink="http://www.w3.org/1999/xlink" x="0px" y="0px" viewBox="0 0 500 500" style="enable-background:new 0 0 500 500;" xml:space="preserve">
	<style type="text/css">
	.st0{fill:#688C44;}
	.st1{fill:#FFFFFF;}
	.st2{font-family:'MyriadPro-Bold';}
	.st3{font-size:202.5414px;}
	</style>
	<path class="st0" d="M43.32,252.84c2.91,7.77,9.86,11.33,11.63,12.16c11.76,5.56,23.19-1.09,24.2-1.7l152.26-152.56
	c7.16-7.17,18.75-7.24,25.99-0.16l155.64,152.27c7.52,7.36,19.66,6.96,26.68-0.88l5.49-6.13c6.58-7.35,6.23-18.56-0.8-25.48
	L258.54,47.22c-7.19-7.09-18.74-7.09-25.93,0L52.77,224.42C43.56,232.06,39.85,243.56,43.32,252.84z"/>
	<rect x="339.36" y="69.36" class="st0" width="52.12" height="108.84"/>
	<path class="st0" d="M58.92,254.76"/>
	<path class="st0" d="M59.88,279.48"/>
	<path class="st0" d="M245.34,137.28L90.84,293.24v113.09c0,10.84,13.3,25.28,29.71,25.28h250.9c16.41,0,29.71-14.44,29.71-32.24
	v-110.1L245.34,137.28z"/>
	
</svg>
