<?xml version="1.0" encoding="utf-8"?>
<svg version="1.1"
	xmlns="http://www.w3.org/2000/svg" viewBox="0 0 500 500">
	<path fill="#80ccf3" d="M250,10.12C117.52,10.12,10.12,117.52,10.12,250S117.52,489.88,250,489.88S489.88,382.48,489.88,250
	S382.48,10.12,250,10.12z M361.22,165.72l-79.37,68.9c2.25,4.65,3.51,9.86,3.51,15.37c0,19.53-15.83,35.36-35.36,35.36
	s-35.36-15.83-35.36-35.36c0-19.53,15.83-35.36,35.36-35.36c3.68,0,7.22,0.56,10.56,1.6l57.63-50.03c-1.86-1.71-3.51-3.15-4.51-3.97
	c0,0-3.94-3.23-10.14-6.37c-5.67-2.87-90.94-32.66-136.62,26.89c-36.28,47.3-12.75,107.4-4.07,121.67c3.33,5.47,6.7,9.71,9.29,12.67
	c4.05,5.54,3.27,13.19-1.53,17.58c-3.83,3.49-10.35,3.85-16.29,0.99c-2.51-2.64-5.12-5.61-7.74-8.91c-2.31-2.91-4.37-5.75-6.2-8.45
	c-1.52-2.25-43.94-82.95,5.66-146.83c56.33-72.55,161.7-33.67,168.66-29.49c4.82,2.9,9.54,6.21,9.54,6.21
c2.98,2.09,5.61,4.09,7.89,5.91l10.84-9.41c5.81-5.04,14.6-4.42,19.64,1.39C367.65,151.89,367.03,160.68,361.22,165.72z" />
</svg>
