<svg xmlns="http://www.w3.org/2000/svg" viewBox="0 0 500 500">

	<path fill="#fff" d="M252.81,172.92c-23.28-23.89-46.56-47.77-69.84-71.66L49.64,219.96v160.16h100.18v-93.5h28.28
c1.66-12.78,5.46-30,14.57-48.51C210.71,201.43,238.86,181.45,252.81,172.92z" />
	<path fill="#fff" d="M269.97,158.98l-86.99-85.37L25.25,219.96c0,0-30.38,2.44-21.29-17.89L182.98,34.59l121.95,118.7L269.97,158.98
z" />
<polygon fill="#fff" points="282.98,119.15 315.5,149.23 322,149.23 322,74.43 282.98,74.43 " />
<circle fill-opacity="0" stroke="#fff" stroke-width="15" cx="332.72" cy="306.97" r="156.04" />

	<path fill="#fff" d="M332.47,180.62c-70.17,0-127.05,56.88-127.05,127.05s56.88,127.05,127.05,127.05s127.05-56.88,127.05-127.05
	S402.64,180.62,332.47,180.62z M255.46,333.23c-13.58,0-24.59-11.01-24.59-24.59c0-13.58,11.01-24.59,24.59-24.59
	c13.58,0,24.59,11.01,24.59,24.59C280.05,322.22,269.04,333.23,255.46,333.23z M329.52,332.56c-13.58,0-24.59-11.01-24.59-24.59
	c0-13.58,11.01-24.59,24.59-24.59s24.59,11.01,24.59,24.59C354.11,321.55,343.1,332.56,329.52,332.56z M407.46,331.23
	c-13.58,0-24.59-11.01-24.59-24.59c0-13.58,11.01-24.59,24.59-24.59c13.58,0,24.59,11.01,24.59,24.59
C432.05,320.22,421.04,331.23,407.46,331.23z" />
</svg>
