<svg xmlns="http://www.w3.org/2000/svg" viewBox="0 0 500 500">
	<path fill="#fff" d="M252.81,172.92c-23.28-23.89-46.56-47.77-69.84-71.66L49.64,219.96v160.16h100.18v-93.5h28.28
	c1.66-12.78,5.46-30,14.57-48.51C210.71,201.43,238.86,181.45,252.81,172.92z"/>
	<path fill="#fff" d="M273.54,162.76c-26.96-26.55-53.92-53.1-80.88-79.64c-5.42-5.32-14.06-5.44-19.63-0.27L31.86,213.83
	c-2.79,2.59-7.05,2.77-10.05,0.42l-9.67-7.56c-3.75-2.93-4-8.52-0.52-11.77L173.07,43.86c5.54-5.19,14.19-5.1,19.63,0.19
	c37.79,36.51,75.58,73.03,113.36,109.54C295.22,156.65,284.38,159.71,273.54,162.76z"/>
	<polygon fill="#fff" points="282.98,119.15 315.5,149.23 322,149.23 322,74.43 282.98,74.43 "/>
	<circle stroke="#fff" stroke-width="15" fill="transparent" cx="328.09" cy="309" r="156.04"/>
	<path fill="#fff" d="M328.09,181.32c-70.52,0-127.68,57.16-127.68,127.68s57.16,127.68,127.68,127.68S455.77,379.52,455.77,309
	S398.6,181.32,328.09,181.32z M339.13,320.04v81.6h-22.08v-81.6h-81.6v-22.08h81.6v-81.6h22.08v81.6h81.6v22.08H339.13z"/>
</svg>
