<svg width="100%" height="100%" viewBox="0 0 75 67"  xmlns="http://www.w3.org/2000/svg">
<path d="M75 34C71.8 37.2 67.6667 34.6667 66 33L37 8L8.5 33C3.5 37.5 1.5 35.5 0 34L37 0.5L75 34Z" fill="var(--theme-body-background)"/>
<path d="M10 36L37 12.5L64 36V65C64 66.1046 63.1046 67 62 67H12C10.8954 67 10 66.1046 10 65V36Z" fill="var(--theme-body-background)"/>
<path d="M58 8H66V23L58 16.5V8Z" fill="var(--theme-body-background)"/>
<path d="M41.7441 46.4679C41.4618 45.8786 41.0172 45.3496 40.412 44.8809C39.8063 44.4128 38.8532 43.9077 37.5533 43.3668C36.3985 42.8905 35.5987 42.5067 35.155 42.2163C34.7108 41.9254 34.3917 41.6169 34.1981 41.2896C34.0046 40.9623 33.9073 40.5684 33.9073 40.1084C33.9073 39.4381 34.1497 38.899 34.6342 38.4912C35.1191 38.0835 35.8297 37.8794 36.766 37.8794C38.0018 37.8794 39.4072 38.2105 40.9817 38.8727L41.9022 36.5104C40.5955 35.9325 39.2835 35.5822 37.9673 35.4538V33H35.5412V35.483C34.3673 35.6455 33.3898 36.0398 32.6111 36.669C31.5618 37.5166 31.0366 38.6796 31.0366 40.1573C31.0366 41.3361 31.3672 42.3457 32.0294 43.1856C32.6916 44.0256 33.8301 44.7726 35.4454 45.4262C37.0123 46.0559 38.0459 46.6016 38.5461 47.0621C39.0473 47.5226 39.2974 48.0832 39.2974 48.7459C39.2974 49.4805 39.0248 50.0655 38.4795 50.5016C37.9342 50.9386 37.089 51.1556 35.9418 51.1556C35.1584 51.1556 34.3127 51.0469 33.4042 50.8288C32.4957 50.6108 31.6375 50.3123 30.8301 49.9323V52.6698C32.0611 53.2702 33.6337 53.5778 35.5408 53.5984V56H37.9663V53.3785C38.9491 53.1624 39.7824 52.791 40.4594 52.2582C41.5984 51.3617 42.1676 50.1264 42.1676 48.5514C42.1686 47.7531 42.0268 47.0578 41.7441 46.4679Z" fill="var(--theme-sub-heading-color)"/>
</svg>
