<?xml version="1.0"?>

<svg xmlns="http://www.w3.org/2000/svg">
	<symbol id="rectangle61-icon">
		<svg viewBox="0 0 641 695">
			<g filter="url(#filter0_d_911:3)">
<path d="M2.68467 472.789L439.185 2.78882L618.685 2.78882L2.2328 672.305L2.68467 472.789Z" fill="#C32033" />

			</g>
			<defs>
				<filter id="filter0_d_911:3" x="0.232796" y="0.789062" width="640.452" height="693.516" filterUnits="userSpaceOnUse" color-interpolation-filters="sRGB">
<feFlood flood-opacity="0" result="BackgroundImageFix" />
<feColorMatrix in="SourceAlpha" type="matrix" values="0 0 0 0 0 0 0 0 0 0 0 0 0 0 0 0 0 0 127 0" result="hardAlpha" />
<feOffset dx="10" dy="10" />
<feGaussianBlur stdDeviation="6" />
<feColorMatrix type="matrix" values="0 0 0 0 0 0 0 0 0 0 0 0 0 0 0 0 0 0 0.18 0" />
<feBlend mode="normal" in2="BackgroundImageFix" result="effect1_dropShadow_911:3" />
<feBlend mode="normal" in="SourceGraphic" in2="effect1_dropShadow_911:3" result="shape" />

				</filter>
			</defs>
		</svg>
	</symbol>
	<symbol id="calendar-icon">
		<svg viewBox="0 0 448 512">
			<path d="M400 64h-48V8c0-4.4-3.6-8-8-8h-16c-4.4 0-8 3.6-8 8v56H128V8c0-4.4-3.6-8-8-8h-16c-4.4 0-8 3.6-8 8v56H48C21.5 64 0 85.5 0 112v352c0 26.5 21.5 48 48 48h352c26.5 0 48-21.5 48-48V112c0-26.5-21.5-48-48-48zm16 400c0 8.8-7.2 16-16 16H48c-8.8 0-16-7.2-16-16V192h384v272zm0-304H32v-48c0-8.8 7.2-16 16-16h352c8.8 0 16 7.2 16 16v48zM112 384h96c8.8 0 16-7.2 16-16v-96c0-8.8-7.2-16-16-16h-96c-8.8 0-16 7.2-16 16v96c0 8.8 7.2 16 16 16zm16-96h64v64h-64v-64z"></path>
		</svg>
	</symbol>
	<symbol id="email-new">
		<svg viewBox="0 0 512 512">
			<path d="M502.3 190.8c3.9-3.1 9.7-.2 9.7 4.7V400c0 26.5-21.5 48-48 48H48c-26.5 0-48-21.5-48-48V195.6c0-5 5.7-7.8 9.7-4.7 22.4 17.4 52.1 39.5 154.1 113.6 21.1 15.4 56.7 47.8 92.2 47.6 35.7.3 72-32.8 92.3-47.6 102-74.1 131.6-96.3 154-113.7zM256 320c23.2.4 56.6-29.2 73.4-41.4 132.7-96.3 142.8-104.7 173.4-128.7 5.8-4.5 9.2-11.5 9.2-18.9v-19c0-26.5-21.5-48-48-48H48C21.5 64 0 85.5 0 112v19c0 7.4 3.4 14.3 9.2 18.9 30.6 23.9 40.7 32.4 173.4 128.7 16.8 12.2 50.2 41.8 73.4 41.4z"></path>
		</svg>
	</symbol>

	<symbol id="bed-icon">
		<svg viewBox="0 0 20 20">
<path d="M5.289,9.615c1.29,0,2.34-1.05,2.34-2.339c0-1.29-1.05-2.34-2.34-2.34C4,4.936,2.95,5.985,2.95,7.275 C2.95,8.565,4,9.615,5.289,9.615z M15.582,5.872H9.033c-0.26,0-0.469,0.209-0.469,0.468v4.211H2.014V4.468 C2.014,4.209,1.805,4,1.547,4H0.61C0.352,4,0.143,4.209,0.143,4.468v10.294c0,0.259,0.209,0.468,0.468,0.468h0.937 c0.258,0,0.467-0.209,0.467-0.468v-1.404h14.973v1.404c0,0.259,0.209,0.468,0.469,0.468h0.936c0.258,0,0.467-0.209,0.467-0.468	V9.147C18.857,7.338,17.393,5.872,15.582,5.872z" />

		</svg>
	</symbol>

	<symbol id="dom-icon">
		<svg viewBox="0 0 500 500">
<path fill="#80ccf3" d="M250,8.36C116.55,8.36,8.36,116.55,8.36,250S116.55,491.64,250,491.64S491.64,383.45,491.64,250 S383.45,8.36,250,8.36z M354.85,355.89L354.85,355.89c-5.5,5.5-14.43,5.5-19.93,0l-72-72c-4.01,1.53-8.36,2.38-12.92,2.38 c-20.03,0-36.27-16.24-36.27-36.27c0-15.13,9.26-28.08,22.42-33.52V95.52c0-7.78,6.31-14.09,14.09-14.09 c7.78,0,14.09,6.31,14.09,14.09v121.16c12.89,5.56,21.92,18.38,21.92,33.31c0,5.12-1.07,9.99-2.98,14.4l71.56,71.56 C360.35,341.46,360.35,350.39,354.85,355.89z" />

		</svg>
	</symbol>

	<symbol id="email-icon">
		<svg viewBox="0 0 512 512">
			<path d="M502.3 190.8c3.9-3.1 9.7-.2 9.7 4.7V400c0 26.5-21.5 48-48 48H48c-26.5 0-48-21.5-48-48V195.6c0-5 5.7-7.8 9.7-4.7 22.4 17.4 52.1 39.5 154.1 113.6 21.1 15.4 56.7 47.8 92.2 47.6 35.7.3 72-32.8 92.3-47.6 102-74.1 131.6-96.3 154-113.7zM256 320c23.2.4 56.6-29.2 73.4-41.4 132.7-96.3 142.8-104.7 173.4-128.7 5.8-4.5 9.2-11.5 9.2-18.9v-19c0-26.5-21.5-48-48-48H48C21.5 64 0 85.5 0 112v19c0 7.4 3.4 14.3 9.2 18.9 30.6 23.9 40.7 32.4 173.4 128.7 16.8 12.2 50.2 41.8 73.4 41.4z"></path>
		</svg>
	</symbol>

	<svg:symbol id="size-icon">
		<svg viewBox="0 0 512 512">
			<path d="M501.65 452.08l-51.16-51.16-38.57 38.57c-3.12 3.12-8.19 3.12-11.31 0l-11.31-11.31c-3.12-3.12-3.12-8.19 0-11.31l38.57-38.57-56.57-56.57-38.57 38.57c-3.12 3.12-8.19 3.12-11.31 0l-11.31-11.31c-3.12-3.12-3.12-8.19 0-11.31l38.57-38.57-56.57-56.57-38.57 38.57c-3.12 3.12-8.19 3.12-11.31 0l-11.31-11.31c-3.12-3.12-3.12-8.19 0-11.31l38.57-38.57-56.57-56.57-38.57 38.57c-3.12 3.12-8.19 3.12-11.31 0l-11.31-11.31c-3.12-3.12-3.12-8.19 0-11.31l38.57-38.57-56.6-56.59-38.57 38.57c-3.12 3.12-8.19 3.12-11.31 0L72.51 111.4c-3.12-3.12-3.12-8.19 0-11.31l38.57-38.57-51.17-51.17C52.76 3.2 43.97 0 35.35 0 17.31 0 0 14.01 0 35.17V476.9C0 496.29 15.71 512 35.1 512h441.73c31.27 0 46.93-37.8 24.82-59.92zM128 384V259.46L252.54 384H128z"></path>
		</svg>
	</svg:symbol>

	<svg:symbol id="smartphone-icon">
		<svg viewBox="0 0 24 24">
<path d="M19 2c0-1.104-.896-2-2-2h-10c-1.104 0-2 .896-2 2v20c0 1.104.896 2 2 2h10c1.104 0 2-.896 2-2v-20zm-8.5 0h3c.276 0 .5.224.5.5s-.224.5-.5.5h-3c-.276 0-.5-.224-.5-.5s.224-.5.5-.5zm1.5 20c-.553 0-1-.448-1-1s.447-1 1-1c.552 0 .999.448.999 1s-.447 1-.999 1zm5-3h-10v-14.024h10v14.024z" />

		</svg>
	</svg:symbol>

	<svg:symbol id="sold-icon">
		<svg viewBox="0.5 -11.5 500 500">
<polygon fill="#3B4652" points="285.745,192.496 285.745,227.518 252.69,251.204 252.69,192.496 " />
<path fill="#3B4652" d="M202.417,192.496c0,19.836,0,39.288,0,58.934c11.233,0,22.15,0,33.048,0c0-19.889,0-39.348,0-58.934 C224.368,192.496,213.641,192.496,202.417,192.496z" />
<path fill="#3B4652" d="M81.922,39.599h41.148c5.985,0,10.841,4.853,10.841,10.839v25.153c4.891-3.357,7.597-5.039,10.072-6.944 c26.828-20.619,53.626-41.269,80.419-61.921c12.214-9.413,26.092-8.977,39.771,1.507c38.549,29.532,77.045,59.116,115.548,88.694 c31.211,23.977,62.364,48.011,93.625,71.938c8.399,6.43,13.699,13.933,11.672,23.991c-3.918,19.439-28.821,26.51-46.864,12.963 c-26.807-20.127-53.162-40.709-79.702-61.104c-34.997-26.896-70.188-53.605-104.82-80.854c-7.559-5.945-12.09-6.282-19.98-0.17 c-61.029,47.274-122.483,94.141-183.94,141c-4.288,3.27-9.282,6.436-14.589,7.978c-12.027,3.494-25.079-1.277-31.354-10.411 c-6.566-9.563-4.498-22.375,5.789-30.476c17.886-14.084,36.444-27.532,54.046-41.872c3.921-3.193,6.998-8.937,7.138-13.581 c0.606-20.691,0.407-41.395,0.345-65.871C71.066,44.459,75.925,39.599,81.922,39.599z" />
<path fill="#3B4652" d="M451.009,443.937c0.079-0.787,0.157-1.574,0.157-2.361v-69.568c-11.647,1.182-23.297,2.281-34.941,3.465	v66.104c0,0.787,0.078,1.574,0.157,2.361h-216.34c0.787-0.63,1.181-1.653,1.181-3.463c-0.158-19.36-0.079-38.722-0.079-58.158 c0-17.628,0-35.335-0.079-53.042c0-3.463-0.155-6.925-0.708-10.311c-4.249-26.128-31.164-43.757-56.817-37.382 c-21.956,5.51-36.83,25.026-36.83,48.792c-0.079,36.598,0,73.189,0,109.862c0,2.046,0,3.148,0.472,3.699H69.01 c0.158-0.787,0.236-1.574,0.236-2.361V313.297c0,0,0,0,0.079,0V273.16c0-5.509,2.597-10.781,7.158-14.087l4.328-3.146 l151.651-109.862c6.139-4.407,14.402-4.407,20.54,0l72.874,52.806l0.551-0.393c0-0.079-0.079-0.158-0.079-0.236 c0.079-13.457,9.68-24.317,22.586-26.206L243.326,94.99l-0.633,0.473l-0.629-0.473L50.753,234.442l-16.527,12.041v195.091 c0,0.787,0.079,1.574,0.236,2.361h-17.55v30.22h451.564v-30.22L451.009,443.937L451.009,443.937z" />
<path fill="#EE2E33" d="M353.32,179.534c-10.789-0.049-19.017,8.079-19.063,18.771c-0.052,10.641,8.178,18.918,18.918,19.017 c10.592,0.1,19.017-8.227,19.063-18.82C372.238,187.812,364.061,179.583,353.32,179.534z M353.222,208.602 c-5.813-0.049-10.247-4.483-10.247-10.247c0.049-5.766,4.481-10.149,10.297-10.149c5.813,0.05,10.247,4.483,10.247,10.247 C363.47,204.167,358.937,208.699,353.222,208.602z" />
<path fill="#EE2E33" d="M442.629,229.762l-31.49,2.922c-0.021,0-0.021,0-0.021,0c-3.55-1.186-7.045-3.291-10.503-4.789	c-9.412-4.105-18.768-8.396-27.791-12.444c1.926-5.011,3.606-9.449,5.566-14.552C399.581,210.42,421.105,220.09,442.629,229.762z" />
<path fill="#EE2E33" d="M273.106,246.273c18.604-13.295,37.222-26.59,56.045-40.051c2.922,4.382,5.658,8.506,8.672,13.034 c-11.39,8.101-22.596,16.588-34.374,24.188L273.106,246.273z" />
<path fill="#EE2E33" d="M500.548,316.783c1.759,17.584-11.071,33.267-28.656,35.025l-211.607,21.17 c-17.585,1.759-33.27-11.071-35.026-28.656l-5.176-51.742c-1.761-17.584,11.069-33.267,28.653-35.023l211.61-21.169 c17.586-1.762,33.268,11.068,35.025,28.653L500.548,316.783z" />

			<g>
<path fill="#FFFFFF" d="M239.577,326.959l12.58-2.507c1.192,4.188,3.058,7.165,5.596,8.931c2.538,1.765,5.792,2.449,9.763,2.051 c4.205-0.421,7.285-1.627,9.238-3.621c1.955-1.992,2.813-4.18,2.574-6.563c-0.153-1.528-0.732-2.785-1.737-3.769 c-1.004-0.984-2.664-1.761-4.978-2.331c-1.583-0.376-5.162-0.967-10.738-1.776c-7.173-1.033-12.298-2.673-15.374-4.92 c-4.327-3.16-6.746-7.3-7.259-12.418c-0.33-3.293,0.294-6.467,1.875-9.521c1.58-3.054,4.051-5.508,7.417-7.359 c3.363-1.852,7.531-3.025,12.501-3.523c8.117-0.813,14.405,0.354,18.864,3.501s7.089,7.682,7.89,13.601l-13,1.881 c-0.893-3.266-2.33-5.535-4.313-6.808c-1.984-1.271-4.814-1.724-8.49-1.355c-3.794,0.381-6.686,1.457-8.676,3.23 c-1.283,1.139-1.84,2.546-1.672,4.223c0.153,1.529,0.931,2.773,2.334,3.732c1.785,1.217,5.93,2.257,12.432,3.12 c6.503,0.864,11.356,1.945,14.561,3.243s5.806,3.25,7.805,5.857c1.999,2.606,3.203,5.954,3.612,10.041 c0.371,3.705-0.312,7.279-2.045,10.721c-1.735,3.441-4.406,6.138-8.013,8.088c-3.606,1.949-8.219,3.206-13.836,3.769 c-8.176,0.819-14.644-0.442-19.403-3.781C244.323,339.354,241.154,334.108,239.577,326.959z" />
<path fill="#FFFFFF" d="M299.406,309.962c-0.66-6.587-0.229-12.215,1.294-16.883c1.141-3.44,2.851-6.598,5.134-9.47 c2.281-2.871,4.873-5.092,7.776-6.66c3.857-2.108,8.418-3.427,13.683-3.954c9.528-0.954,17.449,1.236,23.762,6.575 c6.312,5.339,9.995,13.273,11.05,23.801c1.046,10.439-0.975,18.893-6.06,25.357c-5.086,6.465-12.378,10.173-21.877,11.124 c-9.616,0.964-17.558-1.204-23.82-6.503C304.084,328.051,300.437,320.256,299.406,309.962z M312.816,308.174 c0.733,7.322,2.98,12.705,6.741,16.145c3.76,3.44,8.243,4.899,13.449,4.378c5.205-0.521,9.288-2.823,12.251-6.908 c2.962-4.084,4.067-9.875,3.316-17.375c-0.742-7.411-2.921-12.775-6.535-16.098c-3.615-3.321-8.113-4.713-13.495-4.174 s-9.536,2.82-12.459,6.84C313.16,295.002,312.071,300.733,312.816,308.174z" />
<path fill="#FFFFFF" d="M375.877,334.562l-6.424-64.142l13.058-1.308l5.333,53.245l32.467-3.252l1.091,10.896L375.877,334.562z" />
<path fill="#FFFFFF" d="M424.188,264.404l23.865-2.391c5.383-0.539,9.525-0.537,12.432,0.003c3.905,0.737,7.354,2.397,10.345,4.978 c2.992,2.582,5.4,5.87,7.226,9.858c1.825,3.991,3.042,9.016,3.648,15.074c0.533,5.323,0.331,9.976-0.606,13.962 c-1.146,4.867-3.074,8.907-5.781,12.119c-2.045,2.433-4.93,4.459-8.659,6.081c-2.791,1.199-6.598,2.041-11.421,2.524l-24.57,2.461 L424.188,264.404z M438.342,274.036l4.29,42.834l9.749-0.977c3.646-0.365,6.258-0.835,7.835-1.408 c2.063-0.742,3.731-1.814,5.002-3.22c1.27-1.403,2.201-3.599,2.794-6.584c0.592-2.985,0.638-6.978,0.137-11.977 s-1.326-8.794-2.477-11.381c-1.15-2.588-2.596-4.553-4.333-5.894c-1.738-1.34-3.855-2.153-6.349-2.438 c-1.865-0.229-5.459-0.078-10.781,0.455L438.342,274.036z" />

			</g>
		</svg>
	</svg:symbol>

	<svg:symbol id="psf-icon">
		<svg viewBox="0 0 512 512">
			<path d="M0 252.118V48C0 21.49 21.49 0 48 0h204.118a48 48 0 0 1 33.941 14.059l211.882 211.882c18.745 18.745 18.745 49.137 0 67.882L293.823 497.941c-18.745 18.745-49.137 18.745-67.882 0L14.059 286.059A48 48 0 0 1 0 252.118zM112 64c-26.51 0-48 21.49-48 48s21.49 48 48 48 48-21.49 48-48-21.49-48-48-48z"></path>
		</svg>
	</svg:symbol>
</svg>