<svg width="100%" height="100%" viewBox="0 0 54 54" fill="none" xmlns="http://www.w3.org/2000/svg">
<circle cx="27" cy="27" r="27" fill="var(--theme-body-background)"/>
<path d="M20.3927 37.9944C20.0155 38.6425 19.1794 38.8675 18.5724 38.4272C17.3201 37.5187 16.2306 36.3996 15.3539 35.1167C14.2212 33.4592 13.4725 31.57 13.1622 29.5866C12.8519 27.6032 12.9879 25.5756 13.5602 23.6513C14.1325 21.7271 15.1268 19.9548 16.4706 18.4633C17.8144 16.9719 19.4739 15.799 21.3283 15.0299C23.1827 14.2608 25.1852 13.915 27.1901 14.0176C29.195 14.1203 31.1518 14.6687 32.9179 15.6231C34.2849 16.3618 35.5111 17.3293 36.5447 18.4804C37.0458 19.0384 36.9088 19.8933 36.3034 20.3358V20.3358C35.6979 20.7783 34.8541 20.639 34.3391 20.0939C33.5534 19.2623 32.6384 18.5589 31.6269 18.0123C30.216 17.2499 28.6529 16.8118 27.0513 16.7298C25.4497 16.6478 23.85 16.9241 22.3686 17.5384C20.8873 18.1528 19.5616 19.0898 18.4881 20.2812C17.4147 21.4726 16.6204 22.8884 16.1632 24.4255C15.706 25.9627 15.5974 27.5824 15.8453 29.1668C16.0932 30.7513 16.6913 32.2604 17.5961 33.5845C18.2448 34.5338 19.0394 35.3708 19.9481 36.0658C20.5437 36.5214 20.7699 37.3462 20.3927 37.9944V37.9944Z" fill="var(--theme-sub-heading-color)"/>
<circle cx="28" cy="28" r="4" fill="var(--theme-sub-heading-color)"/>
<rect x="25.1475" y="28.0896" width="18.4828" height="3" rx="1.5" transform="rotate(-40.8516 25.1475 28.0896)" fill="var(--theme-sub-heading-color)"/>
</svg>
