<svg xmlns="http://www.w3.org/2000/svg" viewBox="0.5 -11.5 500 500">
	<polygon style="fill:#3B4652;" points="285.745,192.496 285.745,227.518 252.69,251.204 252.69,192.496 "/>
	<path style="fill:#3B4652;" d="M202.417,192.496c0,19.836,0,39.288,0,58.935c11.232,0,22.149,0,33.048,0c0-19.89,0-39.349,0-58.935
	C224.368,192.496,213.641,192.496,202.417,192.496z"/>
	<path style="fill:#3B4652;" d="M81.922,39.599h41.147c5.985,0,10.842,4.853,10.842,10.839v25.152
	c4.891-3.356,7.597-5.038,10.071-6.943c26.828-20.619,53.626-41.27,80.419-61.921c12.215-9.413,26.093-8.978,39.771,1.507
	c38.549,29.532,77.045,59.116,115.548,88.694c31.211,23.977,62.364,48.011,93.625,71.938c8.398,6.43,13.699,13.933,11.672,23.991
	c-3.918,19.438-28.821,26.51-46.864,12.963c-26.807-20.127-53.162-40.709-79.702-61.104
	c-34.997-26.896-70.188-53.604-104.819-80.854c-7.56-5.945-12.09-6.282-19.98-0.17c-61.028,47.273-122.482,94.141-183.939,141
	c-4.288,3.27-9.282,6.436-14.589,7.978c-12.027,3.494-25.079-1.276-31.354-10.411c-6.565-9.563-4.498-22.375,5.789-30.476
	c17.886-14.084,36.444-27.532,54.046-41.872c3.921-3.193,6.998-8.937,7.139-13.581c0.605-20.69,0.406-41.395,0.345-65.871
	C71.066,44.459,75.925,39.599,81.922,39.599z"/>
	<path style="fill:#3B4652;" d="M451.009,443.937c0.079-0.787,0.157-1.574,0.157-2.361v-69.568
	c-11.647,1.183-23.298,2.281-34.941,3.466v66.104c0,0.787,0.078,1.574,0.157,2.361h-216.34c0.787-0.63,1.181-1.653,1.181-3.463
	c-0.158-19.36-0.079-38.723-0.079-58.158c0-17.628,0-35.335-0.079-53.042c0-3.463-0.154-6.925-0.708-10.312
	c-4.249-26.128-31.164-43.757-56.816-37.382c-21.956,5.511-36.83,25.026-36.83,48.792c-0.079,36.599,0,73.189,0,109.862
	c0,2.046,0,3.148,0.472,3.699H69.01c0.158-0.787,0.236-1.574,0.236-2.361V313.297c0,0,0,0,0.079,0V273.16
	c0-5.509,2.597-10.781,7.157-14.087l4.328-3.146l151.651-109.862c6.139-4.407,14.401-4.407,20.54,0l72.874,52.806l0.551-0.393
	c0-0.079-0.079-0.158-0.079-0.236c0.079-13.457,9.68-24.317,22.586-26.206L243.326,94.99l-0.634,0.473l-0.629-0.473L50.753,234.442
	l-16.527,12.041v195.091c0,0.787,0.079,1.574,0.236,2.361h-17.55v30.22h451.563v-30.22L451.009,443.937L451.009,443.937z"/>
	<path style="fill:#E2CA27;" d="M353.32,179.534c-10.789-0.049-19.017,8.079-19.063,18.771c-0.053,10.641,8.178,18.918,18.918,19.017
	c10.592,0.1,19.017-8.227,19.063-18.82C372.238,187.812,364.061,179.583,353.32,179.534z M353.222,208.602
	c-5.813-0.049-10.247-4.483-10.247-10.247c0.049-5.767,4.48-10.149,10.297-10.149c5.813,0.05,10.247,4.483,10.247,10.247
	C363.47,204.167,358.937,208.699,353.222,208.602z"/>
	<path style="fill:#E2CA27;" d="M442.629,229.762l-31.49,2.922c-0.021,0-0.021,0-0.021,0c-3.55-1.187-7.045-3.291-10.503-4.789
	c-9.412-4.105-18.768-8.396-27.791-12.444c1.927-5.011,3.606-9.449,5.566-14.552C399.58,210.42,421.105,220.09,442.629,229.762z"/>
	<path style="fill:#E2CA27;" d="M273.106,246.273c18.604-13.295,37.222-26.59,56.045-40.051c2.922,4.382,5.658,8.506,8.672,13.033
	c-11.39,8.102-22.596,16.589-34.374,24.188L273.106,246.273z"/>
	<path style="fill:#E2CA27;" d="M500.548,316.783c1.759,17.584-11.071,33.267-28.656,35.025l-211.606,21.17
	c-17.585,1.759-33.271-11.071-35.026-28.656l-5.176-51.742c-1.762-17.584,11.068-33.267,28.652-35.022l211.61-21.169
	c17.586-1.763,33.268,11.067,35.024,28.652L500.548,316.783z"/>
	<g>
		<path style="fill:#FFFFFF;" d="M254.81,351.604l-7.23-72.2l14.185-1.421l34.379,45.256l-4.829-48.216l13.543-1.356l7.231,72.2
		l-14.627,1.465l-33.822-44.168l4.716,47.084L254.81,351.604z"/>
		<path style="fill:#FFFFFF;" d="M327.502,344.323l-7.231-72.2l53.535-5.36l1.223,12.214l-38.956,3.9l1.604,16.006l36.248-3.631
		l1.218,12.165l-36.247,3.631l1.968,19.65l40.335-4.04l1.219,12.165L327.502,344.323z"/>
		<path style="fill:#FFFFFF;" d="M405.021,336.56l-24.469-70.475l14.923-1.495l15.851,48.505l8.232-50.916l17.336-1.736
		l17.707,49.164l6.031-51.542l14.676-1.47l-10.301,73.956l-15.465,1.549l-19.787-52.538l-8.927,55.414L405.021,336.56z"/>
	</g>
</svg>
