<svg xmlns="http://www.w3.org/2000/svg" viewBox="-3.667 -18.924 512 512">
	<polygon style="fill:#3B4652;" points="285.745,192.496 285.745,227.517 252.691,251.204 252.691,192.496 "/>
	<path style="fill:#3B4652;" d="M202.417,192.496c0,19.836,0,39.288,0,58.934c11.233,0,22.15,0,33.048,0c0-19.889,0-39.348,0-58.934
	C224.368,192.496,213.641,192.496,202.417,192.496z"/>
	<path style="fill:#3B4652;" d="M81.922,39.598h41.148c5.985,0,10.841,4.853,10.841,10.839v25.153
	c4.891-3.357,7.597-5.039,10.072-6.944c26.828-20.619,53.626-41.269,80.419-61.921c12.214-9.413,26.092-8.977,39.771,1.507
	c38.549,29.532,77.045,59.116,115.548,88.694c31.211,23.977,62.364,48.011,93.625,71.938c8.399,6.43,13.699,13.933,11.672,23.991
	c-3.918,19.439-28.821,26.51-46.864,12.963c-26.807-20.127-53.162-40.709-79.702-61.104c-34.997-26.896-70.188-53.605-104.82-80.854
	c-7.559-5.945-12.09-6.282-19.98-0.17c-61.029,47.274-122.483,94.141-183.94,141c-4.288,3.27-9.282,6.436-14.589,7.978
	c-12.027,3.494-25.079-1.277-31.354-10.411c-6.566-9.563-4.498-22.375,5.789-30.476c17.886-14.084,36.444-27.532,54.046-41.872
	c3.921-3.193,6.998-8.937,7.138-13.581c0.606-20.691,0.407-41.395,0.345-65.871C71.067,44.459,75.925,39.598,81.922,39.598z"/>
	<path style="fill:#3B4652;" d="M451.009,443.936c0.079-0.787,0.157-1.574,0.157-2.361v-69.568
	c-11.647,1.182-23.297,2.281-34.941,3.465v66.104c0,0.787,0.078,1.574,0.157,2.361h-216.34c0.787-0.63,1.181-1.653,1.181-3.463
	c-0.158-19.36-0.079-38.722-0.079-58.158c0-17.628,0-35.335-0.079-53.042c0-3.463-0.155-6.925-0.708-10.311
	c-4.249-26.128-31.164-43.757-56.817-37.382c-21.956,5.51-36.83,25.026-36.83,48.792c-0.079,36.598,0,73.189,0,109.862
	c0,2.046,0,3.148,0.472,3.699H69.01c0.158-0.787,0.236-1.574,0.236-2.361V313.297c0,0,0,0,0.079,0V273.16
	c0-5.509,2.597-10.781,7.158-14.087l4.328-3.146l151.651-109.862c6.139-4.407,14.402-4.407,20.54,0l72.874,52.806l0.551-0.393
	c0-0.079-0.079-0.158-0.079-0.236c0.079-13.457,9.68-24.317,22.586-26.206L243.326,94.99l-0.633,0.473l-0.629-0.473L50.753,234.442
	l-16.527,12.041v195.091c0,0.787,0.079,1.574,0.236,2.361h-17.55v30.22h451.564v-30.22L451.009,443.936L451.009,443.936z"/>
	<path style="fill:#2D7ABF;" d="M353.321,179.534c-10.789-0.049-19.017,8.079-19.063,18.771
	c-0.052,10.641,8.178,18.918,18.918,19.017c10.592,0.1,19.017-8.227,19.063-18.82C372.239,187.811,364.061,179.583,353.321,179.534z
	 M353.222,208.601c-5.813-0.049-10.247-4.483-10.247-10.247c0.049-5.766,4.481-10.149,10.297-10.149
	c5.813,0.05,10.247,4.483,10.247,10.247C363.47,204.167,358.937,208.699,353.222,208.601z"/>
	<path style="fill:#2D7ABF;" d="M442.629,229.761l-31.49,2.922c-0.021,0-0.021,0-0.021,0c-3.55-1.186-7.045-3.291-10.503-4.789
	c-9.412-4.105-18.768-8.396-27.791-12.444c1.926-5.011,3.606-9.449,5.566-14.552C399.581,210.42,421.106,220.09,442.629,229.761z"/>
	<path style="fill:#2D7ABF;" d="M273.107,246.273c18.604-13.295,37.222-26.59,56.045-40.051c2.922,4.382,5.658,8.506,8.672,13.034
	c-11.39,8.101-22.596,16.588-34.374,24.188L273.107,246.273z"/>
	<g>
		<path style="fill:#2D7ABF;" d="M500.548,316.783c1.759,17.584-11.071,33.267-28.656,35.025l-211.607,21.17
		c-17.585,1.759-33.27-11.071-35.026-28.656l-5.176-51.742c-1.761-17.584,11.069-33.267,28.653-35.023l211.61-21.169
		c17.586-1.762,33.268,11.068,35.025,28.653L500.548,316.783z"/>
		<g style="enable-background:new    ;">
			<path style="fill:#FFFFFF;" d="M273.96,285.513l1.184,11.84c-8.398-2.81-14.983-3.978-19.755-3.5
			c-2.718,0.271-4.833,0.941-6.347,2.016c-1.514,1.07-2.195,2.358-2.044,3.86c0.115,1.157,0.804,2.197,2.063,3.122
			c1.26,0.926,4.213,1.987,8.86,3.188c4.646,1.199,8.385,2.373,11.215,3.521c2.83,1.147,5.351,2.911,7.56,5.289
			s3.511,5.533,3.903,9.466c0.562,5.608-1.125,10.29-5.058,14.041s-9.382,5.975-16.351,6.671
			c-7.518,0.751-14.999-0.472-22.442-3.669l-1.306-13.054c4.319,2.313,8.104,3.937,11.351,4.865
			c3.247,0.932,6.619,1.223,10.118,0.871c5.927-0.592,8.704-2.753,8.331-6.479c-0.128-1.271-0.842-2.411-2.14-3.418
			c-1.298-1.011-4.291-2.097-8.979-3.262c-4.688-1.167-8.423-2.312-11.207-3.435c-2.783-1.124-5.266-2.877-7.444-5.258
			c-2.18-2.383-3.471-5.583-3.873-9.604c-0.521-5.206,1.156-9.615,5.028-13.23s9.322-5.774,16.348-6.478
			C259.454,282.232,266.448,283.111,273.96,285.513z"/>
			<path style="fill:#FFFFFF;" d="M313.187,276.859c10.322-1.031,18.988,1.25,26.002,6.84c7.013,5.592,10.933,12.522,11.759,20.792
			c0.839,8.385-1.672,15.979-7.531,22.785c-5.861,6.807-13.865,10.716-24.015,11.73c-10.264,1.025-18.927-1.201-25.985-6.688
			c-7.062-5.484-11.014-12.447-11.856-20.891c-0.83-8.3,1.646-15.875,7.429-22.731C294.77,281.843,302.836,277.894,313.187,276.859z
			 M318.144,326.429c5.725-0.572,10.167-2.73,13.325-6.479c3.158-3.746,4.462-8.381,3.909-13.902
			c-0.556-5.553-2.751-9.844-6.587-12.877c-3.838-3.033-8.617-4.264-14.343-3.69c-5.754,0.576-10.218,2.729-13.393,6.465
			c-3.175,3.734-4.484,8.376-3.929,13.928c0.552,5.521,2.754,9.808,6.605,12.853C307.587,325.771,312.39,327.006,318.144,326.429z" />
			<path style="fill:#FFFFFF;" d="M385.93,269.586c10.321-1.032,18.988,1.249,26.001,6.841s10.933,12.521,11.76,20.79
			c0.839,8.386-1.673,15.979-7.533,22.785c-5.859,6.808-13.863,10.718-24.013,11.73c-10.265,1.026-18.927-1.201-25.986-6.687
			c-7.061-5.485-11.014-12.448-11.856-20.891c-0.83-8.299,1.646-15.876,7.43-22.732C367.513,274.567,375.578,270.621,385.93,269.586
			z M390.887,319.156c5.725-0.572,10.166-2.731,13.324-6.479s4.462-8.383,3.909-13.903c-0.555-5.551-2.751-9.844-6.588-12.876
			c-3.836-3.034-8.617-4.263-14.342-3.69c-5.754,0.574-10.218,2.729-13.393,6.464c-3.175,3.733-4.484,8.376-3.93,13.93
			c0.553,5.521,2.755,9.805,6.606,12.851C380.329,318.497,385.133,319.73,390.887,319.156z"/>
			<path style="fill:#FFFFFF;" d="M487.981,260.169l6.059,60.586l-12.745,1.273l-37.322-35.471l3.881,38.814l-15.092,1.509
			l-6.06-60.586l13.839-1.383l36.053,33.801l-3.703-37.035L487.981,260.169z"/>
		</g>
	</g>
</svg>
