<?xml version="1.0" encoding="utf-8"?>
<!-- Generator: Adobe Illustrator 13.0.0, SVG Export Plug-In . SVG Version: 6.00 Build 14948)  -->
<!DOCTYPE svg PUBLIC "-//W3C//DTD SVG 1.1//EN" "http://www.w3.org/Graphics/SVG/1.1/DTD/svg11.dtd">
<svg version="1.1" id="Layer_1" xmlns="http://www.w3.org/2000/svg" xmlns:xlink="http://www.w3.org/1999/xlink" x="0px" y="0px"
	 width="512px" height="512px" viewBox="-3.667 -18.924 512 512" style="enable-background:new -3.667 -18.924 512 512;"
	 xml:space="preserve">
<polygon style="fill:#3B4652;" points="285.745,192.496 285.745,227.517 252.691,251.204 252.691,192.496 "/>
<path style="fill:#3B4652;" d="M202.417,192.496c0,19.836,0,39.288,0,58.933c11.234,0,22.151,0,33.048,0c0-19.888,0-39.347,0-58.933
	C224.368,192.496,213.641,192.496,202.417,192.496z"/>
<path style="fill:#3B4652;" d="M81.922,39.598h41.149c5.985,0,10.84,4.853,10.84,10.839v25.154c4.891-3.358,7.597-5.04,10.073-6.945
	c26.828-20.619,53.626-41.268,80.419-61.921c12.213-9.413,26.091-8.976,39.771,1.507c38.549,29.532,77.045,59.116,115.548,88.694
	c31.211,23.977,62.364,48.011,93.625,71.938c8.4,6.43,13.699,13.933,11.672,23.991c-3.918,19.44-28.821,26.51-46.864,12.963
	c-26.807-20.127-53.162-40.709-79.702-61.104c-34.997-26.896-70.188-53.606-104.821-80.854c-7.558-5.945-12.09-6.282-19.98-0.17
	c-61.03,47.275-122.484,94.141-183.941,141c-4.288,3.27-9.282,6.436-14.589,7.978c-12.027,3.494-25.079-1.278-31.353-10.411
	c-6.567-9.563-4.498-22.375,5.789-30.476c17.886-14.084,36.444-27.532,54.046-41.872c3.921-3.193,6.998-8.937,7.137-13.581
	c0.607-20.692,0.408-41.395,0.345-65.871C71.067,44.459,75.925,39.598,81.922,39.598z"/>
<path style="fill:#3B4652;" d="M451.009,443.936c0.079-0.787,0.157-1.574,0.157-2.361v-69.568
	c-11.647,1.181-23.296,2.281-34.941,3.464v66.104c0,0.787,0.078,1.574,0.157,2.361h-216.34c0.787-0.63,1.181-1.653,1.181-3.463
	c-0.158-19.36-0.079-38.721-0.079-58.158c0-17.628,0-35.335-0.079-53.042c0-3.463-0.156-6.925-0.708-10.31
	c-4.249-26.128-31.164-43.757-56.818-37.382c-21.956,5.51-36.83,25.026-36.83,48.792c-0.079,36.597,0,73.189,0,109.862
	c0,2.046,0,3.148,0.472,3.699H69.01c0.158-0.787,0.236-1.574,0.236-2.361V313.297c0,0,0,0,0.079,0V273.16
	c0-5.509,2.597-10.781,7.159-14.087l4.328-3.146l151.651-109.862c6.139-4.407,14.402-4.407,20.54,0l72.874,52.806l0.551-0.393
	c0-0.079-0.079-0.158-0.079-0.236c0.079-13.457,9.68-24.317,22.586-26.206L243.326,94.99l-0.632,0.473l-0.629-0.473L50.753,234.442
	l-16.527,12.041v195.091c0,0.787,0.079,1.574,0.236,2.361h-17.55v30.22h451.565v-30.22L451.009,443.936L451.009,443.936z"/>
<path style="fill:#2D7ABF;" d="M353.321,179.534c-10.789-0.049-19.017,8.079-19.064,18.771
	c-0.051,10.641,8.178,18.918,18.918,19.017c10.592,0.1,19.017-8.227,19.064-18.82C372.239,187.811,364.061,179.583,353.321,179.534z
	 M353.222,208.601c-5.813-0.049-10.247-4.483-10.247-10.247c0.049-5.765,4.482-10.149,10.297-10.149
	c5.813,0.05,10.247,4.483,10.247,10.247C363.47,204.167,358.937,208.699,353.222,208.601z"/>
<path style="fill:#2D7ABF;" d="M442.629,229.761l-31.49,2.922c-0.02,0-0.02,0-0.02,0c-3.55-1.185-7.045-3.291-10.503-4.789
	c-9.412-4.105-18.768-8.396-27.791-12.444c1.925-5.011,3.606-9.449,5.566-14.552C399.582,210.42,421.106,220.09,442.629,229.761z"/>
<path style="fill:#2D7ABF;" d="M273.107,246.273c18.604-13.295,37.222-26.59,56.045-40.051c2.922,4.382,5.658,8.506,8.672,13.035
	c-11.39,8.1-22.596,16.587-34.374,24.187L273.107,246.273z"/>
<path style="fill:#2D7ABF;" d="M500.548,312.783c1.759,17.584-11.071,33.267-28.656,35.025l-211.608,21.17
	c-17.585,1.759-33.269-11.071-35.026-28.656l-5.176-51.742c-1.76-17.584,11.07-33.267,28.654-35.024l211.61-21.169
	c17.586-1.761,33.268,11.069,35.026,28.654L500.548,312.783z"/>
<text transform="matrix(0.995 -0.0995 0.0995 0.995 231.7488 342.9841)" style="fill:#FFFFFF; font-family:'GillSansMT-Bold'; font-size:89.2619; letter-spacing:-4;">SOON</text>
</svg>
