<svg xmlns="http://www.w3.org/2000/svg" viewBox="0 0 50 50">
<path d="M28.7915 23.6212L28.7916 23.6219L29.4686 44.0925L20.6647 25.5994" fill="#B0BCC1" style="stroke: #555;stroke-linejoin: round;" />
<path d="M24.9368 25.4694C30.4682 24.1235 33.8612 18.5483 32.5153 13.0169C31.1694 7.48556 25.5942 4.09256 20.0628 5.43848C14.5314 6.7844 11.1384 12.3596 12.4844 17.891C13.8303 23.4223 19.4055 26.8153 24.9368 25.4694Z" fill="#C32033" style="stroke: #555;" />

	<path d="M28.1319 14.3775C29.1775 14.1231 29.8189 13.0693 29.5645 12.0237C29.3101 10.978 28.2562 10.3367 27.2106 10.5911C26.165 10.8455 25.5236 11.8994 25.7781 12.945C26.0325 13.9906 27.0863 14.632 28.1319 14.3775Z" fill="#FF645F" />
</svg>