<svg version="1.1" id="Up"
	xmlns="http://www.w3.org/2000/svg" viewBox="0 0 500 500" style="enable-background:new 0 0 500 500;" xml:space="preserve">
	<style type="text/css">
	.st0{fill:#6A973E;}
	.st1{font-family:'MyriadPro-Bold';}
	.st2{font-size:163.5861px;}
	</style>
	<path class="st0" d="M62.2,488.4H32.16c-9.04,0-16.36-7.32-16.36-16.36V213.83h63.52v257.45C79.32,480.74,71.65,488.4,62.2,488.4z" />
	<path class="st0" d="M144.16,488.4h-30.04c-9.04,0-16.36-7.32-16.36-16.36V213.83h63.52v257.45
	C161.28,480.74,153.61,488.4,144.16,488.4z"/>
	<path class="st0" d="M226.12,488.4h-30.04c-9.04,0-16.36-7.32-16.36-16.36V213.83h63.52v257.45
	C243.24,480.74,235.57,488.4,226.12,488.4z"/>
	<path class="st0" d="M308.08,488.4h-30.04c-9.04,0-16.36-7.32-16.36-16.36V213.83h63.52v257.45
	C325.2,480.74,317.53,488.4,308.08,488.4z"/>
	<path class="st0" d="M390.04,488.4H360c-9.04,0-16.36-7.32-16.36-16.36V213.83h63.52v257.45
	C407.16,480.74,399.49,488.4,390.04,488.4z"/>
	<path class="st0" d="M456.64,488.4L456.64,488.4c-17.14,0-31.04-15.39-31.04-34.37c0-64.34,0-128.69,0-193.03
	c21.68-19.82,43.36-39.64,65.04-59.46c-0.51,83.63-1.01,167.26-1.52,250.89C489.12,472.3,474.57,488.4,456.64,488.4z"/>
	<polygon class="st0" points="425.18,239.79 425.18,200.17 15.8,200.17 15.8,168.3 425.18,168.3 425.18,121.4 490.63,184.73 "/>
	<text transform="matrix(1 0 0 1 304.6309 149.042)" class="st0 st1 st2">$</text>
</svg>
