<?xml version="1.0" encoding="utf-8"?>
<svg version="1.1"
	xmlns="http://www.w3.org/2000/svg" viewBox="0 0 500 500">
	<path d="M346.05,152.13l-65.4-68.43c-1.64-1.57-9.38-8.66-21.5-8.78c-12.5-0.12-20.53,7.27-22.1,8.78
c-34.72,37.55-69.44,75.09-104.16,112.64L346.05,152.13z" />
	<path d="M119.57,365.36l280.38-53.9v53.9c-0.16,2.12-1.12,11.47-9.08,18.77c-7.08,6.5-15.2,7.26-17.56,7.4
c-76.1,0-152.2,0-228.3,0c-2.54-0.38-10.31-1.88-16.96-8.61C121.17,375.97,119.87,367.87,119.57,365.36z" />
<polygon fill="var(--sold-red)" points="34.63,229.25 64.1,366.51 471.06,282.54 445.22,147.7 " />


	<text x="240" y="200" class="center bold upper" transform="rotate(-12 240 200)" style="font-family: sans-serif;font-size:95; fill: var(--theme-body-background);">Sold</text>
</svg>
