<?xml version="1.0" encoding="utf-8"?>
<!-- Generator: Adobe Illustrator 24.3.0, SVG Export Plug-In . SVG Version: 6.00 Build 0)  -->
<svg version="1.1" id="Layer_1" xmlns="http://www.w3.org/2000/svg" xmlns:xlink="http://www.w3.org/1999/xlink" x="0px" y="0px"
	 viewBox="0 0 500 500" style="enable-background:new 0 0 500 500;" xml:space="preserve">
<style type="text/css">
	.st0{fill:#e5e5e5;}
	.st1{fill:#4AB862;}
	.st2{fill:#FFFFFF;}
	.st3{font-family:'OpenSans-Bold';}
	.st4{font-size:96.4729px; font-family: sans-serif; font-weight: 600;}
</style>
<path class="st0" d="M346.05,152.13l-65.4-68.43c-1.64-1.57-9.38-8.66-21.5-8.78c-12.5-0.12-20.53,7.27-22.1,8.78
	c-34.72,37.55-69.44,75.09-104.16,112.64L346.05,152.13z"/>
<path class="st0" d="M119.57,365.36l280.38-53.9v53.9c-0.16,2.12-1.12,11.47-9.08,18.77c-7.08,6.5-15.2,7.26-17.56,7.4
	c-76.1,0-152.2,0-228.3,0c-2.54-0.38-10.31-1.88-16.96-8.61C121.17,375.97,119.87,367.87,119.57,365.36z"/>
<polygon class="st1" points="36.94,227.12 66.41,364.38 473.36,280.41 447.52,145.57 "/>
<text  x="140" transform="matrix(0.9796 -0.2011 0.2011 0.9796 127.8252 315.1542)" class="st2 st3 st4" text-anchor="middle">ACTIVE</text>
</svg>
