<svg width="100%" height="100%" viewBox="0 0 44 44" fill="none" xmlns="http://www.w3.org/2000/svg">
<g clip-path="url(#clip0_1219:2)">
<path d="M40.3956 32.6291C42.118 33.7894 42.3238 36.247 40.817 37.6779L40.1346 38.3261L28.5504 29.1763L30.2804 27.5336C31.3842 26.4854 33.067 26.3446 34.3299 27.1948L40.3956 32.6291Z" fill="#B0BCC1"/>
<path d="M17.4842 9.61647C18.268 10.9213 18.0404 12.5946 16.9365 13.6431L15.2066 15.2854L7.47918 3.26498L8.16185 2.61674C9.66866 1.18592 12.1124 1.51879 13.182 3.29955L17.4842 9.61647Z" fill="#B0BCC1"/>
<path d="M40.1346 38.326L38.4935 39.884C26.2178 51.5406 -6.68704 16.7166 5.00608 5.61348L7.47917 3.26481L15.2066 15.2852L13.49 16.9162C13.0139 17.3677 12.857 18.0619 13.0921 18.6746C13.004 18.5343 15.3127 26.7834 25.0566 31.1123C25.6563 31.3788 26.3577 31.2583 26.8338 30.8062L28.5504 29.1761L40.1346 38.326Z" fill="#C32033"/>
<path d="M20.0493 32.8604C19.7244 33.1686 19.7111 33.6825 20.0196 34.0077C20.3287 34.3326 20.8423 34.3459 21.1669 34.0374C21.4925 33.7286 21.5058 33.2147 21.1966 32.89C20.8884 32.5645 20.3748 32.5512 20.0493 32.8604Z" fill="#5C5C5C"/>
<path d="M40.8988 31.9892L34.8724 26.5902C34.8445 26.5653 34.815 26.5424 34.7841 26.5216C33.1942 25.4507 31.1127 25.6249 29.7223 26.9449L26.2758 30.2173C26.0371 30.4443 25.6881 30.5041 25.387 30.3707C21.634 28.7032 18.5787 26.2601 16.3059 23.1097C14.5727 20.7074 13.9744 18.8186 13.896 18.5527C13.8873 18.496 13.8726 18.4394 13.8512 18.384C13.7332 18.0764 13.8109 17.7316 14.0503 17.505L17.4965 14.2316C18.8869 12.9114 19.1682 10.8416 18.1809 9.19848C18.173 9.18526 18.1648 9.17236 18.1562 9.15945L13.8663 2.86061C12.5225 0.652405 9.4814 0.245394 7.60383 2.02797L6.91368 2.68331C6.91335 2.68394 6.9127 2.68455 6.91206 2.68485L4.44808 5.02457C1.50991 7.81488 0.930007 12.1068 2.77142 17.4372C4.34867 22.0032 7.61228 27.0401 11.9609 31.6197C16.4125 36.3077 21.4061 39.8935 26.0218 41.7169C30.5904 43.5212 35.4911 43.8558 39.0534 40.4728L41.3772 38.2665C43.2464 36.4913 43.0067 33.4535 40.8988 31.9892ZM33.8338 27.8393L39.8549 33.2337C39.8825 33.2585 39.912 33.2815 39.9429 33.3023C41.2363 34.1736 41.3878 36.0175 40.2589 37.0891L40.0866 37.2531L29.7895 29.1197L30.8403 28.1222C31.6615 27.3421 32.8852 27.2288 33.8338 27.8393ZM12.4873 3.71735C12.4952 3.73057 12.5034 3.74379 12.512 3.75638L16.8 10.0529C17.3793 11.0358 17.2075 12.2671 16.3785 13.0543L15.3602 14.0216L8.52634 3.39092L8.7218 3.20531C9.85524 2.12903 11.687 2.38548 12.4873 3.71735ZM26.618 40.2066C22.2177 38.4685 17.4305 35.0219 13.1383 30.5018C8.94557 26.0867 5.80886 21.2586 4.30569 16.9071C3.17735 13.6408 2.48024 9.13212 5.56605 6.20223L7.32785 4.52897L14.1617 15.1596L12.9326 16.3273C12.2334 16.99 11.9931 17.9914 12.31 18.8968C12.539 19.9547 13.6613 22.1673 14.8089 23.8061C16.4977 26.2177 19.5894 29.5713 24.7278 31.8545C25.6308 32.2557 26.677 32.0753 27.3938 31.3949L28.6001 30.2491L38.8972 38.3825L37.9355 39.2954C34.6275 42.4369 29.9552 41.5248 26.618 40.2066Z" fill="#5C5C5C"/>
<path d="M18.5762 30.8832C17.7384 30.1094 16.2891 28.7782 15.529 27.9546C13.6651 25.9373 11.7177 23.4999 10.5677 21.7456C10.322 21.3706 9.81875 21.2656 9.44375 21.5116C9.06876 21.7573 8.96405 22.2606 9.20974 22.6356C10.6601 24.8481 12.809 27.403 14.3363 29.056C15.1386 29.9257 16.6003 31.2687 17.4744 32.0758C17.8031 32.3794 18.3166 32.3603 18.6218 32.0303C18.9259 31.7013 18.9056 31.1874 18.5762 30.8832Z" fill="#5C5C5C"/>
</g>
<defs>
<clipPath id="clip0_1219:2">
<rect width="41.5681" height="41.5681" fill="white" transform="translate(2 0.693359) rotate(1.48172)"/>
</clipPath>
</defs>
</svg>
