<svg id="SvgjsSvg1001" width="288" height="288" xmlns="http://www.w3.org/2000/svg" version="1.1" xmlns:xlink="http://www.w3.org/1999/xlink" xmlns:svgjs="http://svgjs.com/svgjs"><defs id="SvgjsDefs1002"></defs><g id="SvgjsG1008" transform="matrix(1,0,0,1,0,0)"><svg xmlns="http://www.w3.org/2000/svg" width="288" enable-background="new 0 0 490.667 490.667" viewBox="0 0 490.667 490.667" height="288"><path d="M245.333,0C110.059,0,0,110.059,0,245.333s110.059,245.333,245.333,245.333s245.333-110.059,245.333-245.333
						            S380.608,0,245.333,0z M245.333,469.333c-123.52,0-224-100.48-224-224s100.48-224,224-224s224,100.48,224,224
						            S368.853,469.333,245.333,469.333z" fill="#328840" class="color000 svgShape"></path><path d="M245.333,106.667c-5.888,0-10.667,4.779-10.667,10.667v256c0,5.888,4.779,10.667,10.667,10.667S256,379.221,256,373.333
						            v-256C256,111.445,251.221,106.667,245.333,106.667z" fill="#328840" class="color000 svgShape"></path><path d="M338.219,195.115l-85.333-85.333c-4.16-4.16-10.923-4.16-15.083,0l-85.333,85.333c-4.16,4.16-4.16,10.923,0,15.083
						            c4.16,4.16,10.923,4.16,15.083,0l77.781-77.781l77.781,77.803c2.091,2.069,4.821,3.115,7.552,3.115
						            c2.731,0,5.461-1.045,7.552-3.136C342.379,206.037,342.379,199.275,338.219,195.115z" fill="#328840" class="color000 svgShape"></path></svg></g></svg>