<?xml version="1.0" encoding="utf-8"?>
<!-- Generator: Adobe Illustrator 24.3.0, SVG Export Plug-In . SVG Version: 6.00 Build 0)  -->
<svg version="1.1" id="Up" xmlns="http://www.w3.org/2000/svg" xmlns:xlink="http://www.w3.org/1999/xlink" x="0px" y="0px"
	 viewBox="0 0 500 500" style="enable-background:new 0 0 500 500;" xml:space="preserve">
<style type="text/css">
	.st0{fill:none;stroke:url(#SVGID_1_);stroke-width:60;stroke-miterlimit:10;}
	.st1{fill:url(#SVGID_2_);}
	.st2{fill:url(#SVGID_3_);}
	.st3{fill:url(#SVGID_4_);}
</style>
<linearGradient id="SVGID_1_" gradientUnits="userSpaceOnUse" x1="483.04" y1="250" x2="16.96" y2="250">
	<stop  offset="0" style="stop-color:#EDA324"/>
	<stop  offset="1" style="stop-color:#F8B628"/>
</linearGradient>
<circle class="st0" cx="250" cy="250" r="203.04"/>
<linearGradient id="SVGID_2_" gradientUnits="userSpaceOnUse" x1="160.71" y1="253.35" x2="342.96" y2="253.35">
	<stop  offset="0" style="stop-color:#FCBD29"/>
	<stop  offset="1" style="stop-color:#EA9F23"/>
</linearGradient>
<path class="st1" d="M250,147.6l-89.29,119.34h42.84v92.16c16.03,0,32.06,0,48.09,0c14.96,0,29.92,0,44.88,0
	c0-30.36,0-60.72,0-91.08h46.44L250,147.6z"/>
<linearGradient id="SVGID_3_" gradientUnits="userSpaceOnUse" x1="203.4" y1="386.5" x2="296.4" y2="386.5">
	<stop  offset="0" style="stop-color:#FCBC29"/>
	<stop  offset="1" style="stop-color:#EBA123"/>
</linearGradient>
<rect x="203.4" y="376.96" class="st2" width="93" height="19.08"/>
<linearGradient id="SVGID_4_" gradientUnits="userSpaceOnUse" x1="203.4" y1="417.729" x2="296.4" y2="417.729">
	<stop  offset="0" style="stop-color:#FCBD29"/>
	<stop  offset="1" style="stop-color:#EBA123"/>
</linearGradient>
<path class="st3" d="M203.4,410.12c0.07,2.92,0.15,5.84,0.22,8.76c17.84,6.36,42.13,6.36,42.13,6.36s23.58,1.41,50.64-6.11
	c0-3,0-6,0-9H203.4z"/>
</svg>
