<svg xmlns="http://www.w3.org/2000/svg" viewBox="0 0 500 500">

	<path fill="#fff" d="M252.81,172.92c-23.28-23.89-46.56-47.77-69.84-71.66L49.64,219.96v160.16h100.18v-93.5h28.28
	c1.66-12.78,5.46-30,14.57-48.51C210.71,201.43,238.86,181.45,252.81,172.92z"/>
	<path fill="#fff" d="M269.97,158.98l-86.99-85.37L25.25,219.96c0,0-30.38,2.44-21.29-17.89L182.98,34.59l121.95,118.7L269.97,158.98
	z"/>
	<polygon fill="#fff" points="282.98,119.15 315.5,149.23 322,149.23 322,74.43 282.98,74.43 "/>
	<circle fill-opacity="0" stroke="#fff" stroke-width="15" cx="332.53" cy="306.96" r="156.04"/>

	<path fill="#fff" d="M342.71,320.25c-1.05-4.57-4.72-7.58-9.5-7.97c-4.18-0.35-8.39,2.31-10.09,6.35
		c-1.76,4.18-0.66,8.74,2.89,11.84c0.42,0.36,0.53,0.69,0.46,1.24c-0.53,4.49-1.03,8.99-1.52,13.49c-0.23,2.1,0.84,3.29,2.98,3.32
		c1.58,0.02,3.15,0,4.73,0c1.62,0,3.23,0.03,4.85-0.01c2.05-0.04,3.1-1.26,2.88-3.3c-0.48-4.42-0.96-8.84-1.49-13.25
		c-0.09-0.72,0.05-1.14,0.6-1.64C342.48,327.61,343.62,324.2,342.71,320.25z"/>
	<path fill="#fff" d="M353.3,280.2c-0.33-10.62-9.36-19.5-19.99-19.72c-11.83-0.24-21.21,8.84-21.35,20.69
		c-0.04,3.11,0.03,6.23-0.03,9.34c-0.02,0.87,0.23,1.05,1.07,1.05c6.55-0.04,13.1-0.02,19.65-0.02s13.1-0.02,19.65,0.02
		c0.85,0,1.07-0.2,1.06-1.06C353.31,287.07,353.41,283.63,353.3,280.2z"/>
	<path fill="#fff" d="M332.53,179.28c-70.52,0-127.68,57.16-127.68,127.68s57.16,127.68,127.68,127.68s127.68-57.16,127.68-127.68
		S403.05,179.28,332.53,179.28z M379.62,318.9c0,13.15,0.01,26.29,0,39.44c0,4.64-2.08,8.03-6.18,10.21
		c-1.01,0.54-2.12,0.39-3.16,0.68c-25.16,0-50.32,0-75.49,0c-5.86-1.12-9.1-5.07-9.1-11.12c0-20.75,0-41.5,0-62.25
		c0-0.32,0-0.65,0-0.97c0.05-2.58,1.13-3.65,3.75-3.69c1.74-0.02,3.48,0.01,5.22-0.01c1.35-0.01,1.46-0.12,1.46-1.45
		c0.01-3.16-0.05-6.31,0.01-9.47c0.19-9.4,3.63-17.48,10.06-24.29c5.23-5.55,11.64-9.06,19.09-10.63c3.31-0.69,6.68-0.61,10.03-0.5
		c7.95,0.27,14.88,3.29,20.88,8.36c7.22,6.09,11.47,13.91,12.73,23.3c0.55,4.06,0.14,8.16,0.25,12.24c0.01,0.32,0,0.65,0,0.97
		c0.03,1.34,0.12,1.45,1.46,1.46c1.78,0.02,3.56-0.02,5.34,0.01c2.51,0.05,3.62,1.15,3.63,3.68
		C379.64,302.88,379.62,310.89,379.62,318.9z"/>

</svg>
