<svg xmlns="http://www.w3.org/2000/svg" viewBox="0 0 500 500" fill="#ffffff">

	<path fill="#fff" d="M252.81,172.92c-23.28-23.89-46.56-47.77-69.84-71.66L49.64,219.96v160.16h100.18v-93.5h28.28
	c1.66-12.78,5.46-30,14.57-48.51C210.71,201.43,238.86,181.45,252.81,172.92z"/>
	<path fill="#fff" d="M273.54,162.76c-26.96-26.55-53.92-53.1-80.88-79.64c-5.42-5.32-14.06-5.44-19.63-0.27L31.86,213.83
	c-2.79,2.59-7.05,2.77-10.05,0.42l-9.67-7.56c-3.75-2.93-4-8.52-0.52-11.77L173.07,43.86c5.54-5.19,14.19-5.1,19.63,0.19
	c37.79,36.51,75.58,73.03,113.36,109.54C295.22,156.65,284.38,159.71,273.54,162.76z"/>
	<polygon fill="#fff" points="282.98,119.15 315.5,149.23 322,149.23 322,74.43 282.98,74.43 "/>
	<circle fill-opacity="0" stroke="#fff" stroke-width="15" cx="328.09" cy="309" r="156.04"/>
	<path fill="#fff" d="M338.14,287.78c-8.14-0.91-16-2.94-23.68-5.75c-14.91-5.45-28.35-13.53-40.99-23.02
		c-0.41-0.31-0.74-0.85-1.4-0.77c0,27.64,0,55.24,0,82.91c0.19,0.01,0.25,0.04,0.28,0.02c2.23-1.61,4.44-3.25,6.7-4.82
		c17.97-12.54,37.28-21.86,59.31-24.64c0.84-0.11,0.96-0.44,0.95-1.16c-0.02-7.14-0.03-14.29,0.01-21.43
		C339.33,288.2,339.03,287.88,338.14,287.78z"/>
	<path fill="#fff" d="M328.09,183.42c-70.52,0-127.68,57.16-127.68,127.68s57.16,127.68,127.68,127.68s127.68-57.16,127.68-127.68
		S398.6,183.42,328.09,183.42z M406.5,310.42c-0.72,2.15-1.32,4.35-2.81,6.17c-2.75,3.37-6.16,5.46-10.61,5.53
		c-3.37,0.06-6.74,0.04-10.11,0.03c-0.73,0-1.18,0.03-0.91,0.99c3.04,10.62,2.44,21.15-0.67,31.65c-1.77,5.95-4.01,11.75-5.85,17.67
		c-0.24,0.76-0.85,1.13-1.42,1.54c-3.49,2.52-7.52,3.58-11.71,4.06c-5.46,0.63-10.79,0.01-15.89-2.12c-2.63-1.1-4.88-2.71-6.54-5.11
		c-0.6-0.87-0.63-1.36,0.3-2.07c3.45-2.63,6.74-5.45,9.38-8.96c3.25-4.32,3.55-8.85,1.17-13.63c-0.24-0.48-0.65-0.89-0.09-1.49
		c5.72-5.96,3.15-16.61-4.75-20.93c-1.79-0.98-3.57-1.23-5.57-0.99c-15.53,1.88-29.75,7.42-43.19,15.22
		c-8.53,4.96-16.52,10.68-24.11,16.97c-0.96,0.79-1.86,0.89-2.95,0.69c-5.29-0.99-9.2-5.39-9.26-10.82
		c-0.11-10.31-0.04-20.62-0.05-30.93c0-0.15,0-0.31,0-0.46c0-2.28,0-2.28-2.19-2.66c-5.37-0.94-9.25-5.93-9.02-11.61
		c0.22-5.37,4.63-10.07,9.95-10.46c1.16-0.08,1.27-0.54,1.27-1.5c-0.03-10.52-0.03-21.03-0.01-31.55
		c0.01-5.67,3.23-10.08,8.26-11.49c1.74-0.49,3.09-0.32,4.6,0.93c12.49,10.28,25.92,19.07,41.03,25.09
		c11.86,4.73,24.14,7.29,36.96,7.2c13.32-0.09,26.65-0.02,39.97-0.02c7.67,0,12.92,4.24,14.57,11.73c0.02,0.08,0.14,0.13,0.21,0.19
		C406.5,296.33,406.5,303.37,406.5,310.42z"/>
</svg>
