<svg xmlns="http://www.w3.org/2000/svg" viewBox="0 0 500 500">
	<path fill="var(--vivid-color-1)" d="M137.91,262.52c0-6.88-5.58-12.46-12.46-12.46c-6.88,0-12.46,5.58-12.46,12.46c0,6.88,5.58,12.46,12.46,12.46C132.33,274.98,137.91,269.4,137.91,262.52z"/>

	<ellipse transform="matrix(0.3827 -0.9239 0.9239 0.3827 -47.003 367.1276)" fill="var(--vivid-color-1)" cx="251.22" cy="218.74" rx="21.29" ry="21.29"/>
	<path fill="var(--vivid-color-1)" d="M120.92,304.04c0.75,2.26,4.53,27.93,4.53,27.93l31.71-6.04L153.38,298L120.92,304.04z"/>
	<polygon fill="var(--vivid-color-1)" points="225.85,317.63 280.96,314.99 280.96,274.98 225.85,274.98 	"/>
	<polygon fill="var(--vivid-color-1)" points="348.15,328.2 376.84,331.97 383.63,303.29 348.15,298 	"/>
	<path fill="var(--vivid-color-1)" d="M248.88,11.78C116.24,11.78,8.71,119.31,8.71,251.95s107.53,240.17,240.17,240.17s240.17-107.53,240.17-240.17
		S381.52,11.78,248.88,11.78z M434.59,277.62l-28.31,65.68c7.93,6.79,15.85,13.59,23.78,20.38c-45.12-13.8-109.21-28.1-186.84-28.69
		c-67.99-0.51-125.25,9.66-167.59,20.51l21.52-17.87l-27.18-62.28l-11.32,8.67l-14.72-12.07l63.41-71.34l37.37,41.33l12.46-6.23
		l21.52,83.8l-7.93-101.91l-24.91,7.93l-14.72-18.12l120.11-87.19l119.96,87.19l-16.99,21.52l-18.12-14.72l-9.06,107.58l18.12-86.06
		l15.85,9.06l31.71-44.16l61.15,72.47l-10.19,10.94L434.59,277.62z"/>

	<ellipse transform="matrix(0.0498 -0.9988 0.9988 0.0498 95.8714 625.8149)" fill="var(--vivid-color-1)" cx="376.84" cy="262.52" rx="12.46" ry="12.46"/>
</svg>
